<?xml version="1.0" encoding="UTF-8"?>
<svg width="128px" height="74px" viewBox="0 0 128 74" version="1.1" xmlns="http://www.w3.org/2000/svg" xmlns:xlink="http://www.w3.org/1999/xlink">
    <!-- Generator: Sketch 50.2 (55047) - http://www.bohemiancoding.com/sketch -->
    <title>Icon</title>
    <desc>Created with Sketch.</desc>
    <defs></defs>
    <g id="Page-Designs" stroke="none" stroke-width="1" fill="none" fill-rule="evenodd">
        <g id="learn_overview" transform="translate(-919.000000, -5591.000000)">
            <g id="Serverless-Framework" transform="translate(143.000000, 4198.000000)">
                <g id="Benefits" transform="translate(0.000000, 852.000000)">
                    <g id="Ecosystem" transform="translate(727.000000, 541.000000)">
                        <g id="Icon" transform="translate(49.000000, 0.000000)">
                            <g id="Group-4-Copy-3" fill="#DFE5E6">
                                <circle id="Oval-Copy-13" transform="translate(61.000000, 31.000000) rotate(-270.000000) translate(-61.000000, -31.000000) " cx="61" cy="31" r="1"></circle>
                                <circle id="Oval-Copy-14" transform="translate(61.000000, 13.000000) rotate(-270.000000) translate(-61.000000, -13.000000) " cx="61" cy="13" r="1"></circle>
                                <circle id="Oval-Copy-15" transform="translate(61.000000, 49.000000) rotate(-270.000000) translate(-61.000000, -49.000000) " cx="61" cy="49" r="1"></circle>
                                <circle id="Oval-Copy-16" transform="translate(61.000000, 1.000000) rotate(-270.000000) translate(-61.000000, -1.000000) " cx="61" cy="1" r="1"></circle>
                                <circle id="Oval-Copy-17" transform="translate(61.000000, 37.000000) rotate(-270.000000) translate(-61.000000, -37.000000) " cx="61" cy="37" r="1"></circle>
                                <circle id="Oval-Copy-18" transform="translate(61.000000, 19.000000) rotate(-270.000000) translate(-61.000000, -19.000000) " cx="61" cy="19" r="1"></circle>
                                <circle id="Oval-Copy-19" transform="translate(61.000000, 55.000000) rotate(-270.000000) translate(-61.000000, -55.000000) " cx="61" cy="55" r="1"></circle>
                                <circle id="Oval-Copy-20" transform="translate(61.000000, 7.000000) rotate(-270.000000) translate(-61.000000, -7.000000) " cx="61" cy="7" r="1"></circle>
                                <circle id="Oval-Copy-21" transform="translate(61.000000, 43.000000) rotate(-270.000000) translate(-61.000000, -43.000000) " cx="61" cy="43" r="1"></circle>
                                <circle id="Oval-Copy-22" transform="translate(61.000000, 25.000000) rotate(-270.000000) translate(-61.000000, -25.000000) " cx="61" cy="25" r="1"></circle>
                                <circle id="Oval-Copy-23" transform="translate(61.000000, 61.000000) rotate(-270.000000) translate(-61.000000, -61.000000) " cx="61" cy="61" r="1"></circle>
                                <circle id="Oval-Copy-24" transform="translate(61.000000, 67.000000) rotate(-270.000000) translate(-61.000000, -67.000000) " cx="61" cy="67" r="1"></circle>
                                <circle id="Oval-Copy-25" transform="translate(61.000000, 73.000000) rotate(-270.000000) translate(-61.000000, -73.000000) " cx="61" cy="73" r="1"></circle>
                                <circle id="Oval-Copy-13" transform="translate(25.000000, 31.000000) rotate(-270.000000) translate(-25.000000, -31.000000) " cx="25" cy="31" r="1"></circle>
                                <circle id="Oval-Copy-14" transform="translate(25.000000, 13.000000) rotate(-270.000000) translate(-25.000000, -13.000000) " cx="25" cy="13" r="1"></circle>
                                <circle id="Oval-Copy-15" transform="translate(25.000000, 49.000000) rotate(-270.000000) translate(-25.000000, -49.000000) " cx="25" cy="49" r="1"></circle>
                                <circle id="Oval-Copy-16" transform="translate(25.000000, 1.000000) rotate(-270.000000) translate(-25.000000, -1.000000) " cx="25" cy="1" r="1"></circle>
                                <circle id="Oval-Copy-17" transform="translate(25.000000, 37.000000) rotate(-270.000000) translate(-25.000000, -37.000000) " cx="25" cy="37" r="1"></circle>
                                <circle id="Oval-Copy-18" transform="translate(25.000000, 19.000000) rotate(-270.000000) translate(-25.000000, -19.000000) " cx="25" cy="19" r="1"></circle>
                                <circle id="Oval-Copy-19" transform="translate(25.000000, 55.000000) rotate(-270.000000) translate(-25.000000, -55.000000) " cx="25" cy="55" r="1"></circle>
                                <circle id="Oval-Copy-20" transform="translate(25.000000, 7.000000) rotate(-270.000000) translate(-25.000000, -7.000000) " cx="25" cy="7" r="1"></circle>
                                <circle id="Oval-Copy-21" transform="translate(25.000000, 43.000000) rotate(-270.000000) translate(-25.000000, -43.000000) " cx="25" cy="43" r="1"></circle>
                                <circle id="Oval-Copy-22" transform="translate(25.000000, 25.000000) rotate(-270.000000) translate(-25.000000, -25.000000) " cx="25" cy="25" r="1"></circle>
                                <circle id="Oval-Copy-23" transform="translate(25.000000, 61.000000) rotate(-270.000000) translate(-25.000000, -61.000000) " cx="25" cy="61" r="1"></circle>
                                <circle id="Oval-Copy-24" transform="translate(25.000000, 67.000000) rotate(-270.000000) translate(-25.000000, -67.000000) " cx="25" cy="67" r="1"></circle>
                                <circle id="Oval-Copy-25" transform="translate(25.000000, 73.000000) rotate(-270.000000) translate(-25.000000, -73.000000) " cx="25" cy="73" r="1"></circle>
                                <circle id="Oval-Copy-13" transform="translate(43.000000, 31.000000) rotate(-270.000000) translate(-43.000000, -31.000000) " cx="43" cy="31" r="1"></circle>
                                <circle id="Oval-Copy-14" transform="translate(43.000000, 13.000000) rotate(-270.000000) translate(-43.000000, -13.000000) " cx="43" cy="13" r="1"></circle>
                                <circle id="Oval-Copy-15" transform="translate(43.000000, 49.000000) rotate(-270.000000) translate(-43.000000, -49.000000) " cx="43" cy="49" r="1"></circle>
                                <circle id="Oval-Copy-16" transform="translate(43.000000, 1.000000) rotate(-270.000000) translate(-43.000000, -1.000000) " cx="43" cy="1" r="1"></circle>
                                <circle id="Oval-Copy-17" transform="translate(43.000000, 37.000000) rotate(-270.000000) translate(-43.000000, -37.000000) " cx="43" cy="37" r="1"></circle>
                                <circle id="Oval-Copy-18" transform="translate(43.000000, 19.000000) rotate(-270.000000) translate(-43.000000, -19.000000) " cx="43" cy="19" r="1"></circle>
                                <circle id="Oval-Copy-19" transform="translate(43.000000, 55.000000) rotate(-270.000000) translate(-43.000000, -55.000000) " cx="43" cy="55" r="1"></circle>
                                <circle id="Oval-Copy-20" transform="translate(43.000000, 7.000000) rotate(-270.000000) translate(-43.000000, -7.000000) " cx="43" cy="7" r="1"></circle>
                                <circle id="Oval-Copy-21" transform="translate(43.000000, 43.000000) rotate(-270.000000) translate(-43.000000, -43.000000) " cx="43" cy="43" r="1"></circle>
                                <circle id="Oval-Copy-22" transform="translate(43.000000, 25.000000) rotate(-270.000000) translate(-43.000000, -25.000000) " cx="43" cy="25" r="1"></circle>
                                <circle id="Oval-Copy-23" transform="translate(43.000000, 61.000000) rotate(-270.000000) translate(-43.000000, -61.000000) " cx="43" cy="61" r="1"></circle>
                                <circle id="Oval-Copy-24" transform="translate(43.000000, 67.000000) rotate(-270.000000) translate(-43.000000, -67.000000) " cx="43" cy="67" r="1"></circle>
                                <circle id="Oval-Copy-25" transform="translate(43.000000, 73.000000) rotate(-270.000000) translate(-43.000000, -73.000000) " cx="43" cy="73" r="1"></circle>
                                <circle id="Oval-Copy-13" transform="translate(7.000000, 31.000000) rotate(-270.000000) translate(-7.000000, -31.000000) " cx="7" cy="31" r="1"></circle>
                                <circle id="Oval-Copy-14" transform="translate(7.000000, 13.000000) rotate(-270.000000) translate(-7.000000, -13.000000) " cx="7" cy="13" r="1"></circle>
                                <circle id="Oval-Copy-15" transform="translate(7.000000, 49.000000) rotate(-270.000000) translate(-7.000000, -49.000000) " cx="7" cy="49" r="1"></circle>
                                <circle id="Oval-Copy-16" transform="translate(7.000000, 1.000000) rotate(-270.000000) translate(-7.000000, -1.000000) " cx="7" cy="1" r="1"></circle>
                                <circle id="Oval-Copy-17" transform="translate(7.000000, 37.000000) rotate(-270.000000) translate(-7.000000, -37.000000) " cx="7" cy="37" r="1"></circle>
                                <circle id="Oval-Copy-18" transform="translate(7.000000, 19.000000) rotate(-270.000000) translate(-7.000000, -19.000000) " cx="7" cy="19" r="1"></circle>
                                <circle id="Oval-Copy-19" transform="translate(7.000000, 55.000000) rotate(-270.000000) translate(-7.000000, -55.000000) " cx="7" cy="55" r="1"></circle>
                                <circle id="Oval-Copy-20" transform="translate(7.000000, 7.000000) rotate(-270.000000) translate(-7.000000, -7.000000) " cx="7" cy="7" r="1"></circle>
                                <circle id="Oval-Copy-21" transform="translate(7.000000, 43.000000) rotate(-270.000000) translate(-7.000000, -43.000000) " cx="7" cy="43" r="1"></circle>
                                <circle id="Oval-Copy-22" transform="translate(7.000000, 25.000000) rotate(-270.000000) translate(-7.000000, -25.000000) " cx="7" cy="25" r="1"></circle>
                                <circle id="Oval-Copy-23" transform="translate(7.000000, 61.000000) rotate(-270.000000) translate(-7.000000, -61.000000) " cx="7" cy="61" r="1"></circle>
                                <circle id="Oval-Copy-24" transform="translate(7.000000, 67.000000) rotate(-270.000000) translate(-7.000000, -67.000000) " cx="7" cy="67" r="1"></circle>
                                <circle id="Oval-Copy-25" transform="translate(7.000000, 73.000000) rotate(-270.000000) translate(-7.000000, -73.000000) " cx="7" cy="73" r="1"></circle>
                                <circle id="Oval-Copy-13" transform="translate(55.000000, 31.000000) rotate(-270.000000) translate(-55.000000, -31.000000) " cx="55" cy="31" r="1"></circle>
                                <circle id="Oval-Copy-14" transform="translate(55.000000, 13.000000) rotate(-270.000000) translate(-55.000000, -13.000000) " cx="55" cy="13" r="1"></circle>
                                <circle id="Oval-Copy-15" transform="translate(55.000000, 49.000000) rotate(-270.000000) translate(-55.000000, -49.000000) " cx="55" cy="49" r="1"></circle>
                                <circle id="Oval-Copy-16" transform="translate(55.000000, 1.000000) rotate(-270.000000) translate(-55.000000, -1.000000) " cx="55" cy="1" r="1"></circle>
                                <circle id="Oval-Copy-17" transform="translate(55.000000, 37.000000) rotate(-270.000000) translate(-55.000000, -37.000000) " cx="55" cy="37" r="1"></circle>
                                <circle id="Oval-Copy-18" transform="translate(55.000000, 19.000000) rotate(-270.000000) translate(-55.000000, -19.000000) " cx="55" cy="19" r="1"></circle>
                                <circle id="Oval-Copy-19" transform="translate(55.000000, 55.000000) rotate(-270.000000) translate(-55.000000, -55.000000) " cx="55" cy="55" r="1"></circle>
                                <circle id="Oval-Copy-20" transform="translate(55.000000, 7.000000) rotate(-270.000000) translate(-55.000000, -7.000000) " cx="55" cy="7" r="1"></circle>
                                <circle id="Oval-Copy-21" transform="translate(55.000000, 43.000000) rotate(-270.000000) translate(-55.000000, -43.000000) " cx="55" cy="43" r="1"></circle>
                                <circle id="Oval-Copy-22" transform="translate(55.000000, 25.000000) rotate(-270.000000) translate(-55.000000, -25.000000) " cx="55" cy="25" r="1"></circle>
                                <circle id="Oval-Copy-23" transform="translate(55.000000, 61.000000) rotate(-270.000000) translate(-55.000000, -61.000000) " cx="55" cy="61" r="1"></circle>
                                <circle id="Oval-Copy-24" transform="translate(55.000000, 67.000000) rotate(-270.000000) translate(-55.000000, -67.000000) " cx="55" cy="67" r="1"></circle>
                                <circle id="Oval-Copy-25" transform="translate(55.000000, 73.000000) rotate(-270.000000) translate(-55.000000, -73.000000) " cx="55" cy="73" r="1"></circle>
                                <circle id="Oval-Copy-13" transform="translate(19.000000, 31.000000) rotate(-270.000000) translate(-19.000000, -31.000000) " cx="19" cy="31" r="1"></circle>
                                <circle id="Oval-Copy-14" transform="translate(19.000000, 13.000000) rotate(-270.000000) translate(-19.000000, -13.000000) " cx="19" cy="13" r="1"></circle>
                                <circle id="Oval-Copy-15" transform="translate(19.000000, 49.000000) rotate(-270.000000) translate(-19.000000, -49.000000) " cx="19" cy="49" r="1"></circle>
                                <circle id="Oval-Copy-16" transform="translate(19.000000, 1.000000) rotate(-270.000000) translate(-19.000000, -1.000000) " cx="19" cy="1" r="1"></circle>
                                <circle id="Oval-Copy-17" transform="translate(19.000000, 37.000000) rotate(-270.000000) translate(-19.000000, -37.000000) " cx="19" cy="37" r="1"></circle>
                                <circle id="Oval-Copy-18" transform="translate(19.000000, 19.000000) rotate(-270.000000) translate(-19.000000, -19.000000) " cx="19" cy="19" r="1"></circle>
                                <circle id="Oval-Copy-19" transform="translate(19.000000, 55.000000) rotate(-270.000000) translate(-19.000000, -55.000000) " cx="19" cy="55" r="1"></circle>
                                <circle id="Oval-Copy-20" transform="translate(19.000000, 7.000000) rotate(-270.000000) translate(-19.000000, -7.000000) " cx="19" cy="7" r="1"></circle>
                                <circle id="Oval-Copy-21" transform="translate(19.000000, 43.000000) rotate(-270.000000) translate(-19.000000, -43.000000) " cx="19" cy="43" r="1"></circle>
                                <circle id="Oval-Copy-22" transform="translate(19.000000, 25.000000) rotate(-270.000000) translate(-19.000000, -25.000000) " cx="19" cy="25" r="1"></circle>
                                <circle id="Oval-Copy-23" transform="translate(19.000000, 61.000000) rotate(-270.000000) translate(-19.000000, -61.000000) " cx="19" cy="61" r="1"></circle>
                                <circle id="Oval-Copy-24" transform="translate(19.000000, 67.000000) rotate(-270.000000) translate(-19.000000, -67.000000) " cx="19" cy="67" r="1"></circle>
                                <circle id="Oval-Copy-25" transform="translate(19.000000, 73.000000) rotate(-270.000000) translate(-19.000000, -73.000000) " cx="19" cy="73" r="1"></circle>
                                <circle id="Oval-Copy-13" transform="translate(37.000000, 31.000000) rotate(-270.000000) translate(-37.000000, -31.000000) " cx="37" cy="31" r="1"></circle>
                                <circle id="Oval-Copy-14" transform="translate(37.000000, 13.000000) rotate(-270.000000) translate(-37.000000, -13.000000) " cx="37" cy="13" r="1"></circle>
                                <circle id="Oval-Copy-15" transform="translate(37.000000, 49.000000) rotate(-270.000000) translate(-37.000000, -49.000000) " cx="37" cy="49" r="1"></circle>
                                <circle id="Oval-Copy-16" transform="translate(37.000000, 1.000000) rotate(-270.000000) translate(-37.000000, -1.000000) " cx="37" cy="1" r="1"></circle>
                                <circle id="Oval-Copy-17" transform="translate(37.000000, 37.000000) rotate(-270.000000) translate(-37.000000, -37.000000) " cx="37" cy="37" r="1"></circle>
                                <circle id="Oval-Copy-18" transform="translate(37.000000, 19.000000) rotate(-270.000000) translate(-37.000000, -19.000000) " cx="37" cy="19" r="1"></circle>
                                <circle id="Oval-Copy-19" transform="translate(37.000000, 55.000000) rotate(-270.000000) translate(-37.000000, -55.000000) " cx="37" cy="55" r="1"></circle>
                                <circle id="Oval-Copy-20" transform="translate(37.000000, 7.000000) rotate(-270.000000) translate(-37.000000, -7.000000) " cx="37" cy="7" r="1"></circle>
                                <circle id="Oval-Copy-21" transform="translate(37.000000, 43.000000) rotate(-270.000000) translate(-37.000000, -43.000000) " cx="37" cy="43" r="1"></circle>
                                <circle id="Oval-Copy-22" transform="translate(37.000000, 25.000000) rotate(-270.000000) translate(-37.000000, -25.000000) " cx="37" cy="25" r="1"></circle>
                                <circle id="Oval-Copy-23" transform="translate(37.000000, 61.000000) rotate(-270.000000) translate(-37.000000, -61.000000) " cx="37" cy="61" r="1"></circle>
                                <circle id="Oval-Copy-24" transform="translate(37.000000, 67.000000) rotate(-270.000000) translate(-37.000000, -67.000000) " cx="37" cy="67" r="1"></circle>
                                <circle id="Oval-Copy-25" transform="translate(37.000000, 73.000000) rotate(-270.000000) translate(-37.000000, -73.000000) " cx="37" cy="73" r="1"></circle>
                                <circle id="Oval-Copy-13" transform="translate(1.000000, 31.000000) rotate(-270.000000) translate(-1.000000, -31.000000) " cx="1" cy="31" r="1"></circle>
                                <circle id="Oval-Copy-14" transform="translate(1.000000, 13.000000) rotate(-270.000000) translate(-1.000000, -13.000000) " cx="1" cy="13" r="1"></circle>
                                <circle id="Oval-Copy-15" transform="translate(1.000000, 49.000000) rotate(-270.000000) translate(-1.000000, -49.000000) " cx="1" cy="49" r="1"></circle>
                                <circle id="Oval-Copy-16" transform="translate(1.000000, 1.000000) rotate(-270.000000) translate(-1.000000, -1.000000) " cx="1" cy="1" r="1"></circle>
                                <circle id="Oval-Copy-17" transform="translate(1.000000, 37.000000) rotate(-270.000000) translate(-1.000000, -37.000000) " cx="1" cy="37" r="1"></circle>
                                <circle id="Oval-Copy-18" transform="translate(1.000000, 19.000000) rotate(-270.000000) translate(-1.000000, -19.000000) " cx="1" cy="19" r="1"></circle>
                                <circle id="Oval-Copy-19" transform="translate(1.000000, 55.000000) rotate(-270.000000) translate(-1.000000, -55.000000) " cx="1" cy="55" r="1"></circle>
                                <circle id="Oval-Copy-20" transform="translate(1.000000, 7.000000) rotate(-270.000000) translate(-1.000000, -7.000000) " cx="1" cy="7" r="1"></circle>
                                <circle id="Oval-Copy-21" transform="translate(1.000000, 43.000000) rotate(-270.000000) translate(-1.000000, -43.000000) " cx="1" cy="43" r="1"></circle>
                                <circle id="Oval-Copy-22" transform="translate(1.000000, 25.000000) rotate(-270.000000) translate(-1.000000, -25.000000) " cx="1" cy="25" r="1"></circle>
                                <circle id="Oval-Copy-23" transform="translate(1.000000, 61.000000) rotate(-270.000000) translate(-1.000000, -61.000000) " cx="1" cy="61" r="1"></circle>
                                <circle id="Oval-Copy-24" transform="translate(1.000000, 67.000000) rotate(-270.000000) translate(-1.000000, -67.000000) " cx="1" cy="67" r="1"></circle>
                                <circle id="Oval-Copy-25" transform="translate(1.000000, 73.000000) rotate(-270.000000) translate(-1.000000, -73.000000) " cx="1" cy="73" r="1"></circle>
                                <circle id="Oval-Copy-13" transform="translate(49.000000, 31.000000) rotate(-270.000000) translate(-49.000000, -31.000000) " cx="49" cy="31" r="1"></circle>
                                <circle id="Oval-Copy-14" transform="translate(49.000000, 13.000000) rotate(-270.000000) translate(-49.000000, -13.000000) " cx="49" cy="13" r="1"></circle>
                                <circle id="Oval-Copy-15" transform="translate(49.000000, 49.000000) rotate(-270.000000) translate(-49.000000, -49.000000) " cx="49" cy="49" r="1"></circle>
                                <circle id="Oval-Copy-16" transform="translate(49.000000, 1.000000) rotate(-270.000000) translate(-49.000000, -1.000000) " cx="49" cy="1" r="1"></circle>
                                <circle id="Oval-Copy-17" transform="translate(49.000000, 37.000000) rotate(-270.000000) translate(-49.000000, -37.000000) " cx="49" cy="37" r="1"></circle>
                                <circle id="Oval-Copy-18" transform="translate(49.000000, 19.000000) rotate(-270.000000) translate(-49.000000, -19.000000) " cx="49" cy="19" r="1"></circle>
                                <circle id="Oval-Copy-19" transform="translate(49.000000, 55.000000) rotate(-270.000000) translate(-49.000000, -55.000000) " cx="49" cy="55" r="1"></circle>
                                <circle id="Oval-Copy-20" transform="translate(49.000000, 7.000000) rotate(-270.000000) translate(-49.000000, -7.000000) " cx="49" cy="7" r="1"></circle>
                                <circle id="Oval-Copy-21" transform="translate(49.000000, 43.000000) rotate(-270.000000) translate(-49.000000, -43.000000) " cx="49" cy="43" r="1"></circle>
                                <circle id="Oval-Copy-22" transform="translate(49.000000, 25.000000) rotate(-270.000000) translate(-49.000000, -25.000000) " cx="49" cy="25" r="1"></circle>
                                <circle id="Oval-Copy-23" transform="translate(49.000000, 61.000000) rotate(-270.000000) translate(-49.000000, -61.000000) " cx="49" cy="61" r="1"></circle>
                                <circle id="Oval-Copy-24" transform="translate(49.000000, 67.000000) rotate(-270.000000) translate(-49.000000, -67.000000) " cx="49" cy="67" r="1"></circle>
                                <circle id="Oval-Copy-25" transform="translate(49.000000, 73.000000) rotate(-270.000000) translate(-49.000000, -73.000000) " cx="49" cy="73" r="1"></circle>
                                <circle id="Oval-Copy-13" transform="translate(13.000000, 31.000000) rotate(-270.000000) translate(-13.000000, -31.000000) " cx="13" cy="31" r="1"></circle>
                                <circle id="Oval-Copy-14" transform="translate(13.000000, 13.000000) rotate(-270.000000) translate(-13.000000, -13.000000) " cx="13" cy="13" r="1"></circle>
                                <circle id="Oval-Copy-15" transform="translate(13.000000, 49.000000) rotate(-270.000000) translate(-13.000000, -49.000000) " cx="13" cy="49" r="1"></circle>
                                <circle id="Oval-Copy-16" transform="translate(13.000000, 1.000000) rotate(-270.000000) translate(-13.000000, -1.000000) " cx="13" cy="1" r="1"></circle>
                                <circle id="Oval-Copy-17" transform="translate(13.000000, 37.000000) rotate(-270.000000) translate(-13.000000, -37.000000) " cx="13" cy="37" r="1"></circle>
                                <circle id="Oval-Copy-18" transform="translate(13.000000, 19.000000) rotate(-270.000000) translate(-13.000000, -19.000000) " cx="13" cy="19" r="1"></circle>
                                <circle id="Oval-Copy-19" transform="translate(13.000000, 55.000000) rotate(-270.000000) translate(-13.000000, -55.000000) " cx="13" cy="55" r="1"></circle>
                                <circle id="Oval-Copy-20" transform="translate(13.000000, 7.000000) rotate(-270.000000) translate(-13.000000, -7.000000) " cx="13" cy="7" r="1"></circle>
                                <circle id="Oval-Copy-21" transform="translate(13.000000, 43.000000) rotate(-270.000000) translate(-13.000000, -43.000000) " cx="13" cy="43" r="1"></circle>
                                <circle id="Oval-Copy-22" transform="translate(13.000000, 25.000000) rotate(-270.000000) translate(-13.000000, -25.000000) " cx="13" cy="25" r="1"></circle>
                                <circle id="Oval-Copy-23" transform="translate(13.000000, 61.000000) rotate(-270.000000) translate(-13.000000, -61.000000) " cx="13" cy="61" r="1"></circle>
                                <circle id="Oval-Copy-24" transform="translate(13.000000, 67.000000) rotate(-270.000000) translate(-13.000000, -67.000000) " cx="13" cy="67" r="1"></circle>
                                <circle id="Oval-Copy-25" transform="translate(13.000000, 73.000000) rotate(-270.000000) translate(-13.000000, -73.000000) " cx="13" cy="73" r="1"></circle>
                                <circle id="Oval-Copy-13" transform="translate(31.000000, 31.000000) rotate(-270.000000) translate(-31.000000, -31.000000) " cx="31" cy="31" r="1"></circle>
                                <circle id="Oval-Copy-14" transform="translate(31.000000, 13.000000) rotate(-270.000000) translate(-31.000000, -13.000000) " cx="31" cy="13" r="1"></circle>
                                <circle id="Oval-Copy-15" transform="translate(31.000000, 49.000000) rotate(-270.000000) translate(-31.000000, -49.000000) " cx="31" cy="49" r="1"></circle>
                                <circle id="Oval-Copy-16" transform="translate(31.000000, 1.000000) rotate(-270.000000) translate(-31.000000, -1.000000) " cx="31" cy="1" r="1"></circle>
                                <circle id="Oval-Copy-17" transform="translate(31.000000, 37.000000) rotate(-270.000000) translate(-31.000000, -37.000000) " cx="31" cy="37" r="1"></circle>
                                <circle id="Oval-Copy-18" transform="translate(31.000000, 19.000000) rotate(-270.000000) translate(-31.000000, -19.000000) " cx="31" cy="19" r="1"></circle>
                                <circle id="Oval-Copy-19" transform="translate(31.000000, 55.000000) rotate(-270.000000) translate(-31.000000, -55.000000) " cx="31" cy="55" r="1"></circle>
                                <circle id="Oval-Copy-20" transform="translate(31.000000, 7.000000) rotate(-270.000000) translate(-31.000000, -7.000000) " cx="31" cy="7" r="1"></circle>
                                <circle id="Oval-Copy-21" transform="translate(31.000000, 43.000000) rotate(-270.000000) translate(-31.000000, -43.000000) " cx="31" cy="43" r="1"></circle>
                                <circle id="Oval-Copy-22" transform="translate(31.000000, 25.000000) rotate(-270.000000) translate(-31.000000, -25.000000) " cx="31" cy="25" r="1"></circle>
                                <circle id="Oval" transform="translate(127.000000, 1.000000) rotate(-270.000000) translate(-127.000000, -1.000000) " cx="127" cy="1" r="1"></circle>
                                <circle id="Oval-Copy-12" transform="translate(127.000000, 73.000000) rotate(-270.000000) translate(-127.000000, -73.000000) " cx="127" cy="73" r="1"></circle>
                                <circle id="Oval-Copy-6" transform="translate(127.000000, 37.000000) rotate(-270.000000) translate(-127.000000, -37.000000) " cx="127" cy="37" r="1"></circle>
                                <circle id="Oval-Copy-3" transform="translate(127.000000, 19.000000) rotate(-270.000000) translate(-127.000000, -19.000000) " cx="127" cy="19" r="1"></circle>
                                <circle id="Oval-Copy-7" transform="translate(127.000000, 55.000000) rotate(-270.000000) translate(-127.000000, -55.000000) " cx="127" cy="55" r="1"></circle>
                                <circle id="Oval-Copy" transform="translate(127.000000, 7.000000) rotate(-270.000000) translate(-127.000000, -7.000000) " cx="127" cy="7" r="1"></circle>
                                <circle id="Oval-Copy-8" transform="translate(127.000000, 43.000000) rotate(-270.000000) translate(-127.000000, -43.000000) " cx="127" cy="43" r="1"></circle>
                                <circle id="Oval-Copy-4" transform="translate(127.000000, 25.000000) rotate(-270.000000) translate(-127.000000, -25.000000) " cx="127" cy="25" r="1"></circle>
                                <circle id="Oval-Copy-9" transform="translate(127.000000, 61.000000) rotate(-270.000000) translate(-127.000000, -61.000000) " cx="127" cy="61" r="1"></circle>
                                <circle id="Oval-Copy-2" transform="translate(127.000000, 13.000000) rotate(-270.000000) translate(-127.000000, -13.000000) " cx="127" cy="13" r="1"></circle>
                                <circle id="Oval-Copy-10" transform="translate(127.000000, 49.000000) rotate(-270.000000) translate(-127.000000, -49.000000) " cx="127" cy="49" r="1"></circle>
                                <circle id="Oval-Copy-5" transform="translate(127.000000, 31.000000) rotate(-270.000000) translate(-127.000000, -31.000000) " cx="127" cy="31" r="1"></circle>
                                <circle id="Oval-Copy-11" transform="translate(127.000000, 67.000000) rotate(-270.000000) translate(-127.000000, -67.000000) " cx="127" cy="67" r="1"></circle>
                                <circle id="Oval" transform="translate(91.000000, 1.000000) rotate(-270.000000) translate(-91.000000, -1.000000) " cx="91" cy="1" r="1"></circle>
                                <circle id="Oval-Copy-12" transform="translate(91.000000, 73.000000) rotate(-270.000000) translate(-91.000000, -73.000000) " cx="91" cy="73" r="1"></circle>
                                <circle id="Oval-Copy-6" transform="translate(91.000000, 37.000000) rotate(-270.000000) translate(-91.000000, -37.000000) " cx="91" cy="37" r="1"></circle>
                                <circle id="Oval-Copy-3" transform="translate(91.000000, 19.000000) rotate(-270.000000) translate(-91.000000, -19.000000) " cx="91" cy="19" r="1"></circle>
                                <circle id="Oval-Copy-7" transform="translate(91.000000, 55.000000) rotate(-270.000000) translate(-91.000000, -55.000000) " cx="91" cy="55" r="1"></circle>
                                <circle id="Oval-Copy" transform="translate(91.000000, 7.000000) rotate(-270.000000) translate(-91.000000, -7.000000) " cx="91" cy="7" r="1"></circle>
                                <circle id="Oval-Copy-8" transform="translate(91.000000, 43.000000) rotate(-270.000000) translate(-91.000000, -43.000000) " cx="91" cy="43" r="1"></circle>
                                <circle id="Oval-Copy-4" transform="translate(91.000000, 25.000000) rotate(-270.000000) translate(-91.000000, -25.000000) " cx="91" cy="25" r="1"></circle>
                                <circle id="Oval-Copy-9" transform="translate(91.000000, 61.000000) rotate(-270.000000) translate(-91.000000, -61.000000) " cx="91" cy="61" r="1"></circle>
                                <circle id="Oval-Copy-2" transform="translate(91.000000, 13.000000) rotate(-270.000000) translate(-91.000000, -13.000000) " cx="91" cy="13" r="1"></circle>
                                <circle id="Oval-Copy-10" transform="translate(91.000000, 49.000000) rotate(-270.000000) translate(-91.000000, -49.000000) " cx="91" cy="49" r="1"></circle>
                                <circle id="Oval-Copy-5" transform="translate(91.000000, 31.000000) rotate(-270.000000) translate(-91.000000, -31.000000) " cx="91" cy="31" r="1"></circle>
                                <circle id="Oval-Copy-11" transform="translate(91.000000, 67.000000) rotate(-270.000000) translate(-91.000000, -67.000000) " cx="91" cy="67" r="1"></circle>
                                <circle id="Oval" transform="translate(109.000000, 1.000000) rotate(-270.000000) translate(-109.000000, -1.000000) " cx="109" cy="1" r="1"></circle>
                                <circle id="Oval-Copy-12" transform="translate(109.000000, 73.000000) rotate(-270.000000) translate(-109.000000, -73.000000) " cx="109" cy="73" r="1"></circle>
                                <circle id="Oval-Copy-6" transform="translate(109.000000, 37.000000) rotate(-270.000000) translate(-109.000000, -37.000000) " cx="109" cy="37" r="1"></circle>
                                <circle id="Oval-Copy-3" transform="translate(109.000000, 19.000000) rotate(-270.000000) translate(-109.000000, -19.000000) " cx="109" cy="19" r="1"></circle>
                                <circle id="Oval-Copy-7" transform="translate(109.000000, 55.000000) rotate(-270.000000) translate(-109.000000, -55.000000) " cx="109" cy="55" r="1"></circle>
                                <circle id="Oval-Copy" transform="translate(109.000000, 7.000000) rotate(-270.000000) translate(-109.000000, -7.000000) " cx="109" cy="7" r="1"></circle>
                                <circle id="Oval-Copy-8" transform="translate(109.000000, 43.000000) rotate(-270.000000) translate(-109.000000, -43.000000) " cx="109" cy="43" r="1"></circle>
                                <circle id="Oval-Copy-4" transform="translate(109.000000, 25.000000) rotate(-270.000000) translate(-109.000000, -25.000000) " cx="109" cy="25" r="1"></circle>
                                <circle id="Oval-Copy-9" transform="translate(109.000000, 61.000000) rotate(-270.000000) translate(-109.000000, -61.000000) " cx="109" cy="61" r="1"></circle>
                                <circle id="Oval-Copy-2" transform="translate(109.000000, 13.000000) rotate(-270.000000) translate(-109.000000, -13.000000) " cx="109" cy="13" r="1"></circle>
                                <circle id="Oval-Copy-10" transform="translate(109.000000, 49.000000) rotate(-270.000000) translate(-109.000000, -49.000000) " cx="109" cy="49" r="1"></circle>
                                <circle id="Oval-Copy-5" transform="translate(109.000000, 31.000000) rotate(-270.000000) translate(-109.000000, -31.000000) " cx="109" cy="31" r="1"></circle>
                                <circle id="Oval-Copy-11" transform="translate(109.000000, 67.000000) rotate(-270.000000) translate(-109.000000, -67.000000) " cx="109" cy="67" r="1"></circle>
                                <circle id="Oval" transform="translate(73.000000, 1.000000) rotate(-270.000000) translate(-73.000000, -1.000000) " cx="73" cy="1" r="1"></circle>
                                <circle id="Oval-Copy-12" transform="translate(73.000000, 73.000000) rotate(-270.000000) translate(-73.000000, -73.000000) " cx="73" cy="73" r="1"></circle>
                                <circle id="Oval-Copy-6" transform="translate(73.000000, 37.000000) rotate(-270.000000) translate(-73.000000, -37.000000) " cx="73" cy="37" r="1"></circle>
                                <circle id="Oval-Copy-3" transform="translate(73.000000, 19.000000) rotate(-270.000000) translate(-73.000000, -19.000000) " cx="73" cy="19" r="1"></circle>
                                <circle id="Oval-Copy-7" transform="translate(73.000000, 55.000000) rotate(-270.000000) translate(-73.000000, -55.000000) " cx="73" cy="55" r="1"></circle>
                                <circle id="Oval-Copy" transform="translate(73.000000, 7.000000) rotate(-270.000000) translate(-73.000000, -7.000000) " cx="73" cy="7" r="1"></circle>
                                <circle id="Oval-Copy-8" transform="translate(73.000000, 43.000000) rotate(-270.000000) translate(-73.000000, -43.000000) " cx="73" cy="43" r="1"></circle>
                                <circle id="Oval-Copy-4" transform="translate(73.000000, 25.000000) rotate(-270.000000) translate(-73.000000, -25.000000) " cx="73" cy="25" r="1"></circle>
                                <circle id="Oval-Copy-9" transform="translate(73.000000, 61.000000) rotate(-270.000000) translate(-73.000000, -61.000000) " cx="73" cy="61" r="1"></circle>
                                <circle id="Oval-Copy-2" transform="translate(73.000000, 13.000000) rotate(-270.000000) translate(-73.000000, -13.000000) " cx="73" cy="13" r="1"></circle>
                                <circle id="Oval-Copy-10" transform="translate(73.000000, 49.000000) rotate(-270.000000) translate(-73.000000, -49.000000) " cx="73" cy="49" r="1"></circle>
                                <circle id="Oval-Copy-5" transform="translate(73.000000, 31.000000) rotate(-270.000000) translate(-73.000000, -31.000000) " cx="73" cy="31" r="1"></circle>
                                <circle id="Oval-Copy-11" transform="translate(73.000000, 67.000000) rotate(-270.000000) translate(-73.000000, -67.000000) " cx="73" cy="67" r="1"></circle>
                                <circle id="Oval" transform="translate(121.000000, 1.000000) rotate(-270.000000) translate(-121.000000, -1.000000) " cx="121" cy="1" r="1"></circle>
                                <circle id="Oval-Copy-12" transform="translate(121.000000, 73.000000) rotate(-270.000000) translate(-121.000000, -73.000000) " cx="121" cy="73" r="1"></circle>
                                <circle id="Oval-Copy-6" transform="translate(121.000000, 37.000000) rotate(-270.000000) translate(-121.000000, -37.000000) " cx="121" cy="37" r="1"></circle>
                                <circle id="Oval-Copy-3" transform="translate(121.000000, 19.000000) rotate(-270.000000) translate(-121.000000, -19.000000) " cx="121" cy="19" r="1"></circle>
                                <circle id="Oval-Copy-7" transform="translate(121.000000, 55.000000) rotate(-270.000000) translate(-121.000000, -55.000000) " cx="121" cy="55" r="1"></circle>
                                <circle id="Oval-Copy" transform="translate(121.000000, 7.000000) rotate(-270.000000) translate(-121.000000, -7.000000) " cx="121" cy="7" r="1"></circle>
                                <circle id="Oval-Copy-8" transform="translate(121.000000, 43.000000) rotate(-270.000000) translate(-121.000000, -43.000000) " cx="121" cy="43" r="1"></circle>
                                <circle id="Oval-Copy-4" transform="translate(121.000000, 25.000000) rotate(-270.000000) translate(-121.000000, -25.000000) " cx="121" cy="25" r="1"></circle>
                                <circle id="Oval-Copy-9" transform="translate(121.000000, 61.000000) rotate(-270.000000) translate(-121.000000, -61.000000) " cx="121" cy="61" r="1"></circle>
                                <circle id="Oval-Copy-2" transform="translate(121.000000, 13.000000) rotate(-270.000000) translate(-121.000000, -13.000000) " cx="121" cy="13" r="1"></circle>
                                <circle id="Oval-Copy-10" transform="translate(121.000000, 49.000000) rotate(-270.000000) translate(-121.000000, -49.000000) " cx="121" cy="49" r="1"></circle>
                                <circle id="Oval-Copy-5" transform="translate(121.000000, 31.000000) rotate(-270.000000) translate(-121.000000, -31.000000) " cx="121" cy="31" r="1"></circle>
                                <circle id="Oval-Copy-11" transform="translate(121.000000, 67.000000) rotate(-270.000000) translate(-121.000000, -67.000000) " cx="121" cy="67" r="1"></circle>
                                <circle id="Oval" transform="translate(85.000000, 1.000000) rotate(-270.000000) translate(-85.000000, -1.000000) " cx="85" cy="1" r="1"></circle>
                                <circle id="Oval-Copy-12" transform="translate(85.000000, 73.000000) rotate(-270.000000) translate(-85.000000, -73.000000) " cx="85" cy="73" r="1"></circle>
                                <circle id="Oval-Copy-6" transform="translate(85.000000, 37.000000) rotate(-270.000000) translate(-85.000000, -37.000000) " cx="85" cy="37" r="1"></circle>
                                <circle id="Oval-Copy-3" transform="translate(85.000000, 19.000000) rotate(-270.000000) translate(-85.000000, -19.000000) " cx="85" cy="19" r="1"></circle>
                                <circle id="Oval-Copy-7" transform="translate(85.000000, 55.000000) rotate(-270.000000) translate(-85.000000, -55.000000) " cx="85" cy="55" r="1"></circle>
                                <circle id="Oval-Copy" transform="translate(85.000000, 7.000000) rotate(-270.000000) translate(-85.000000, -7.000000) " cx="85" cy="7" r="1"></circle>
                                <circle id="Oval-Copy-8" transform="translate(85.000000, 43.000000) rotate(-270.000000) translate(-85.000000, -43.000000) " cx="85" cy="43" r="1"></circle>
                                <circle id="Oval-Copy-4" transform="translate(85.000000, 25.000000) rotate(-270.000000) translate(-85.000000, -25.000000) " cx="85" cy="25" r="1"></circle>
                                <circle id="Oval-Copy-9" transform="translate(85.000000, 61.000000) rotate(-270.000000) translate(-85.000000, -61.000000) " cx="85" cy="61" r="1"></circle>
                                <circle id="Oval-Copy-2" transform="translate(85.000000, 13.000000) rotate(-270.000000) translate(-85.000000, -13.000000) " cx="85" cy="13" r="1"></circle>
                                <circle id="Oval-Copy-10" transform="translate(85.000000, 49.000000) rotate(-270.000000) translate(-85.000000, -49.000000) " cx="85" cy="49" r="1"></circle>
                                <circle id="Oval-Copy-5" transform="translate(85.000000, 31.000000) rotate(-270.000000) translate(-85.000000, -31.000000) " cx="85" cy="31" r="1"></circle>
                                <circle id="Oval-Copy-11" transform="translate(85.000000, 67.000000) rotate(-270.000000) translate(-85.000000, -67.000000) " cx="85" cy="67" r="1"></circle>
                                <circle id="Oval" transform="translate(103.000000, 1.000000) rotate(-270.000000) translate(-103.000000, -1.000000) " cx="103" cy="1" r="1"></circle>
                                <circle id="Oval-Copy-12" transform="translate(103.000000, 73.000000) rotate(-270.000000) translate(-103.000000, -73.000000) " cx="103" cy="73" r="1"></circle>
                                <circle id="Oval-Copy-6" transform="translate(103.000000, 37.000000) rotate(-270.000000) translate(-103.000000, -37.000000) " cx="103" cy="37" r="1"></circle>
                                <circle id="Oval-Copy-3" transform="translate(103.000000, 19.000000) rotate(-270.000000) translate(-103.000000, -19.000000) " cx="103" cy="19" r="1"></circle>
                                <circle id="Oval-Copy-7" transform="translate(103.000000, 55.000000) rotate(-270.000000) translate(-103.000000, -55.000000) " cx="103" cy="55" r="1"></circle>
                                <circle id="Oval-Copy" transform="translate(103.000000, 7.000000) rotate(-270.000000) translate(-103.000000, -7.000000) " cx="103" cy="7" r="1"></circle>
                                <circle id="Oval-Copy-8" transform="translate(103.000000, 43.000000) rotate(-270.000000) translate(-103.000000, -43.000000) " cx="103" cy="43" r="1"></circle>
                                <circle id="Oval-Copy-4" transform="translate(103.000000, 25.000000) rotate(-270.000000) translate(-103.000000, -25.000000) " cx="103" cy="25" r="1"></circle>
                                <circle id="Oval-Copy-9" transform="translate(103.000000, 61.000000) rotate(-270.000000) translate(-103.000000, -61.000000) " cx="103" cy="61" r="1"></circle>
                                <circle id="Oval-Copy-2" transform="translate(103.000000, 13.000000) rotate(-270.000000) translate(-103.000000, -13.000000) " cx="103" cy="13" r="1"></circle>
                                <circle id="Oval-Copy-10" transform="translate(103.000000, 49.000000) rotate(-270.000000) translate(-103.000000, -49.000000) " cx="103" cy="49" r="1"></circle>
                                <circle id="Oval-Copy-5" transform="translate(103.000000, 31.000000) rotate(-270.000000) translate(-103.000000, -31.000000) " cx="103" cy="31" r="1"></circle>
                                <circle id="Oval-Copy-11" transform="translate(103.000000, 67.000000) rotate(-270.000000) translate(-103.000000, -67.000000) " cx="103" cy="67" r="1"></circle>
                                <circle id="Oval" transform="translate(67.000000, 1.000000) rotate(-270.000000) translate(-67.000000, -1.000000) " cx="67" cy="1" r="1"></circle>
                                <circle id="Oval-Copy-12" transform="translate(67.000000, 73.000000) rotate(-270.000000) translate(-67.000000, -73.000000) " cx="67" cy="73" r="1"></circle>
                                <circle id="Oval-Copy-6" transform="translate(67.000000, 37.000000) rotate(-270.000000) translate(-67.000000, -37.000000) " cx="67" cy="37" r="1"></circle>
                                <circle id="Oval-Copy-3" transform="translate(67.000000, 19.000000) rotate(-270.000000) translate(-67.000000, -19.000000) " cx="67" cy="19" r="1"></circle>
                                <circle id="Oval-Copy-7" transform="translate(67.000000, 55.000000) rotate(-270.000000) translate(-67.000000, -55.000000) " cx="67" cy="55" r="1"></circle>
                                <circle id="Oval-Copy" transform="translate(67.000000, 7.000000) rotate(-270.000000) translate(-67.000000, -7.000000) " cx="67" cy="7" r="1"></circle>
                                <circle id="Oval-Copy-8" transform="translate(67.000000, 43.000000) rotate(-270.000000) translate(-67.000000, -43.000000) " cx="67" cy="43" r="1"></circle>
                                <circle id="Oval-Copy-4" transform="translate(67.000000, 25.000000) rotate(-270.000000) translate(-67.000000, -25.000000) " cx="67" cy="25" r="1"></circle>
                                <circle id="Oval-Copy-9" transform="translate(67.000000, 61.000000) rotate(-270.000000) translate(-67.000000, -61.000000) " cx="67" cy="61" r="1"></circle>
                                <circle id="Oval-Copy-2" transform="translate(67.000000, 13.000000) rotate(-270.000000) translate(-67.000000, -13.000000) " cx="67" cy="13" r="1"></circle>
                                <circle id="Oval-Copy-10" transform="translate(67.000000, 49.000000) rotate(-270.000000) translate(-67.000000, -49.000000) " cx="67" cy="49" r="1"></circle>
                                <circle id="Oval-Copy-5" transform="translate(67.000000, 31.000000) rotate(-270.000000) translate(-67.000000, -31.000000) " cx="67" cy="31" r="1"></circle>
                                <circle id="Oval-Copy-11" transform="translate(67.000000, 67.000000) rotate(-270.000000) translate(-67.000000, -67.000000) " cx="67" cy="67" r="1"></circle>
                                <circle id="Oval" transform="translate(115.000000, 1.000000) rotate(-270.000000) translate(-115.000000, -1.000000) " cx="115" cy="1" r="1"></circle>
                                <circle id="Oval-Copy-12" transform="translate(115.000000, 73.000000) rotate(-270.000000) translate(-115.000000, -73.000000) " cx="115" cy="73" r="1"></circle>
                                <circle id="Oval-Copy-6" transform="translate(115.000000, 37.000000) rotate(-270.000000) translate(-115.000000, -37.000000) " cx="115" cy="37" r="1"></circle>
                                <circle id="Oval-Copy-3" transform="translate(115.000000, 19.000000) rotate(-270.000000) translate(-115.000000, -19.000000) " cx="115" cy="19" r="1"></circle>
                                <circle id="Oval-Copy-7" transform="translate(115.000000, 55.000000) rotate(-270.000000) translate(-115.000000, -55.000000) " cx="115" cy="55" r="1"></circle>
                                <circle id="Oval-Copy" transform="translate(115.000000, 7.000000) rotate(-270.000000) translate(-115.000000, -7.000000) " cx="115" cy="7" r="1"></circle>
                                <circle id="Oval-Copy-8" transform="translate(115.000000, 43.000000) rotate(-270.000000) translate(-115.000000, -43.000000) " cx="115" cy="43" r="1"></circle>
                                <circle id="Oval-Copy-4" transform="translate(115.000000, 25.000000) rotate(-270.000000) translate(-115.000000, -25.000000) " cx="115" cy="25" r="1"></circle>
                                <circle id="Oval-Copy-9" transform="translate(115.000000, 61.000000) rotate(-270.000000) translate(-115.000000, -61.000000) " cx="115" cy="61" r="1"></circle>
                                <circle id="Oval-Copy-2" transform="translate(115.000000, 13.000000) rotate(-270.000000) translate(-115.000000, -13.000000) " cx="115" cy="13" r="1"></circle>
                                <circle id="Oval-Copy-10" transform="translate(115.000000, 49.000000) rotate(-270.000000) translate(-115.000000, -49.000000) " cx="115" cy="49" r="1"></circle>
                                <circle id="Oval-Copy-5" transform="translate(115.000000, 31.000000) rotate(-270.000000) translate(-115.000000, -31.000000) " cx="115" cy="31" r="1"></circle>
                                <circle id="Oval-Copy-11" transform="translate(115.000000, 67.000000) rotate(-270.000000) translate(-115.000000, -67.000000) " cx="115" cy="67" r="1"></circle>
                                <circle id="Oval" transform="translate(79.000000, 1.000000) rotate(-270.000000) translate(-79.000000, -1.000000) " cx="79" cy="1" r="1"></circle>
                                <circle id="Oval-Copy-12" transform="translate(79.000000, 73.000000) rotate(-270.000000) translate(-79.000000, -73.000000) " cx="79" cy="73" r="1"></circle>
                                <circle id="Oval-Copy-6" transform="translate(79.000000, 37.000000) rotate(-270.000000) translate(-79.000000, -37.000000) " cx="79" cy="37" r="1"></circle>
                                <circle id="Oval-Copy-3" transform="translate(79.000000, 19.000000) rotate(-270.000000) translate(-79.000000, -19.000000) " cx="79" cy="19" r="1"></circle>
                                <circle id="Oval-Copy-7" transform="translate(79.000000, 55.000000) rotate(-270.000000) translate(-79.000000, -55.000000) " cx="79" cy="55" r="1"></circle>
                                <circle id="Oval-Copy" transform="translate(79.000000, 7.000000) rotate(-270.000000) translate(-79.000000, -7.000000) " cx="79" cy="7" r="1"></circle>
                                <circle id="Oval-Copy-8" transform="translate(79.000000, 43.000000) rotate(-270.000000) translate(-79.000000, -43.000000) " cx="79" cy="43" r="1"></circle>
                                <circle id="Oval-Copy-4" transform="translate(79.000000, 25.000000) rotate(-270.000000) translate(-79.000000, -25.000000) " cx="79" cy="25" r="1"></circle>
                                <circle id="Oval-Copy-9" transform="translate(79.000000, 61.000000) rotate(-270.000000) translate(-79.000000, -61.000000) " cx="79" cy="61" r="1"></circle>
                                <circle id="Oval-Copy-2" transform="translate(79.000000, 13.000000) rotate(-270.000000) translate(-79.000000, -13.000000) " cx="79" cy="13" r="1"></circle>
                                <circle id="Oval-Copy-10" transform="translate(79.000000, 49.000000) rotate(-270.000000) translate(-79.000000, -49.000000) " cx="79" cy="49" r="1"></circle>
                                <circle id="Oval-Copy-5" transform="translate(79.000000, 31.000000) rotate(-270.000000) translate(-79.000000, -31.000000) " cx="79" cy="31" r="1"></circle>
                                <circle id="Oval-Copy-11" transform="translate(79.000000, 67.000000) rotate(-270.000000) translate(-79.000000, -67.000000) " cx="79" cy="67" r="1"></circle>
                                <circle id="Oval" transform="translate(97.000000, 1.000000) rotate(-270.000000) translate(-97.000000, -1.000000) " cx="97" cy="1" r="1"></circle>
                                <circle id="Oval-Copy-12" transform="translate(97.000000, 73.000000) rotate(-270.000000) translate(-97.000000, -73.000000) " cx="97" cy="73" r="1"></circle>
                                <circle id="Oval-Copy-6" transform="translate(97.000000, 37.000000) rotate(-270.000000) translate(-97.000000, -37.000000) " cx="97" cy="37" r="1"></circle>
                                <circle id="Oval-Copy-3" transform="translate(97.000000, 19.000000) rotate(-270.000000) translate(-97.000000, -19.000000) " cx="97" cy="19" r="1"></circle>
                                <circle id="Oval-Copy-7" transform="translate(97.000000, 55.000000) rotate(-270.000000) translate(-97.000000, -55.000000) " cx="97" cy="55" r="1"></circle>
                                <circle id="Oval-Copy" transform="translate(97.000000, 7.000000) rotate(-270.000000) translate(-97.000000, -7.000000) " cx="97" cy="7" r="1"></circle>
                                <circle id="Oval-Copy-8" transform="translate(97.000000, 43.000000) rotate(-270.000000) translate(-97.000000, -43.000000) " cx="97" cy="43" r="1"></circle>
                                <circle id="Oval-Copy-4" transform="translate(97.000000, 25.000000) rotate(-270.000000) translate(-97.000000, -25.000000) " cx="97" cy="25" r="1"></circle>
                                <circle id="Oval-Copy-9" transform="translate(97.000000, 61.000000) rotate(-270.000000) translate(-97.000000, -61.000000) " cx="97" cy="61" r="1"></circle>
                                <circle id="Oval-Copy-2" transform="translate(97.000000, 13.000000) rotate(-270.000000) translate(-97.000000, -13.000000) " cx="97" cy="13" r="1"></circle>
                                <circle id="Oval-Copy-10" transform="translate(97.000000, 49.000000) rotate(-270.000000) translate(-97.000000, -49.000000) " cx="97" cy="49" r="1"></circle>
                                <circle id="Oval-Copy-5" transform="translate(97.000000, 31.000000) rotate(-270.000000) translate(-97.000000, -31.000000) " cx="97" cy="31" r="1"></circle>
                                <circle id="Oval-Copy-11" transform="translate(97.000000, 67.000000) rotate(-270.000000) translate(-97.000000, -67.000000) " cx="97" cy="67" r="1"></circle>
                                <circle id="Oval-Copy-23" transform="translate(31.000000, 61.000000) rotate(-270.000000) translate(-31.000000, -61.000000) " cx="31" cy="61" r="1"></circle>
                                <circle id="Oval-Copy-24" transform="translate(31.000000, 67.000000) rotate(-270.000000) translate(-31.000000, -67.000000) " cx="31" cy="67" r="1"></circle>
                                <circle id="Oval-Copy-25" transform="translate(31.000000, 73.000000) rotate(-270.000000) translate(-31.000000, -73.000000) " cx="31" cy="73" r="1"></circle>
                            </g>
                            <g id="Group-19" transform="translate(1.000000, 1.000000)" stroke="#FD5750">
                                <rect id="Rectangle-13" x="12" y="30" width="12" height="12"></rect>
                                <rect id="Rectangle-13-Copy" x="0" y="12" width="12" height="12"></rect>
                                <rect id="Rectangle-13-Copy-2" x="54" y="0" width="12" height="12"></rect>
                                <rect id="Rectangle-13-Copy-3" x="102" y="12" width="12" height="12"></rect>
                                <rect id="Rectangle-13-Copy-4" x="108" y="30" width="12" height="12"></rect>
                                <rect id="Rectangle-13-Copy-5" x="96" y="48" width="12" height="12"></rect>
                                <rect id="Rectangle-13-Copy-6" x="60" y="54" width="12" height="12"></rect>
                                <rect id="Rectangle-13-Copy-7" x="36" y="60" width="12" height="12"></rect>
                                <polyline id="Path-12-Copy" transform="translate(63.000000, 21.000000) rotate(-270.000000) translate(-63.000000, -21.000000) " points="48 24 72 24 78 18"></polyline>
                                <polyline id="Path-12-Copy" transform="translate(93.000000, 21.000000) rotate(-270.000000) translate(-93.000000, -21.000000) " points="96 36 90 30 90 6"></polyline>
                                <polyline id="Path-12-Copy-3" transform="translate(90.000000, 51.000000) rotate(-270.000000) translate(-90.000000, -51.000000) " points="87 63 93 57 93 39"></polyline>
                                <polyline id="Path-12-Copy-2" transform="translate(45.000000, 54.000000) rotate(-180.000000) translate(-45.000000, -54.000000) " points="42 66 48 60 48 42"></polyline>
                                <polyline id="Path-12-Copy-4" transform="translate(63.000000, 51.000000) rotate(-180.000000) translate(-63.000000, -51.000000) " points="66 60 60 54 60 42"></polyline>
                                <polyline id="Path-13" points="54 30 48 36 18 36"></polyline>
                                <polyline id="Path-13-Copy" points="114.5 36 78 36 72 42"></polyline>
                                <polyline id="Path-12" points="6 18 42 18 48 24"></polyline>
                            </g>
                        </g>
                    </g>
                </g>
            </g>
        </g>
    </g>
</svg>