<?xml version="1.0" encoding="UTF-8"?>
<svg width="98px" height="38px" viewBox="0 0 98 38" version="1.1" xmlns="http://www.w3.org/2000/svg" xmlns:xlink="http://www.w3.org/1999/xlink">
    <!-- Generator: Sketch 50.2 (55047) - http://www.bohemiancoding.com/sketch -->
    <title>active marker</title>
    <desc>Created with Sketch.</desc>
    <defs></defs>
    <g id="Sandbox" stroke="none" stroke-width="1" fill="none" fill-rule="evenodd" opacity="0.300000012">
        <g id="learn_overview-(#272727)" transform="translate(-196.000000, -164.000000)" fill="#FFFFFF">
            <g id="Subnav" transform="translate(192.000000, 160.000000)">
                <g id="active-marker" transform="translate(4.000000, 4.000000)">
                    <circle id="Oval" cx="1" cy="1" r="1"></circle>
                    <circle id="Oval-Copy-12" cx="73" cy="1" r="1"></circle>
                    <circle id="Oval-Copy-6" cx="37" cy="1" r="1"></circle>
                    <circle id="Oval-Copy-3" cx="19" cy="1" r="1"></circle>
                    <circle id="Oval-Copy-14" cx="91" cy="1" r="1"></circle>
                    <circle id="Oval-Copy-7" cx="55" cy="1" r="1"></circle>
                    <circle id="Oval-Copy" cx="7" cy="1" r="1"></circle>
                    <circle id="Oval-Copy-16" cx="79" cy="1" r="1"></circle>
                    <circle id="Oval-Copy-8" cx="43" cy="1" r="1"></circle>
                    <circle id="Oval-Copy-4" cx="25" cy="1" r="1"></circle>
                    <circle id="Oval-Copy-18" cx="97" cy="1" r="1"></circle>
                    <circle id="Oval-Copy-9" cx="61" cy="1" r="1"></circle>
                    <circle id="Oval-Copy-2" cx="13" cy="1" r="1"></circle>
                    <circle id="Oval-Copy-20" cx="85" cy="1" r="1"></circle>
                    <circle id="Oval-Copy-10" cx="49" cy="1" r="1"></circle>
                    <circle id="Oval-Copy-5" cx="31" cy="1" r="1"></circle>
                    <circle id="Oval-Copy-11" cx="67" cy="1" r="1"></circle>
                    <circle id="Oval" cx="1" cy="37" r="1"></circle>
                    <circle id="Oval-Copy-12" cx="73" cy="37" r="1"></circle>
                    <circle id="Oval-Copy-6" cx="37" cy="37" r="1"></circle>
                    <circle id="Oval-Copy-3" cx="19" cy="37" r="1"></circle>
                    <circle id="Oval-Copy-14" cx="91" cy="37" r="1"></circle>
                    <circle id="Oval-Copy-7" cx="55" cy="37" r="1"></circle>
                    <circle id="Oval-Copy" cx="7" cy="37" r="1"></circle>
                    <circle id="Oval-Copy-16" cx="79" cy="37" r="1"></circle>
                    <circle id="Oval-Copy-8" cx="43" cy="37" r="1"></circle>
                    <circle id="Oval-Copy-4" cx="25" cy="37" r="1"></circle>
                    <circle id="Oval-Copy-18" cx="97" cy="37" r="1"></circle>
                    <circle id="Oval-Copy-9" cx="61" cy="37" r="1"></circle>
                    <circle id="Oval-Copy-2" cx="13" cy="37" r="1"></circle>
                    <circle id="Oval-Copy-20" cx="85" cy="37" r="1"></circle>
                    <circle id="Oval-Copy-10" cx="49" cy="37" r="1"></circle>
                    <circle id="Oval-Copy-5" cx="31" cy="37" r="1"></circle>
                    <circle id="Oval-Copy-11" cx="67" cy="37" r="1"></circle>
                    <circle id="Oval" cx="1" cy="19" r="1"></circle>
                    <circle id="Oval-Copy-12" cx="73" cy="19" r="1"></circle>
                    <circle id="Oval-Copy-6" cx="37" cy="19" r="1"></circle>
                    <circle id="Oval-Copy-3" cx="19" cy="19" r="1"></circle>
                    <circle id="Oval-Copy-14" cx="91" cy="19" r="1"></circle>
                    <circle id="Oval-Copy-7" cx="55" cy="19" r="1"></circle>
                    <circle id="Oval-Copy" cx="7" cy="19" r="1"></circle>
                    <circle id="Oval-Copy-16" cx="79" cy="19" r="1"></circle>
                    <circle id="Oval-Copy-8" cx="43" cy="19" r="1"></circle>
                    <circle id="Oval-Copy-4" cx="25" cy="19" r="1"></circle>
                    <circle id="Oval-Copy-18" cx="97" cy="19" r="1"></circle>
                    <circle id="Oval-Copy-9" cx="61" cy="19" r="1"></circle>
                    <circle id="Oval-Copy-2" cx="13" cy="19" r="1"></circle>
                    <circle id="Oval-Copy-20" cx="85" cy="19" r="1"></circle>
                    <circle id="Oval-Copy-10" cx="49" cy="19" r="1"></circle>
                    <circle id="Oval-Copy-5" cx="31" cy="19" r="1"></circle>
                    <circle id="Oval-Copy-11" cx="67" cy="19" r="1"></circle>
                    <circle id="Oval" cx="1" cy="7" r="1"></circle>
                    <circle id="Oval-Copy-12" cx="73" cy="7" r="1"></circle>
                    <circle id="Oval-Copy-6" cx="37" cy="7" r="1"></circle>
                    <circle id="Oval-Copy-3" cx="19" cy="7" r="1"></circle>
                    <circle id="Oval-Copy-14" cx="91" cy="7" r="1"></circle>
                    <circle id="Oval-Copy-7" cx="55" cy="7" r="1"></circle>
                    <circle id="Oval-Copy" cx="7" cy="7" r="1"></circle>
                    <circle id="Oval-Copy-16" cx="79" cy="7" r="1"></circle>
                    <circle id="Oval-Copy-8" cx="43" cy="7" r="1"></circle>
                    <circle id="Oval-Copy-4" cx="25" cy="7" r="1"></circle>
                    <circle id="Oval-Copy-18" cx="97" cy="7" r="1"></circle>
                    <circle id="Oval-Copy-9" cx="61" cy="7" r="1"></circle>
                    <circle id="Oval-Copy-2" cx="13" cy="7" r="1"></circle>
                    <circle id="Oval-Copy-20" cx="85" cy="7" r="1"></circle>
                    <circle id="Oval-Copy-10" cx="49" cy="7" r="1"></circle>
                    <circle id="Oval-Copy-5" cx="31" cy="7" r="1"></circle>
                    <circle id="Oval-Copy-11" cx="67" cy="7" r="1"></circle>
                    <circle id="Oval" cx="1" cy="25" r="1"></circle>
                    <circle id="Oval-Copy-12" cx="73" cy="25" r="1"></circle>
                    <circle id="Oval-Copy-6" cx="37" cy="25" r="1"></circle>
                    <circle id="Oval-Copy-3" cx="19" cy="25" r="1"></circle>
                    <circle id="Oval-Copy-14" cx="91" cy="25" r="1"></circle>
                    <circle id="Oval-Copy-7" cx="55" cy="25" r="1"></circle>
                    <circle id="Oval-Copy" cx="7" cy="25" r="1"></circle>
                    <circle id="Oval-Copy-16" cx="79" cy="25" r="1"></circle>
                    <circle id="Oval-Copy-8" cx="43" cy="25" r="1"></circle>
                    <circle id="Oval-Copy-4" cx="25" cy="25" r="1"></circle>
                    <circle id="Oval-Copy-18" cx="97" cy="25" r="1"></circle>
                    <circle id="Oval-Copy-9" cx="61" cy="25" r="1"></circle>
                    <circle id="Oval-Copy-2" cx="13" cy="25" r="1"></circle>
                    <circle id="Oval-Copy-20" cx="85" cy="25" r="1"></circle>
                    <circle id="Oval-Copy-10" cx="49" cy="25" r="1"></circle>
                    <circle id="Oval-Copy-5" cx="31" cy="25" r="1"></circle>
                    <circle id="Oval-Copy-11" cx="67" cy="25" r="1"></circle>
                    <circle id="Oval" cx="1" cy="13" r="1"></circle>
                    <circle id="Oval-Copy-12" cx="73" cy="13" r="1"></circle>
                    <circle id="Oval-Copy-6" cx="37" cy="13" r="1"></circle>
                    <circle id="Oval-Copy-3" cx="19" cy="13" r="1"></circle>
                    <circle id="Oval-Copy-14" cx="91" cy="13" r="1"></circle>
                    <circle id="Oval-Copy-7" cx="55" cy="13" r="1"></circle>
                    <circle id="Oval-Copy" cx="7" cy="13" r="1"></circle>
                    <circle id="Oval-Copy-16" cx="79" cy="13" r="1"></circle>
                    <circle id="Oval-Copy-8" cx="43" cy="13" r="1"></circle>
                    <circle id="Oval-Copy-4" cx="25" cy="13" r="1"></circle>
                    <circle id="Oval-Copy-18" cx="97" cy="13" r="1"></circle>
                    <circle id="Oval-Copy-9" cx="61" cy="13" r="1"></circle>
                    <circle id="Oval-Copy-2" cx="13" cy="13" r="1"></circle>
                    <circle id="Oval-Copy-20" cx="85" cy="13" r="1"></circle>
                    <circle id="Oval-Copy-10" cx="49" cy="13" r="1"></circle>
                    <circle id="Oval-Copy-5" cx="31" cy="13" r="1"></circle>
                    <circle id="Oval-Copy-11" cx="67" cy="13" r="1"></circle>
                    <circle id="Oval" cx="1" cy="31" r="1"></circle>
                    <circle id="Oval-Copy-12" cx="73" cy="31" r="1"></circle>
                    <circle id="Oval-Copy-6" cx="37" cy="31" r="1"></circle>
                    <circle id="Oval-Copy-3" cx="19" cy="31" r="1"></circle>
                    <circle id="Oval-Copy-14" cx="91" cy="31" r="1"></circle>
                    <circle id="Oval-Copy-7" cx="55" cy="31" r="1"></circle>
                    <circle id="Oval-Copy" cx="7" cy="31" r="1"></circle>
                    <circle id="Oval-Copy-16" cx="79" cy="31" r="1"></circle>
                    <circle id="Oval-Copy-8" cx="43" cy="31" r="1"></circle>
                    <circle id="Oval-Copy-4" cx="25" cy="31" r="1"></circle>
                    <circle id="Oval-Copy-18" cx="97" cy="31" r="1"></circle>
                    <circle id="Oval-Copy-9" cx="61" cy="31" r="1"></circle>
                    <circle id="Oval-Copy-2" cx="13" cy="31" r="1"></circle>
                    <circle id="Oval-Copy-20" cx="85" cy="31" r="1"></circle>
                    <circle id="Oval-Copy-10" cx="49" cy="31" r="1"></circle>
                    <circle id="Oval-Copy-5" cx="31" cy="31" r="1"></circle>
                    <circle id="Oval-Copy-11" cx="67" cy="31" r="1"></circle>
                </g>
            </g>
        </g>
    </g>
</svg>