<?xml version="1.0" encoding="UTF-8"?>
<svg width="128px" height="74px" viewBox="0 0 128 74" version="1.1" xmlns="http://www.w3.org/2000/svg" xmlns:xlink="http://www.w3.org/1999/xlink">
    <!-- Generator: Sketch 50.2 (55047) - http://www.bohemiancoding.com/sketch -->
    <title>Icon</title>
    <desc>Created with Sketch.</desc>
    <defs></defs>
    <g id="Page-Designs" stroke="none" stroke-width="1" fill="none" fill-rule="evenodd">
        <g id="learn_overview" transform="translate(-192.000000, -3021.000000)">
            <g id="Serverless-Application" transform="translate(-230.000000, 1610.000000)">
                <g id="Benefits" transform="translate(373.000000, 1229.000000)">
                    <g id="Zero-Admin" transform="translate(6.000000, 182.000000)">
                        <g id="Icon" transform="translate(43.000000, 0.000000)">
                            <path d="M60,31 C60,30.4477153 60.4477153,30 61,30 C61.5522847,30 62,30.4477153 62,31 C62,31.5522847 61.5522847,32 61,32 C60.4477153,32 60,31.5522847 60,31 Z M60,13 C60,12.4477153 60.4477153,12 61,12 C61.5522847,12 62,12.4477153 62,13 C62,13.5522847 61.5522847,14 61,14 C60.4477153,14 60,13.5522847 60,13 Z M60,49 C60,48.4477153 60.4477153,48 61,48 C61.5522847,48 62,48.4477153 62,49 C62,49.5522847 61.5522847,50 61,50 C60.4477153,50 60,49.5522847 60,49 Z M60,1 C60,0.44771525 60.4477153,-1.01453063e-16 61,0 C61.5522847,1.01453063e-16 62,0.44771525 62,1 C62,1.55228475 61.5522847,2 61,2 C60.4477153,2 60,1.55228475 60,1 Z M60,37 C60,36.4477153 60.4477153,36 61,36 C61.5522847,36 62,36.4477153 62,37 C62,37.5522847 61.5522847,38 61,38 C60.4477153,38 60,37.5522847 60,37 Z M60,19 C60,18.4477153 60.4477153,18 61,18 C61.5522847,18 62,18.4477153 62,19 C62,19.5522847 61.5522847,20 61,20 C60.4477153,20 60,19.5522847 60,19 Z M60,55 C60,54.4477153 60.4477153,54 61,54 C61.5522847,54 62,54.4477153 62,55 C62,55.5522847 61.5522847,56 61,56 C60.4477153,56 60,55.5522847 60,55 Z M60,7 C60,6.44771525 60.4477153,6 61,6 C61.5522847,6 62,6.44771525 62,7 C62,7.55228475 61.5522847,8 61,8 C60.4477153,8 60,7.55228475 60,7 Z M60,43 C60,42.4477153 60.4477153,42 61,42 C61.5522847,42 62,42.4477153 62,43 C62,43.5522847 61.5522847,44 61,44 C60.4477153,44 60,43.5522847 60,43 Z M60,25 C60,24.4477153 60.4477153,24 61,24 C61.5522847,24 62,24.4477153 62,25 C62,25.5522847 61.5522847,26 61,26 C60.4477153,26 60,25.5522847 60,25 Z M60,61 C60,60.4477153 60.4477153,60 61,60 C61.5522847,60 62,60.4477153 62,61 C62,61.5522847 61.5522847,62 61,62 C60.4477153,62 60,61.5522847 60,61 Z M60,67 C60,66.4477153 60.4477153,66 61,66 C61.5522847,66 62,66.4477153 62,67 C62,67.5522847 61.5522847,68 61,68 C60.4477153,68 60,67.5522847 60,67 Z M60,73 C60,72.4477153 60.4477153,72 61,72 C61.5522847,72 62,72.4477153 62,73 C62,73.5522847 61.5522847,74 61,74 C60.4477153,74 60,73.5522847 60,73 Z M24,31 C24,30.4477153 24.4477153,30 25,30 C25.5522847,30 26,30.4477153 26,31 C26,31.5522847 25.5522847,32 25,32 C24.4477153,32 24,31.5522847 24,31 Z M24,13 C24,12.4477153 24.4477153,12 25,12 C25.5522847,12 26,12.4477153 26,13 C26,13.5522847 25.5522847,14 25,14 C24.4477153,14 24,13.5522847 24,13 Z M24,49 C24,48.4477153 24.4477153,48 25,48 C25.5522847,48 26,48.4477153 26,49 C26,49.5522847 25.5522847,50 25,50 C24.4477153,50 24,49.5522847 24,49 Z M24,1 C24,0.44771525 24.4477153,-1.01453063e-16 25,0 C25.5522847,1.01453063e-16 26,0.44771525 26,1 C26,1.55228475 25.5522847,2 25,2 C24.4477153,2 24,1.55228475 24,1 Z M24,37 C24,36.4477153 24.4477153,36 25,36 C25.5522847,36 26,36.4477153 26,37 C26,37.5522847 25.5522847,38 25,38 C24.4477153,38 24,37.5522847 24,37 Z M24,19 C24,18.4477153 24.4477153,18 25,18 C25.5522847,18 26,18.4477153 26,19 C26,19.5522847 25.5522847,20 25,20 C24.4477153,20 24,19.5522847 24,19 Z M24,55 C24,54.4477153 24.4477153,54 25,54 C25.5522847,54 26,54.4477153 26,55 C26,55.5522847 25.5522847,56 25,56 C24.4477153,56 24,55.5522847 24,55 Z M24,7 C24,6.44771525 24.4477153,6 25,6 C25.5522847,6 26,6.44771525 26,7 C26,7.55228475 25.5522847,8 25,8 C24.4477153,8 24,7.55228475 24,7 Z M24,43 C24,42.4477153 24.4477153,42 25,42 C25.5522847,42 26,42.4477153 26,43 C26,43.5522847 25.5522847,44 25,44 C24.4477153,44 24,43.5522847 24,43 Z M24,25 C24,24.4477153 24.4477153,24 25,24 C25.5522847,24 26,24.4477153 26,25 C26,25.5522847 25.5522847,26 25,26 C24.4477153,26 24,25.5522847 24,25 Z M24,61 C24,60.4477153 24.4477153,60 25,60 C25.5522847,60 26,60.4477153 26,61 C26,61.5522847 25.5522847,62 25,62 C24.4477153,62 24,61.5522847 24,61 Z M24,67 C24,66.4477153 24.4477153,66 25,66 C25.5522847,66 26,66.4477153 26,67 C26,67.5522847 25.5522847,68 25,68 C24.4477153,68 24,67.5522847 24,67 Z M24,73 C24,72.4477153 24.4477153,72 25,72 C25.5522847,72 26,72.4477153 26,73 C26,73.5522847 25.5522847,74 25,74 C24.4477153,74 24,73.5522847 24,73 Z M42,31 C42,30.4477153 42.4477153,30 43,30 C43.5522847,30 44,30.4477153 44,31 C44,31.5522847 43.5522847,32 43,32 C42.4477153,32 42,31.5522847 42,31 Z M42,13 C42,12.4477153 42.4477153,12 43,12 C43.5522847,12 44,12.4477153 44,13 C44,13.5522847 43.5522847,14 43,14 C42.4477153,14 42,13.5522847 42,13 Z M42,49 C42,48.4477153 42.4477153,48 43,48 C43.5522847,48 44,48.4477153 44,49 C44,49.5522847 43.5522847,50 43,50 C42.4477153,50 42,49.5522847 42,49 Z M42,1 C42,0.44771525 42.4477153,-1.01453063e-16 43,0 C43.5522847,1.01453063e-16 44,0.44771525 44,1 C44,1.55228475 43.5522847,2 43,2 C42.4477153,2 42,1.55228475 42,1 Z M42,37 C42,36.4477153 42.4477153,36 43,36 C43.5522847,36 44,36.4477153 44,37 C44,37.5522847 43.5522847,38 43,38 C42.4477153,38 42,37.5522847 42,37 Z M42,19 C42,18.4477153 42.4477153,18 43,18 C43.5522847,18 44,18.4477153 44,19 C44,19.5522847 43.5522847,20 43,20 C42.4477153,20 42,19.5522847 42,19 Z M42,55 C42,54.4477153 42.4477153,54 43,54 C43.5522847,54 44,54.4477153 44,55 C44,55.5522847 43.5522847,56 43,56 C42.4477153,56 42,55.5522847 42,55 Z M42,7 C42,6.44771525 42.4477153,6 43,6 C43.5522847,6 44,6.44771525 44,7 C44,7.55228475 43.5522847,8 43,8 C42.4477153,8 42,7.55228475 42,7 Z M42,43 C42,42.4477153 42.4477153,42 43,42 C43.5522847,42 44,42.4477153 44,43 C44,43.5522847 43.5522847,44 43,44 C42.4477153,44 42,43.5522847 42,43 Z M42,25 C42,24.4477153 42.4477153,24 43,24 C43.5522847,24 44,24.4477153 44,25 C44,25.5522847 43.5522847,26 43,26 C42.4477153,26 42,25.5522847 42,25 Z M42,61 C42,60.4477153 42.4477153,60 43,60 C43.5522847,60 44,60.4477153 44,61 C44,61.5522847 43.5522847,62 43,62 C42.4477153,62 42,61.5522847 42,61 Z M42,67 C42,66.4477153 42.4477153,66 43,66 C43.5522847,66 44,66.4477153 44,67 C44,67.5522847 43.5522847,68 43,68 C42.4477153,68 42,67.5522847 42,67 Z M42,73 C42,72.4477153 42.4477153,72 43,72 C43.5522847,72 44,72.4477153 44,73 C44,73.5522847 43.5522847,74 43,74 C42.4477153,74 42,73.5522847 42,73 Z M6,31 C6,30.4477153 6.44771525,30 7,30 C7.55228475,30 8,30.4477153 8,31 C8,31.5522847 7.55228475,32 7,32 C6.44771525,32 6,31.5522847 6,31 Z M6,13 C6,12.4477153 6.44771525,12 7,12 C7.55228475,12 8,12.4477153 8,13 C8,13.5522847 7.55228475,14 7,14 C6.44771525,14 6,13.5522847 6,13 Z M6,49 C6,48.4477153 6.44771525,48 7,48 C7.55228475,48 8,48.4477153 8,49 C8,49.5522847 7.55228475,50 7,50 C6.44771525,50 6,49.5522847 6,49 Z M6,1 C6,0.44771525 6.44771525,-1.01453063e-16 7,0 C7.55228475,1.01453063e-16 8,0.44771525 8,1 C8,1.55228475 7.55228475,2 7,2 C6.44771525,2 6,1.55228475 6,1 Z M6,37 C6,36.4477153 6.44771525,36 7,36 C7.55228475,36 8,36.4477153 8,37 C8,37.5522847 7.55228475,38 7,38 C6.44771525,38 6,37.5522847 6,37 Z M6,19 C6,18.4477153 6.44771525,18 7,18 C7.55228475,18 8,18.4477153 8,19 C8,19.5522847 7.55228475,20 7,20 C6.44771525,20 6,19.5522847 6,19 Z M6,55 C6,54.4477153 6.44771525,54 7,54 C7.55228475,54 8,54.4477153 8,55 C8,55.5522847 7.55228475,56 7,56 C6.44771525,56 6,55.5522847 6,55 Z M6,7 C6,6.44771525 6.44771525,6 7,6 C7.55228475,6 8,6.44771525 8,7 C8,7.55228475 7.55228475,8 7,8 C6.44771525,8 6,7.55228475 6,7 Z M6,43 C6,42.4477153 6.44771525,42 7,42 C7.55228475,42 8,42.4477153 8,43 C8,43.5522847 7.55228475,44 7,44 C6.44771525,44 6,43.5522847 6,43 Z M6,25 C6,24.4477153 6.44771525,24 7,24 C7.55228475,24 8,24.4477153 8,25 C8,25.5522847 7.55228475,26 7,26 C6.44771525,26 6,25.5522847 6,25 Z M6,61 C6,60.4477153 6.44771525,60 7,60 C7.55228475,60 8,60.4477153 8,61 C8,61.5522847 7.55228475,62 7,62 C6.44771525,62 6,61.5522847 6,61 Z M6,67 C6,66.4477153 6.44771525,66 7,66 C7.55228475,66 8,66.4477153 8,67 C8,67.5522847 7.55228475,68 7,68 C6.44771525,68 6,67.5522847 6,67 Z M6,73 C6,72.4477153 6.44771525,72 7,72 C7.55228475,72 8,72.4477153 8,73 C8,73.5522847 7.55228475,74 7,74 C6.44771525,74 6,73.5522847 6,73 Z M54,31 C54,30.4477153 54.4477153,30 55,30 C55.5522847,30 56,30.4477153 56,31 C56,31.5522847 55.5522847,32 55,32 C54.4477153,32 54,31.5522847 54,31 Z M54,13 C54,12.4477153 54.4477153,12 55,12 C55.5522847,12 56,12.4477153 56,13 C56,13.5522847 55.5522847,14 55,14 C54.4477153,14 54,13.5522847 54,13 Z M54,49 C54,48.4477153 54.4477153,48 55,48 C55.5522847,48 56,48.4477153 56,49 C56,49.5522847 55.5522847,50 55,50 C54.4477153,50 54,49.5522847 54,49 Z M54,1 C54,0.44771525 54.4477153,-1.01453063e-16 55,0 C55.5522847,1.01453063e-16 56,0.44771525 56,1 C56,1.55228475 55.5522847,2 55,2 C54.4477153,2 54,1.55228475 54,1 Z M54,37 C54,36.4477153 54.4477153,36 55,36 C55.5522847,36 56,36.4477153 56,37 C56,37.5522847 55.5522847,38 55,38 C54.4477153,38 54,37.5522847 54,37 Z M54,19 C54,18.4477153 54.4477153,18 55,18 C55.5522847,18 56,18.4477153 56,19 C56,19.5522847 55.5522847,20 55,20 C54.4477153,20 54,19.5522847 54,19 Z M54,55 C54,54.4477153 54.4477153,54 55,54 C55.5522847,54 56,54.4477153 56,55 C56,55.5522847 55.5522847,56 55,56 C54.4477153,56 54,55.5522847 54,55 Z M54,7 C54,6.44771525 54.4477153,6 55,6 C55.5522847,6 56,6.44771525 56,7 C56,7.55228475 55.5522847,8 55,8 C54.4477153,8 54,7.55228475 54,7 Z M54,43 C54,42.4477153 54.4477153,42 55,42 C55.5522847,42 56,42.4477153 56,43 C56,43.5522847 55.5522847,44 55,44 C54.4477153,44 54,43.5522847 54,43 Z M54,25 C54,24.4477153 54.4477153,24 55,24 C55.5522847,24 56,24.4477153 56,25 C56,25.5522847 55.5522847,26 55,26 C54.4477153,26 54,25.5522847 54,25 Z M54,61 C54,60.4477153 54.4477153,60 55,60 C55.5522847,60 56,60.4477153 56,61 C56,61.5522847 55.5522847,62 55,62 C54.4477153,62 54,61.5522847 54,61 Z M54,67 C54,66.4477153 54.4477153,66 55,66 C55.5522847,66 56,66.4477153 56,67 C56,67.5522847 55.5522847,68 55,68 C54.4477153,68 54,67.5522847 54,67 Z M54,73 C54,72.4477153 54.4477153,72 55,72 C55.5522847,72 56,72.4477153 56,73 C56,73.5522847 55.5522847,74 55,74 C54.4477153,74 54,73.5522847 54,73 Z M18,31 C18,30.4477153 18.4477153,30 19,30 C19.5522847,30 20,30.4477153 20,31 C20,31.5522847 19.5522847,32 19,32 C18.4477153,32 18,31.5522847 18,31 Z M18,13 C18,12.4477153 18.4477153,12 19,12 C19.5522847,12 20,12.4477153 20,13 C20,13.5522847 19.5522847,14 19,14 C18.4477153,14 18,13.5522847 18,13 Z M18,49 C18,48.4477153 18.4477153,48 19,48 C19.5522847,48 20,48.4477153 20,49 C20,49.5522847 19.5522847,50 19,50 C18.4477153,50 18,49.5522847 18,49 Z M18,1 C18,0.44771525 18.4477153,-1.01453063e-16 19,0 C19.5522847,1.01453063e-16 20,0.44771525 20,1 C20,1.55228475 19.5522847,2 19,2 C18.4477153,2 18,1.55228475 18,1 Z M18,37 C18,36.4477153 18.4477153,36 19,36 C19.5522847,36 20,36.4477153 20,37 C20,37.5522847 19.5522847,38 19,38 C18.4477153,38 18,37.5522847 18,37 Z M18,19 C18,18.4477153 18.4477153,18 19,18 C19.5522847,18 20,18.4477153 20,19 C20,19.5522847 19.5522847,20 19,20 C18.4477153,20 18,19.5522847 18,19 Z M18,55 C18,54.4477153 18.4477153,54 19,54 C19.5522847,54 20,54.4477153 20,55 C20,55.5522847 19.5522847,56 19,56 C18.4477153,56 18,55.5522847 18,55 Z M18,7 C18,6.44771525 18.4477153,6 19,6 C19.5522847,6 20,6.44771525 20,7 C20,7.55228475 19.5522847,8 19,8 C18.4477153,8 18,7.55228475 18,7 Z M18,43 C18,42.4477153 18.4477153,42 19,42 C19.5522847,42 20,42.4477153 20,43 C20,43.5522847 19.5522847,44 19,44 C18.4477153,44 18,43.5522847 18,43 Z M18,25 C18,24.4477153 18.4477153,24 19,24 C19.5522847,24 20,24.4477153 20,25 C20,25.5522847 19.5522847,26 19,26 C18.4477153,26 18,25.5522847 18,25 Z M18,61 C18,60.4477153 18.4477153,60 19,60 C19.5522847,60 20,60.4477153 20,61 C20,61.5522847 19.5522847,62 19,62 C18.4477153,62 18,61.5522847 18,61 Z M18,67 C18,66.4477153 18.4477153,66 19,66 C19.5522847,66 20,66.4477153 20,67 C20,67.5522847 19.5522847,68 19,68 C18.4477153,68 18,67.5522847 18,67 Z M18,73 C18,72.4477153 18.4477153,72 19,72 C19.5522847,72 20,72.4477153 20,73 C20,73.5522847 19.5522847,74 19,74 C18.4477153,74 18,73.5522847 18,73 Z M36,31 C36,30.4477153 36.4477153,30 37,30 C37.5522847,30 38,30.4477153 38,31 C38,31.5522847 37.5522847,32 37,32 C36.4477153,32 36,31.5522847 36,31 Z M36,13 C36,12.4477153 36.4477153,12 37,12 C37.5522847,12 38,12.4477153 38,13 C38,13.5522847 37.5522847,14 37,14 C36.4477153,14 36,13.5522847 36,13 Z M36,49 C36,48.4477153 36.4477153,48 37,48 C37.5522847,48 38,48.4477153 38,49 C38,49.5522847 37.5522847,50 37,50 C36.4477153,50 36,49.5522847 36,49 Z M36,1 C36,0.44771525 36.4477153,-1.01453063e-16 37,0 C37.5522847,1.01453063e-16 38,0.44771525 38,1 C38,1.55228475 37.5522847,2 37,2 C36.4477153,2 36,1.55228475 36,1 Z M36,37 C36,36.4477153 36.4477153,36 37,36 C37.5522847,36 38,36.4477153 38,37 C38,37.5522847 37.5522847,38 37,38 C36.4477153,38 36,37.5522847 36,37 Z M36,19 C36,18.4477153 36.4477153,18 37,18 C37.5522847,18 38,18.4477153 38,19 C38,19.5522847 37.5522847,20 37,20 C36.4477153,20 36,19.5522847 36,19 Z M36,55 C36,54.4477153 36.4477153,54 37,54 C37.5522847,54 38,54.4477153 38,55 C38,55.5522847 37.5522847,56 37,56 C36.4477153,56 36,55.5522847 36,55 Z M36,7 C36,6.44771525 36.4477153,6 37,6 C37.5522847,6 38,6.44771525 38,7 C38,7.55228475 37.5522847,8 37,8 C36.4477153,8 36,7.55228475 36,7 Z M36,43 C36,42.4477153 36.4477153,42 37,42 C37.5522847,42 38,42.4477153 38,43 C38,43.5522847 37.5522847,44 37,44 C36.4477153,44 36,43.5522847 36,43 Z M36,25 C36,24.4477153 36.4477153,24 37,24 C37.5522847,24 38,24.4477153 38,25 C38,25.5522847 37.5522847,26 37,26 C36.4477153,26 36,25.5522847 36,25 Z M36,61 C36,60.4477153 36.4477153,60 37,60 C37.5522847,60 38,60.4477153 38,61 C38,61.5522847 37.5522847,62 37,62 C36.4477153,62 36,61.5522847 36,61 Z M36,67 C36,66.4477153 36.4477153,66 37,66 C37.5522847,66 38,66.4477153 38,67 C38,67.5522847 37.5522847,68 37,68 C36.4477153,68 36,67.5522847 36,67 Z M36,73 C36,72.4477153 36.4477153,72 37,72 C37.5522847,72 38,72.4477153 38,73 C38,73.5522847 37.5522847,74 37,74 C36.4477153,74 36,73.5522847 36,73 Z M0,31 C0,30.4477153 0.44771525,30 1,30 C1.55228475,30 2,30.4477153 2,31 C2,31.5522847 1.55228475,32 1,32 C0.44771525,32 -4.4408921e-16,31.5522847 0,31 Z M0,13 C0,12.4477153 0.44771525,12 1,12 C1.55228475,12 2,12.4477153 2,13 C2,13.5522847 1.55228475,14 1,14 C0.44771525,14 -4.4408921e-16,13.5522847 0,13 Z M0,49 C0,48.4477153 0.44771525,48 1,48 C1.55228475,48 2,48.4477153 2,49 C2,49.5522847 1.55228475,50 1,50 C0.44771525,50 -4.4408921e-16,49.5522847 0,49 Z M0,1 C0,0.44771525 0.44771525,-1.01453063e-16 1,0 C1.55228475,1.01453063e-16 2,0.44771525 2,1 C2,1.55228475 1.55228475,2 1,2 C0.44771525,2 -4.4408921e-16,1.55228475 0,1 Z M0,37 C0,36.4477153 0.44771525,36 1,36 C1.55228475,36 2,36.4477153 2,37 C2,37.5522847 1.55228475,38 1,38 C0.44771525,38 -4.4408921e-16,37.5522847 0,37 Z M0,19 C0,18.4477153 0.44771525,18 1,18 C1.55228475,18 2,18.4477153 2,19 C2,19.5522847 1.55228475,20 1,20 C0.44771525,20 -4.4408921e-16,19.5522847 0,19 Z M0,55 C0,54.4477153 0.44771525,54 1,54 C1.55228475,54 2,54.4477153 2,55 C2,55.5522847 1.55228475,56 1,56 C0.44771525,56 -4.4408921e-16,55.5522847 0,55 Z M0,7 C0,6.44771525 0.44771525,6 1,6 C1.55228475,6 2,6.44771525 2,7 C2,7.55228475 1.55228475,8 1,8 C0.44771525,8 -4.4408921e-16,7.55228475 0,7 Z M0,43 C0,42.4477153 0.44771525,42 1,42 C1.55228475,42 2,42.4477153 2,43 C2,43.5522847 1.55228475,44 1,44 C0.44771525,44 -4.4408921e-16,43.5522847 0,43 Z M0,25 C0,24.4477153 0.44771525,24 1,24 C1.55228475,24 2,24.4477153 2,25 C2,25.5522847 1.55228475,26 1,26 C0.44771525,26 -4.4408921e-16,25.5522847 0,25 Z M0,61 C0,60.4477153 0.44771525,60 1,60 C1.55228475,60 2,60.4477153 2,61 C2,61.5522847 1.55228475,62 1,62 C0.44771525,62 -4.4408921e-16,61.5522847 0,61 Z M0,67 C0,66.4477153 0.44771525,66 1,66 C1.55228475,66 2,66.4477153 2,67 C2,67.5522847 1.55228475,68 1,68 C0.44771525,68 -4.4408921e-16,67.5522847 0,67 Z M0,73 C0,72.4477153 0.44771525,72 1,72 C1.55228475,72 2,72.4477153 2,73 C2,73.5522847 1.55228475,74 1,74 C0.44771525,74 -4.4408921e-16,73.5522847 0,73 Z M48,31 C48,30.4477153 48.4477153,30 49,30 C49.5522847,30 50,30.4477153 50,31 C50,31.5522847 49.5522847,32 49,32 C48.4477153,32 48,31.5522847 48,31 Z M48,13 C48,12.4477153 48.4477153,12 49,12 C49.5522847,12 50,12.4477153 50,13 C50,13.5522847 49.5522847,14 49,14 C48.4477153,14 48,13.5522847 48,13 Z M48,49 C48,48.4477153 48.4477153,48 49,48 C49.5522847,48 50,48.4477153 50,49 C50,49.5522847 49.5522847,50 49,50 C48.4477153,50 48,49.5522847 48,49 Z M48,1 C48,0.44771525 48.4477153,-1.01453063e-16 49,0 C49.5522847,1.01453063e-16 50,0.44771525 50,1 C50,1.55228475 49.5522847,2 49,2 C48.4477153,2 48,1.55228475 48,1 Z M48,37 C48,36.4477153 48.4477153,36 49,36 C49.5522847,36 50,36.4477153 50,37 C50,37.5522847 49.5522847,38 49,38 C48.4477153,38 48,37.5522847 48,37 Z M48,19 C48,18.4477153 48.4477153,18 49,18 C49.5522847,18 50,18.4477153 50,19 C50,19.5522847 49.5522847,20 49,20 C48.4477153,20 48,19.5522847 48,19 Z M48,55 C48,54.4477153 48.4477153,54 49,54 C49.5522847,54 50,54.4477153 50,55 C50,55.5522847 49.5522847,56 49,56 C48.4477153,56 48,55.5522847 48,55 Z M48,7 C48,6.44771525 48.4477153,6 49,6 C49.5522847,6 50,6.44771525 50,7 C50,7.55228475 49.5522847,8 49,8 C48.4477153,8 48,7.55228475 48,7 Z M48,43 C48,42.4477153 48.4477153,42 49,42 C49.5522847,42 50,42.4477153 50,43 C50,43.5522847 49.5522847,44 49,44 C48.4477153,44 48,43.5522847 48,43 Z M48,25 C48,24.4477153 48.4477153,24 49,24 C49.5522847,24 50,24.4477153 50,25 C50,25.5522847 49.5522847,26 49,26 C48.4477153,26 48,25.5522847 48,25 Z M48,61 C48,60.4477153 48.4477153,60 49,60 C49.5522847,60 50,60.4477153 50,61 C50,61.5522847 49.5522847,62 49,62 C48.4477153,62 48,61.5522847 48,61 Z M48,67 C48,66.4477153 48.4477153,66 49,66 C49.5522847,66 50,66.4477153 50,67 C50,67.5522847 49.5522847,68 49,68 C48.4477153,68 48,67.5522847 48,67 Z M48,73 C48,72.4477153 48.4477153,72 49,72 C49.5522847,72 50,72.4477153 50,73 C50,73.5522847 49.5522847,74 49,74 C48.4477153,74 48,73.5522847 48,73 Z M12,31 C12,30.4477153 12.4477153,30 13,30 C13.5522847,30 14,30.4477153 14,31 C14,31.5522847 13.5522847,32 13,32 C12.4477153,32 12,31.5522847 12,31 Z M12,13 C12,12.4477153 12.4477153,12 13,12 C13.5522847,12 14,12.4477153 14,13 C14,13.5522847 13.5522847,14 13,14 C12.4477153,14 12,13.5522847 12,13 Z M12,49 C12,48.4477153 12.4477153,48 13,48 C13.5522847,48 14,48.4477153 14,49 C14,49.5522847 13.5522847,50 13,50 C12.4477153,50 12,49.5522847 12,49 Z M12,1 C12,0.44771525 12.4477153,-1.01453063e-16 13,0 C13.5522847,1.01453063e-16 14,0.44771525 14,1 C14,1.55228475 13.5522847,2 13,2 C12.4477153,2 12,1.55228475 12,1 Z M12,37 C12,36.4477153 12.4477153,36 13,36 C13.5522847,36 14,36.4477153 14,37 C14,37.5522847 13.5522847,38 13,38 C12.4477153,38 12,37.5522847 12,37 Z M12,19 C12,18.4477153 12.4477153,18 13,18 C13.5522847,18 14,18.4477153 14,19 C14,19.5522847 13.5522847,20 13,20 C12.4477153,20 12,19.5522847 12,19 Z M12,55 C12,54.4477153 12.4477153,54 13,54 C13.5522847,54 14,54.4477153 14,55 C14,55.5522847 13.5522847,56 13,56 C12.4477153,56 12,55.5522847 12,55 Z M12,7 C12,6.44771525 12.4477153,6 13,6 C13.5522847,6 14,6.44771525 14,7 C14,7.55228475 13.5522847,8 13,8 C12.4477153,8 12,7.55228475 12,7 Z M12,43 C12,42.4477153 12.4477153,42 13,42 C13.5522847,42 14,42.4477153 14,43 C14,43.5522847 13.5522847,44 13,44 C12.4477153,44 12,43.5522847 12,43 Z M12,25 C12,24.4477153 12.4477153,24 13,24 C13.5522847,24 14,24.4477153 14,25 C14,25.5522847 13.5522847,26 13,26 C12.4477153,26 12,25.5522847 12,25 Z M12,61 C12,60.4477153 12.4477153,60 13,60 C13.5522847,60 14,60.4477153 14,61 C14,61.5522847 13.5522847,62 13,62 C12.4477153,62 12,61.5522847 12,61 Z M12,67 C12,66.4477153 12.4477153,66 13,66 C13.5522847,66 14,66.4477153 14,67 C14,67.5522847 13.5522847,68 13,68 C12.4477153,68 12,67.5522847 12,67 Z M12,73 C12,72.4477153 12.4477153,72 13,72 C13.5522847,72 14,72.4477153 14,73 C14,73.5522847 13.5522847,74 13,74 C12.4477153,74 12,73.5522847 12,73 Z M30,31 C30,30.4477153 30.4477153,30 31,30 C31.5522847,30 32,30.4477153 32,31 C32,31.5522847 31.5522847,32 31,32 C30.4477153,32 30,31.5522847 30,31 Z M30,13 C30,12.4477153 30.4477153,12 31,12 C31.5522847,12 32,12.4477153 32,13 C32,13.5522847 31.5522847,14 31,14 C30.4477153,14 30,13.5522847 30,13 Z M30,49 C30,48.4477153 30.4477153,48 31,48 C31.5522847,48 32,48.4477153 32,49 C32,49.5522847 31.5522847,50 31,50 C30.4477153,50 30,49.5522847 30,49 Z M30,1 C30,0.44771525 30.4477153,-1.01453063e-16 31,0 C31.5522847,1.01453063e-16 32,0.44771525 32,1 C32,1.55228475 31.5522847,2 31,2 C30.4477153,2 30,1.55228475 30,1 Z M30,37 C30,36.4477153 30.4477153,36 31,36 C31.5522847,36 32,36.4477153 32,37 C32,37.5522847 31.5522847,38 31,38 C30.4477153,38 30,37.5522847 30,37 Z M30,19 C30,18.4477153 30.4477153,18 31,18 C31.5522847,18 32,18.4477153 32,19 C32,19.5522847 31.5522847,20 31,20 C30.4477153,20 30,19.5522847 30,19 Z M30,55 C30,54.4477153 30.4477153,54 31,54 C31.5522847,54 32,54.4477153 32,55 C32,55.5522847 31.5522847,56 31,56 C30.4477153,56 30,55.5522847 30,55 Z M30,7 C30,6.44771525 30.4477153,6 31,6 C31.5522847,6 32,6.44771525 32,7 C32,7.55228475 31.5522847,8 31,8 C30.4477153,8 30,7.55228475 30,7 Z M30,43 C30,42.4477153 30.4477153,42 31,42 C31.5522847,42 32,42.4477153 32,43 C32,43.5522847 31.5522847,44 31,44 C30.4477153,44 30,43.5522847 30,43 Z M30,25 C30,24.4477153 30.4477153,24 31,24 C31.5522847,24 32,24.4477153 32,25 C32,25.5522847 31.5522847,26 31,26 C30.4477153,26 30,25.5522847 30,25 Z M126,1 C126,0.44771525 126.447715,-1.01453063e-16 127,0 C127.552285,1.01453063e-16 128,0.44771525 128,1 C128,1.55228475 127.552285,2 127,2 C126.447715,2 126,1.55228475 126,1 Z M126,73 C126,72.4477153 126.447715,72 127,72 C127.552285,72 128,72.4477153 128,73 C128,73.5522847 127.552285,74 127,74 C126.447715,74 126,73.5522847 126,73 Z M126,37 C126,36.4477153 126.447715,36 127,36 C127.552285,36 128,36.4477153 128,37 C128,37.5522847 127.552285,38 127,38 C126.447715,38 126,37.5522847 126,37 Z M126,19 C126,18.4477153 126.447715,18 127,18 C127.552285,18 128,18.4477153 128,19 C128,19.5522847 127.552285,20 127,20 C126.447715,20 126,19.5522847 126,19 Z M126,55 C126,54.4477153 126.447715,54 127,54 C127.552285,54 128,54.4477153 128,55 C128,55.5522847 127.552285,56 127,56 C126.447715,56 126,55.5522847 126,55 Z M126,7 C126,6.44771525 126.447715,6 127,6 C127.552285,6 128,6.44771525 128,7 C128,7.55228475 127.552285,8 127,8 C126.447715,8 126,7.55228475 126,7 Z M126,43 C126,42.4477153 126.447715,42 127,42 C127.552285,42 128,42.4477153 128,43 C128,43.5522847 127.552285,44 127,44 C126.447715,44 126,43.5522847 126,43 Z M126,25 C126,24.4477153 126.447715,24 127,24 C127.552285,24 128,24.4477153 128,25 C128,25.5522847 127.552285,26 127,26 C126.447715,26 126,25.5522847 126,25 Z M126,61 C126,60.4477153 126.447715,60 127,60 C127.552285,60 128,60.4477153 128,61 C128,61.5522847 127.552285,62 127,62 C126.447715,62 126,61.5522847 126,61 Z M126,13 C126,12.4477153 126.447715,12 127,12 C127.552285,12 128,12.4477153 128,13 C128,13.5522847 127.552285,14 127,14 C126.447715,14 126,13.5522847 126,13 Z M126,49 C126,48.4477153 126.447715,48 127,48 C127.552285,48 128,48.4477153 128,49 C128,49.5522847 127.552285,50 127,50 C126.447715,50 126,49.5522847 126,49 Z M126,31 C126,30.4477153 126.447715,30 127,30 C127.552285,30 128,30.4477153 128,31 C128,31.5522847 127.552285,32 127,32 C126.447715,32 126,31.5522847 126,31 Z M126,67 C126,66.4477153 126.447715,66 127,66 C127.552285,66 128,66.4477153 128,67 C128,67.5522847 127.552285,68 127,68 C126.447715,68 126,67.5522847 126,67 Z M90,1 C90,0.44771525 90.4477153,-1.01453063e-16 91,0 C91.5522847,1.01453063e-16 92,0.44771525 92,1 C92,1.55228475 91.5522847,2 91,2 C90.4477153,2 90,1.55228475 90,1 Z M90,73 C90,72.4477153 90.4477153,72 91,72 C91.5522847,72 92,72.4477153 92,73 C92,73.5522847 91.5522847,74 91,74 C90.4477153,74 90,73.5522847 90,73 Z M90,37 C90,36.4477153 90.4477153,36 91,36 C91.5522847,36 92,36.4477153 92,37 C92,37.5522847 91.5522847,38 91,38 C90.4477153,38 90,37.5522847 90,37 Z M90,19 C90,18.4477153 90.4477153,18 91,18 C91.5522847,18 92,18.4477153 92,19 C92,19.5522847 91.5522847,20 91,20 C90.4477153,20 90,19.5522847 90,19 Z M90,55 C90,54.4477153 90.4477153,54 91,54 C91.5522847,54 92,54.4477153 92,55 C92,55.5522847 91.5522847,56 91,56 C90.4477153,56 90,55.5522847 90,55 Z M90,7 C90,6.44771525 90.4477153,6 91,6 C91.5522847,6 92,6.44771525 92,7 C92,7.55228475 91.5522847,8 91,8 C90.4477153,8 90,7.55228475 90,7 Z M90,43 C90,42.4477153 90.4477153,42 91,42 C91.5522847,42 92,42.4477153 92,43 C92,43.5522847 91.5522847,44 91,44 C90.4477153,44 90,43.5522847 90,43 Z M90,25 C90,24.4477153 90.4477153,24 91,24 C91.5522847,24 92,24.4477153 92,25 C92,25.5522847 91.5522847,26 91,26 C90.4477153,26 90,25.5522847 90,25 Z M90,61 C90,60.4477153 90.4477153,60 91,60 C91.5522847,60 92,60.4477153 92,61 C92,61.5522847 91.5522847,62 91,62 C90.4477153,62 90,61.5522847 90,61 Z M90,13 C90,12.4477153 90.4477153,12 91,12 C91.5522847,12 92,12.4477153 92,13 C92,13.5522847 91.5522847,14 91,14 C90.4477153,14 90,13.5522847 90,13 Z M90,49 C90,48.4477153 90.4477153,48 91,48 C91.5522847,48 92,48.4477153 92,49 C92,49.5522847 91.5522847,50 91,50 C90.4477153,50 90,49.5522847 90,49 Z M90,31 C90,30.4477153 90.4477153,30 91,30 C91.5522847,30 92,30.4477153 92,31 C92,31.5522847 91.5522847,32 91,32 C90.4477153,32 90,31.5522847 90,31 Z M90,67 C90,66.4477153 90.4477153,66 91,66 C91.5522847,66 92,66.4477153 92,67 C92,67.5522847 91.5522847,68 91,68 C90.4477153,68 90,67.5522847 90,67 Z M108,1 C108,0.44771525 108.447715,-1.01453063e-16 109,0 C109.552285,1.01453063e-16 110,0.44771525 110,1 C110,1.55228475 109.552285,2 109,2 C108.447715,2 108,1.55228475 108,1 Z M108,73 C108,72.4477153 108.447715,72 109,72 C109.552285,72 110,72.4477153 110,73 C110,73.5522847 109.552285,74 109,74 C108.447715,74 108,73.5522847 108,73 Z M108,37 C108,36.4477153 108.447715,36 109,36 C109.552285,36 110,36.4477153 110,37 C110,37.5522847 109.552285,38 109,38 C108.447715,38 108,37.5522847 108,37 Z M108,19 C108,18.4477153 108.447715,18 109,18 C109.552285,18 110,18.4477153 110,19 C110,19.5522847 109.552285,20 109,20 C108.447715,20 108,19.5522847 108,19 Z M108,55 C108,54.4477153 108.447715,54 109,54 C109.552285,54 110,54.4477153 110,55 C110,55.5522847 109.552285,56 109,56 C108.447715,56 108,55.5522847 108,55 Z M108,7 C108,6.44771525 108.447715,6 109,6 C109.552285,6 110,6.44771525 110,7 C110,7.55228475 109.552285,8 109,8 C108.447715,8 108,7.55228475 108,7 Z M108,43 C108,42.4477153 108.447715,42 109,42 C109.552285,42 110,42.4477153 110,43 C110,43.5522847 109.552285,44 109,44 C108.447715,44 108,43.5522847 108,43 Z M108,25 C108,24.4477153 108.447715,24 109,24 C109.552285,24 110,24.4477153 110,25 C110,25.5522847 109.552285,26 109,26 C108.447715,26 108,25.5522847 108,25 Z M108,61 C108,60.4477153 108.447715,60 109,60 C109.552285,60 110,60.4477153 110,61 C110,61.5522847 109.552285,62 109,62 C108.447715,62 108,61.5522847 108,61 Z M108,13 C108,12.4477153 108.447715,12 109,12 C109.552285,12 110,12.4477153 110,13 C110,13.5522847 109.552285,14 109,14 C108.447715,14 108,13.5522847 108,13 Z M108,49 C108,48.4477153 108.447715,48 109,48 C109.552285,48 110,48.4477153 110,49 C110,49.5522847 109.552285,50 109,50 C108.447715,50 108,49.5522847 108,49 Z M108,31 C108,30.4477153 108.447715,30 109,30 C109.552285,30 110,30.4477153 110,31 C110,31.5522847 109.552285,32 109,32 C108.447715,32 108,31.5522847 108,31 Z M108,67 C108,66.4477153 108.447715,66 109,66 C109.552285,66 110,66.4477153 110,67 C110,67.5522847 109.552285,68 109,68 C108.447715,68 108,67.5522847 108,67 Z M72,1 C72,0.44771525 72.4477153,-1.01453063e-16 73,0 C73.5522847,1.01453063e-16 74,0.44771525 74,1 C74,1.55228475 73.5522847,2 73,2 C72.4477153,2 72,1.55228475 72,1 Z M72,73 C72,72.4477153 72.4477153,72 73,72 C73.5522847,72 74,72.4477153 74,73 C74,73.5522847 73.5522847,74 73,74 C72.4477153,74 72,73.5522847 72,73 Z M72,37 C72,36.4477153 72.4477153,36 73,36 C73.5522847,36 74,36.4477153 74,37 C74,37.5522847 73.5522847,38 73,38 C72.4477153,38 72,37.5522847 72,37 Z M72,19 C72,18.4477153 72.4477153,18 73,18 C73.5522847,18 74,18.4477153 74,19 C74,19.5522847 73.5522847,20 73,20 C72.4477153,20 72,19.5522847 72,19 Z M72,55 C72,54.4477153 72.4477153,54 73,54 C73.5522847,54 74,54.4477153 74,55 C74,55.5522847 73.5522847,56 73,56 C72.4477153,56 72,55.5522847 72,55 Z M72,7 C72,6.44771525 72.4477153,6 73,6 C73.5522847,6 74,6.44771525 74,7 C74,7.55228475 73.5522847,8 73,8 C72.4477153,8 72,7.55228475 72,7 Z M72,43 C72,42.4477153 72.4477153,42 73,42 C73.5522847,42 74,42.4477153 74,43 C74,43.5522847 73.5522847,44 73,44 C72.4477153,44 72,43.5522847 72,43 Z M72,25 C72,24.4477153 72.4477153,24 73,24 C73.5522847,24 74,24.4477153 74,25 C74,25.5522847 73.5522847,26 73,26 C72.4477153,26 72,25.5522847 72,25 Z M72,61 C72,60.4477153 72.4477153,60 73,60 C73.5522847,60 74,60.4477153 74,61 C74,61.5522847 73.5522847,62 73,62 C72.4477153,62 72,61.5522847 72,61 Z M72,13 C72,12.4477153 72.4477153,12 73,12 C73.5522847,12 74,12.4477153 74,13 C74,13.5522847 73.5522847,14 73,14 C72.4477153,14 72,13.5522847 72,13 Z M72,49 C72,48.4477153 72.4477153,48 73,48 C73.5522847,48 74,48.4477153 74,49 C74,49.5522847 73.5522847,50 73,50 C72.4477153,50 72,49.5522847 72,49 Z M72,31 C72,30.4477153 72.4477153,30 73,30 C73.5522847,30 74,30.4477153 74,31 C74,31.5522847 73.5522847,32 73,32 C72.4477153,32 72,31.5522847 72,31 Z M72,67 C72,66.4477153 72.4477153,66 73,66 C73.5522847,66 74,66.4477153 74,67 C74,67.5522847 73.5522847,68 73,68 C72.4477153,68 72,67.5522847 72,67 Z M120,1 C120,0.44771525 120.447715,-1.01453063e-16 121,0 C121.552285,1.01453063e-16 122,0.44771525 122,1 C122,1.55228475 121.552285,2 121,2 C120.447715,2 120,1.55228475 120,1 Z M120,73 C120,72.4477153 120.447715,72 121,72 C121.552285,72 122,72.4477153 122,73 C122,73.5522847 121.552285,74 121,74 C120.447715,74 120,73.5522847 120,73 Z M120,37 C120,36.4477153 120.447715,36 121,36 C121.552285,36 122,36.4477153 122,37 C122,37.5522847 121.552285,38 121,38 C120.447715,38 120,37.5522847 120,37 Z M120,19 C120,18.4477153 120.447715,18 121,18 C121.552285,18 122,18.4477153 122,19 C122,19.5522847 121.552285,20 121,20 C120.447715,20 120,19.5522847 120,19 Z M120,55 C120,54.4477153 120.447715,54 121,54 C121.552285,54 122,54.4477153 122,55 C122,55.5522847 121.552285,56 121,56 C120.447715,56 120,55.5522847 120,55 Z M120,7 C120,6.44771525 120.447715,6 121,6 C121.552285,6 122,6.44771525 122,7 C122,7.55228475 121.552285,8 121,8 C120.447715,8 120,7.55228475 120,7 Z M120,43 C120,42.4477153 120.447715,42 121,42 C121.552285,42 122,42.4477153 122,43 C122,43.5522847 121.552285,44 121,44 C120.447715,44 120,43.5522847 120,43 Z M120,25 C120,24.4477153 120.447715,24 121,24 C121.552285,24 122,24.4477153 122,25 C122,25.5522847 121.552285,26 121,26 C120.447715,26 120,25.5522847 120,25 Z M120,61 C120,60.4477153 120.447715,60 121,60 C121.552285,60 122,60.4477153 122,61 C122,61.5522847 121.552285,62 121,62 C120.447715,62 120,61.5522847 120,61 Z M120,13 C120,12.4477153 120.447715,12 121,12 C121.552285,12 122,12.4477153 122,13 C122,13.5522847 121.552285,14 121,14 C120.447715,14 120,13.5522847 120,13 Z M120,49 C120,48.4477153 120.447715,48 121,48 C121.552285,48 122,48.4477153 122,49 C122,49.5522847 121.552285,50 121,50 C120.447715,50 120,49.5522847 120,49 Z M120,31 C120,30.4477153 120.447715,30 121,30 C121.552285,30 122,30.4477153 122,31 C122,31.5522847 121.552285,32 121,32 C120.447715,32 120,31.5522847 120,31 Z M120,67 C120,66.4477153 120.447715,66 121,66 C121.552285,66 122,66.4477153 122,67 C122,67.5522847 121.552285,68 121,68 C120.447715,68 120,67.5522847 120,67 Z M84,1 C84,0.44771525 84.4477153,-1.01453063e-16 85,0 C85.5522847,1.01453063e-16 86,0.44771525 86,1 C86,1.55228475 85.5522847,2 85,2 C84.4477153,2 84,1.55228475 84,1 Z M84,73 C84,72.4477153 84.4477153,72 85,72 C85.5522847,72 86,72.4477153 86,73 C86,73.5522847 85.5522847,74 85,74 C84.4477153,74 84,73.5522847 84,73 Z M84,37 C84,36.4477153 84.4477153,36 85,36 C85.5522847,36 86,36.4477153 86,37 C86,37.5522847 85.5522847,38 85,38 C84.4477153,38 84,37.5522847 84,37 Z M84,19 C84,18.4477153 84.4477153,18 85,18 C85.5522847,18 86,18.4477153 86,19 C86,19.5522847 85.5522847,20 85,20 C84.4477153,20 84,19.5522847 84,19 Z M84,55 C84,54.4477153 84.4477153,54 85,54 C85.5522847,54 86,54.4477153 86,55 C86,55.5522847 85.5522847,56 85,56 C84.4477153,56 84,55.5522847 84,55 Z M84,7 C84,6.44771525 84.4477153,6 85,6 C85.5522847,6 86,6.44771525 86,7 C86,7.55228475 85.5522847,8 85,8 C84.4477153,8 84,7.55228475 84,7 Z M84,43 C84,42.4477153 84.4477153,42 85,42 C85.5522847,42 86,42.4477153 86,43 C86,43.5522847 85.5522847,44 85,44 C84.4477153,44 84,43.5522847 84,43 Z M84,25 C84,24.4477153 84.4477153,24 85,24 C85.5522847,24 86,24.4477153 86,25 C86,25.5522847 85.5522847,26 85,26 C84.4477153,26 84,25.5522847 84,25 Z M84,61 C84,60.4477153 84.4477153,60 85,60 C85.5522847,60 86,60.4477153 86,61 C86,61.5522847 85.5522847,62 85,62 C84.4477153,62 84,61.5522847 84,61 Z M84,13 C84,12.4477153 84.4477153,12 85,12 C85.5522847,12 86,12.4477153 86,13 C86,13.5522847 85.5522847,14 85,14 C84.4477153,14 84,13.5522847 84,13 Z M84,49 C84,48.4477153 84.4477153,48 85,48 C85.5522847,48 86,48.4477153 86,49 C86,49.5522847 85.5522847,50 85,50 C84.4477153,50 84,49.5522847 84,49 Z M84,31 C84,30.4477153 84.4477153,30 85,30 C85.5522847,30 86,30.4477153 86,31 C86,31.5522847 85.5522847,32 85,32 C84.4477153,32 84,31.5522847 84,31 Z M84,67 C84,66.4477153 84.4477153,66 85,66 C85.5522847,66 86,66.4477153 86,67 C86,67.5522847 85.5522847,68 85,68 C84.4477153,68 84,67.5522847 84,67 Z M102,1 C102,0.44771525 102.447715,-1.01453063e-16 103,0 C103.552285,1.01453063e-16 104,0.44771525 104,1 C104,1.55228475 103.552285,2 103,2 C102.447715,2 102,1.55228475 102,1 Z M102,73 C102,72.4477153 102.447715,72 103,72 C103.552285,72 104,72.4477153 104,73 C104,73.5522847 103.552285,74 103,74 C102.447715,74 102,73.5522847 102,73 Z M102,37 C102,36.4477153 102.447715,36 103,36 C103.552285,36 104,36.4477153 104,37 C104,37.5522847 103.552285,38 103,38 C102.447715,38 102,37.5522847 102,37 Z M102,19 C102,18.4477153 102.447715,18 103,18 C103.552285,18 104,18.4477153 104,19 C104,19.5522847 103.552285,20 103,20 C102.447715,20 102,19.5522847 102,19 Z M102,55 C102,54.4477153 102.447715,54 103,54 C103.552285,54 104,54.4477153 104,55 C104,55.5522847 103.552285,56 103,56 C102.447715,56 102,55.5522847 102,55 Z M102,7 C102,6.44771525 102.447715,6 103,6 C103.552285,6 104,6.44771525 104,7 C104,7.55228475 103.552285,8 103,8 C102.447715,8 102,7.55228475 102,7 Z M102,43 C102,42.4477153 102.447715,42 103,42 C103.552285,42 104,42.4477153 104,43 C104,43.5522847 103.552285,44 103,44 C102.447715,44 102,43.5522847 102,43 Z M102,25 C102,24.4477153 102.447715,24 103,24 C103.552285,24 104,24.4477153 104,25 C104,25.5522847 103.552285,26 103,26 C102.447715,26 102,25.5522847 102,25 Z M102,61 C102,60.4477153 102.447715,60 103,60 C103.552285,60 104,60.4477153 104,61 C104,61.5522847 103.552285,62 103,62 C102.447715,62 102,61.5522847 102,61 Z M102,13 C102,12.4477153 102.447715,12 103,12 C103.552285,12 104,12.4477153 104,13 C104,13.5522847 103.552285,14 103,14 C102.447715,14 102,13.5522847 102,13 Z M102,49 C102,48.4477153 102.447715,48 103,48 C103.552285,48 104,48.4477153 104,49 C104,49.5522847 103.552285,50 103,50 C102.447715,50 102,49.5522847 102,49 Z M102,31 C102,30.4477153 102.447715,30 103,30 C103.552285,30 104,30.4477153 104,31 C104,31.5522847 103.552285,32 103,32 C102.447715,32 102,31.5522847 102,31 Z M102,67 C102,66.4477153 102.447715,66 103,66 C103.552285,66 104,66.4477153 104,67 C104,67.5522847 103.552285,68 103,68 C102.447715,68 102,67.5522847 102,67 Z M66,1 C66,0.44771525 66.4477153,-1.01453063e-16 67,0 C67.5522847,1.01453063e-16 68,0.44771525 68,1 C68,1.55228475 67.5522847,2 67,2 C66.4477153,2 66,1.55228475 66,1 Z M66,73 C66,72.4477153 66.4477153,72 67,72 C67.5522847,72 68,72.4477153 68,73 C68,73.5522847 67.5522847,74 67,74 C66.4477153,74 66,73.5522847 66,73 Z M66,37 C66,36.4477153 66.4477153,36 67,36 C67.5522847,36 68,36.4477153 68,37 C68,37.5522847 67.5522847,38 67,38 C66.4477153,38 66,37.5522847 66,37 Z M66,19 C66,18.4477153 66.4477153,18 67,18 C67.5522847,18 68,18.4477153 68,19 C68,19.5522847 67.5522847,20 67,20 C66.4477153,20 66,19.5522847 66,19 Z M66,55 C66,54.4477153 66.4477153,54 67,54 C67.5522847,54 68,54.4477153 68,55 C68,55.5522847 67.5522847,56 67,56 C66.4477153,56 66,55.5522847 66,55 Z M66,7 C66,6.44771525 66.4477153,6 67,6 C67.5522847,6 68,6.44771525 68,7 C68,7.55228475 67.5522847,8 67,8 C66.4477153,8 66,7.55228475 66,7 Z M66,43 C66,42.4477153 66.4477153,42 67,42 C67.5522847,42 68,42.4477153 68,43 C68,43.5522847 67.5522847,44 67,44 C66.4477153,44 66,43.5522847 66,43 Z M66,25 C66,24.4477153 66.4477153,24 67,24 C67.5522847,24 68,24.4477153 68,25 C68,25.5522847 67.5522847,26 67,26 C66.4477153,26 66,25.5522847 66,25 Z M66,61 C66,60.4477153 66.4477153,60 67,60 C67.5522847,60 68,60.4477153 68,61 C68,61.5522847 67.5522847,62 67,62 C66.4477153,62 66,61.5522847 66,61 Z M66,13 C66,12.4477153 66.4477153,12 67,12 C67.5522847,12 68,12.4477153 68,13 C68,13.5522847 67.5522847,14 67,14 C66.4477153,14 66,13.5522847 66,13 Z M66,49 C66,48.4477153 66.4477153,48 67,48 C67.5522847,48 68,48.4477153 68,49 C68,49.5522847 67.5522847,50 67,50 C66.4477153,50 66,49.5522847 66,49 Z M66,31 C66,30.4477153 66.4477153,30 67,30 C67.5522847,30 68,30.4477153 68,31 C68,31.5522847 67.5522847,32 67,32 C66.4477153,32 66,31.5522847 66,31 Z M66,67 C66,66.4477153 66.4477153,66 67,66 C67.5522847,66 68,66.4477153 68,67 C68,67.5522847 67.5522847,68 67,68 C66.4477153,68 66,67.5522847 66,67 Z M114,1 C114,0.44771525 114.447715,-1.01453063e-16 115,0 C115.552285,1.01453063e-16 116,0.44771525 116,1 C116,1.55228475 115.552285,2 115,2 C114.447715,2 114,1.55228475 114,1 Z M114,73 C114,72.4477153 114.447715,72 115,72 C115.552285,72 116,72.4477153 116,73 C116,73.5522847 115.552285,74 115,74 C114.447715,74 114,73.5522847 114,73 Z M114,37 C114,36.4477153 114.447715,36 115,36 C115.552285,36 116,36.4477153 116,37 C116,37.5522847 115.552285,38 115,38 C114.447715,38 114,37.5522847 114,37 Z M114,19 C114,18.4477153 114.447715,18 115,18 C115.552285,18 116,18.4477153 116,19 C116,19.5522847 115.552285,20 115,20 C114.447715,20 114,19.5522847 114,19 Z M114,55 C114,54.4477153 114.447715,54 115,54 C115.552285,54 116,54.4477153 116,55 C116,55.5522847 115.552285,56 115,56 C114.447715,56 114,55.5522847 114,55 Z M114,7 C114,6.44771525 114.447715,6 115,6 C115.552285,6 116,6.44771525 116,7 C116,7.55228475 115.552285,8 115,8 C114.447715,8 114,7.55228475 114,7 Z M114,43 C114,42.4477153 114.447715,42 115,42 C115.552285,42 116,42.4477153 116,43 C116,43.5522847 115.552285,44 115,44 C114.447715,44 114,43.5522847 114,43 Z M114,25 C114,24.4477153 114.447715,24 115,24 C115.552285,24 116,24.4477153 116,25 C116,25.5522847 115.552285,26 115,26 C114.447715,26 114,25.5522847 114,25 Z M114,61 C114,60.4477153 114.447715,60 115,60 C115.552285,60 116,60.4477153 116,61 C116,61.5522847 115.552285,62 115,62 C114.447715,62 114,61.5522847 114,61 Z M114,13 C114,12.4477153 114.447715,12 115,12 C115.552285,12 116,12.4477153 116,13 C116,13.5522847 115.552285,14 115,14 C114.447715,14 114,13.5522847 114,13 Z M114,49 C114,48.4477153 114.447715,48 115,48 C115.552285,48 116,48.4477153 116,49 C116,49.5522847 115.552285,50 115,50 C114.447715,50 114,49.5522847 114,49 Z M114,31 C114,30.4477153 114.447715,30 115,30 C115.552285,30 116,30.4477153 116,31 C116,31.5522847 115.552285,32 115,32 C114.447715,32 114,31.5522847 114,31 Z M114,67 C114,66.4477153 114.447715,66 115,66 C115.552285,66 116,66.4477153 116,67 C116,67.5522847 115.552285,68 115,68 C114.447715,68 114,67.5522847 114,67 Z M78,1 C78,0.44771525 78.4477153,-1.01453063e-16 79,0 C79.5522847,1.01453063e-16 80,0.44771525 80,1 C80,1.55228475 79.5522847,2 79,2 C78.4477153,2 78,1.55228475 78,1 Z M78,73 C78,72.4477153 78.4477153,72 79,72 C79.5522847,72 80,72.4477153 80,73 C80,73.5522847 79.5522847,74 79,74 C78.4477153,74 78,73.5522847 78,73 Z M78,37 C78,36.4477153 78.4477153,36 79,36 C79.5522847,36 80,36.4477153 80,37 C80,37.5522847 79.5522847,38 79,38 C78.4477153,38 78,37.5522847 78,37 Z M78,19 C78,18.4477153 78.4477153,18 79,18 C79.5522847,18 80,18.4477153 80,19 C80,19.5522847 79.5522847,20 79,20 C78.4477153,20 78,19.5522847 78,19 Z M78,55 C78,54.4477153 78.4477153,54 79,54 C79.5522847,54 80,54.4477153 80,55 C80,55.5522847 79.5522847,56 79,56 C78.4477153,56 78,55.5522847 78,55 Z M78,7 C78,6.44771525 78.4477153,6 79,6 C79.5522847,6 80,6.44771525 80,7 C80,7.55228475 79.5522847,8 79,8 C78.4477153,8 78,7.55228475 78,7 Z M78,43 C78,42.4477153 78.4477153,42 79,42 C79.5522847,42 80,42.4477153 80,43 C80,43.5522847 79.5522847,44 79,44 C78.4477153,44 78,43.5522847 78,43 Z M78,25 C78,24.4477153 78.4477153,24 79,24 C79.5522847,24 80,24.4477153 80,25 C80,25.5522847 79.5522847,26 79,26 C78.4477153,26 78,25.5522847 78,25 Z M78,61 C78,60.4477153 78.4477153,60 79,60 C79.5522847,60 80,60.4477153 80,61 C80,61.5522847 79.5522847,62 79,62 C78.4477153,62 78,61.5522847 78,61 Z M78,13 C78,12.4477153 78.4477153,12 79,12 C79.5522847,12 80,12.4477153 80,13 C80,13.5522847 79.5522847,14 79,14 C78.4477153,14 78,13.5522847 78,13 Z M78,49 C78,48.4477153 78.4477153,48 79,48 C79.5522847,48 80,48.4477153 80,49 C80,49.5522847 79.5522847,50 79,50 C78.4477153,50 78,49.5522847 78,49 Z M78,31 C78,30.4477153 78.4477153,30 79,30 C79.5522847,30 80,30.4477153 80,31 C80,31.5522847 79.5522847,32 79,32 C78.4477153,32 78,31.5522847 78,31 Z M78,67 C78,66.4477153 78.4477153,66 79,66 C79.5522847,66 80,66.4477153 80,67 C80,67.5522847 79.5522847,68 79,68 C78.4477153,68 78,67.5522847 78,67 Z M96,1 C96,0.44771525 96.4477153,-1.01453063e-16 97,0 C97.5522847,1.01453063e-16 98,0.44771525 98,1 C98,1.55228475 97.5522847,2 97,2 C96.4477153,2 96,1.55228475 96,1 Z M96,73 C96,72.4477153 96.4477153,72 97,72 C97.5522847,72 98,72.4477153 98,73 C98,73.5522847 97.5522847,74 97,74 C96.4477153,74 96,73.5522847 96,73 Z M96,37 C96,36.4477153 96.4477153,36 97,36 C97.5522847,36 98,36.4477153 98,37 C98,37.5522847 97.5522847,38 97,38 C96.4477153,38 96,37.5522847 96,37 Z M96,19 C96,18.4477153 96.4477153,18 97,18 C97.5522847,18 98,18.4477153 98,19 C98,19.5522847 97.5522847,20 97,20 C96.4477153,20 96,19.5522847 96,19 Z M96,55 C96,54.4477153 96.4477153,54 97,54 C97.5522847,54 98,54.4477153 98,55 C98,55.5522847 97.5522847,56 97,56 C96.4477153,56 96,55.5522847 96,55 Z M96,7 C96,6.44771525 96.4477153,6 97,6 C97.5522847,6 98,6.44771525 98,7 C98,7.55228475 97.5522847,8 97,8 C96.4477153,8 96,7.55228475 96,7 Z M96,43 C96,42.4477153 96.4477153,42 97,42 C97.5522847,42 98,42.4477153 98,43 C98,43.5522847 97.5522847,44 97,44 C96.4477153,44 96,43.5522847 96,43 Z M96,25 C96,24.4477153 96.4477153,24 97,24 C97.5522847,24 98,24.4477153 98,25 C98,25.5522847 97.5522847,26 97,26 C96.4477153,26 96,25.5522847 96,25 Z M96,61 C96,60.4477153 96.4477153,60 97,60 C97.5522847,60 98,60.4477153 98,61 C98,61.5522847 97.5522847,62 97,62 C96.4477153,62 96,61.5522847 96,61 Z M96,13 C96,12.4477153 96.4477153,12 97,12 C97.5522847,12 98,12.4477153 98,13 C98,13.5522847 97.5522847,14 97,14 C96.4477153,14 96,13.5522847 96,13 Z M96,49 C96,48.4477153 96.4477153,48 97,48 C97.5522847,48 98,48.4477153 98,49 C98,49.5522847 97.5522847,50 97,50 C96.4477153,50 96,49.5522847 96,49 Z M96,31 C96,30.4477153 96.4477153,30 97,30 C97.5522847,30 98,30.4477153 98,31 C98,31.5522847 97.5522847,32 97,32 C96.4477153,32 96,31.5522847 96,31 Z M96,67 C96,66.4477153 96.4477153,66 97,66 C97.5522847,66 98,66.4477153 98,67 C98,67.5522847 97.5522847,68 97,68 C96.4477153,68 96,67.5522847 96,67 Z M30,61 C30,60.4477153 30.4477153,60 31,60 C31.5522847,60 32,60.4477153 32,61 C32,61.5522847 31.5522847,62 31,62 C30.4477153,62 30,61.5522847 30,61 Z M30,67 C30,66.4477153 30.4477153,66 31,66 C31.5522847,66 32,66.4477153 32,67 C32,67.5522847 31.5522847,68 31,68 C30.4477153,68 30,67.5522847 30,67 Z M30,73 C30,72.4477153 30.4477153,72 31,72 C31.5522847,72 32,72.4477153 32,73 C32,73.5522847 31.5522847,74 31,74 C30.4477153,74 30,73.5522847 30,73 Z" id="Combined-Shape" fill="#DFE5E6"></path>
                            <g id="Group-13" transform="translate(67.000000, 13.000000)" stroke="#FD5750">
                                <circle id="Oval-2" cx="24" cy="24" r="5.5"></circle>
                                <circle id="Oval-2" cx="24" cy="24" r="11.5"></circle>
                                <circle id="Oval-2" cx="24" cy="24" r="23.5"></circle>
                                <circle id="Oval-2" cx="24" cy="24" r="17.5"></circle>
                            </g>
                            <g id="Group-11" transform="translate(13.000000, 13.000000)" stroke="#FD5750">
                                <circle id="Oval-2-Copy" cx="24" cy="24" r="5.5"></circle>
                                <circle id="Oval-2-Copy-2" cx="24" cy="24" r="11.5"></circle>
                                <circle id="Oval-2-Copy-3" cx="24" cy="24" r="23.5"></circle>
                                <circle id="Oval-2-Copy-4" cx="24" cy="24" r="17.5"></circle>
                            </g>
                        </g>
                    </g>
                </g>
            </g>
        </g>
    </g>
</svg>