<?xml version="1.0" encoding="UTF-8"?>
<svg width="128px" height="74px" viewBox="0 0 128 74" version="1.1" xmlns="http://www.w3.org/2000/svg" xmlns:xlink="http://www.w3.org/1999/xlink">
    <!-- Generator: Sketch 50.2 (55047) - http://www.bohemiancoding.com/sketch -->
    <title>Icon</title>
    <desc>Created with Sketch.</desc>
    <defs></defs>
    <g id="Page-Designs" stroke="none" stroke-width="1" fill="none" fill-rule="evenodd">
        <g id="learn_overview" transform="translate(-192.000000, -5227.000000)">
            <g id="Serverless-Framework" transform="translate(143.000000, 4198.000000)">
                <g id="Benefits" transform="translate(0.000000, 852.000000)">
                    <g id="Dev-Speed" transform="translate(7.000000, 177.000000)">
                        <g id="Icon" transform="translate(42.000000, 0.000000)">
                            <g id="Group-4" fill="#DFE5E6">
                                <circle id="Oval-Copy-13" transform="translate(61.000000, 31.000000) rotate(-270.000000) translate(-61.000000, -31.000000) " cx="61" cy="31" r="1"></circle>
                                <circle id="Oval-Copy-14" transform="translate(61.000000, 13.000000) rotate(-270.000000) translate(-61.000000, -13.000000) " cx="61" cy="13" r="1"></circle>
                                <circle id="Oval-Copy-15" transform="translate(61.000000, 49.000000) rotate(-270.000000) translate(-61.000000, -49.000000) " cx="61" cy="49" r="1"></circle>
                                <circle id="Oval-Copy-16" transform="translate(61.000000, 1.000000) rotate(-270.000000) translate(-61.000000, -1.000000) " cx="61" cy="1" r="1"></circle>
                                <circle id="Oval-Copy-17" transform="translate(61.000000, 37.000000) rotate(-270.000000) translate(-61.000000, -37.000000) " cx="61" cy="37" r="1"></circle>
                                <circle id="Oval-Copy-18" transform="translate(61.000000, 19.000000) rotate(-270.000000) translate(-61.000000, -19.000000) " cx="61" cy="19" r="1"></circle>
                                <circle id="Oval-Copy-19" transform="translate(61.000000, 55.000000) rotate(-270.000000) translate(-61.000000, -55.000000) " cx="61" cy="55" r="1"></circle>
                                <circle id="Oval-Copy-20" transform="translate(61.000000, 7.000000) rotate(-270.000000) translate(-61.000000, -7.000000) " cx="61" cy="7" r="1"></circle>
                                <circle id="Oval-Copy-21" transform="translate(61.000000, 43.000000) rotate(-270.000000) translate(-61.000000, -43.000000) " cx="61" cy="43" r="1"></circle>
                                <circle id="Oval-Copy-22" transform="translate(61.000000, 25.000000) rotate(-270.000000) translate(-61.000000, -25.000000) " cx="61" cy="25" r="1"></circle>
                                <circle id="Oval-Copy-23" transform="translate(61.000000, 61.000000) rotate(-270.000000) translate(-61.000000, -61.000000) " cx="61" cy="61" r="1"></circle>
                                <circle id="Oval-Copy-24" transform="translate(61.000000, 67.000000) rotate(-270.000000) translate(-61.000000, -67.000000) " cx="61" cy="67" r="1"></circle>
                                <circle id="Oval-Copy-25" transform="translate(61.000000, 73.000000) rotate(-270.000000) translate(-61.000000, -73.000000) " cx="61" cy="73" r="1"></circle>
                                <circle id="Oval-Copy-13" transform="translate(25.000000, 31.000000) rotate(-270.000000) translate(-25.000000, -31.000000) " cx="25" cy="31" r="1"></circle>
                                <circle id="Oval-Copy-14" transform="translate(25.000000, 13.000000) rotate(-270.000000) translate(-25.000000, -13.000000) " cx="25" cy="13" r="1"></circle>
                                <circle id="Oval-Copy-15" transform="translate(25.000000, 49.000000) rotate(-270.000000) translate(-25.000000, -49.000000) " cx="25" cy="49" r="1"></circle>
                                <circle id="Oval-Copy-16" transform="translate(25.000000, 1.000000) rotate(-270.000000) translate(-25.000000, -1.000000) " cx="25" cy="1" r="1"></circle>
                                <circle id="Oval-Copy-17" transform="translate(25.000000, 37.000000) rotate(-270.000000) translate(-25.000000, -37.000000) " cx="25" cy="37" r="1"></circle>
                                <circle id="Oval-Copy-18" transform="translate(25.000000, 19.000000) rotate(-270.000000) translate(-25.000000, -19.000000) " cx="25" cy="19" r="1"></circle>
                                <circle id="Oval-Copy-19" transform="translate(25.000000, 55.000000) rotate(-270.000000) translate(-25.000000, -55.000000) " cx="25" cy="55" r="1"></circle>
                                <circle id="Oval-Copy-20" transform="translate(25.000000, 7.000000) rotate(-270.000000) translate(-25.000000, -7.000000) " cx="25" cy="7" r="1"></circle>
                                <circle id="Oval-Copy-21" transform="translate(25.000000, 43.000000) rotate(-270.000000) translate(-25.000000, -43.000000) " cx="25" cy="43" r="1"></circle>
                                <circle id="Oval-Copy-22" transform="translate(25.000000, 25.000000) rotate(-270.000000) translate(-25.000000, -25.000000) " cx="25" cy="25" r="1"></circle>
                                <circle id="Oval-Copy-23" transform="translate(25.000000, 61.000000) rotate(-270.000000) translate(-25.000000, -61.000000) " cx="25" cy="61" r="1"></circle>
                                <circle id="Oval-Copy-24" transform="translate(25.000000, 67.000000) rotate(-270.000000) translate(-25.000000, -67.000000) " cx="25" cy="67" r="1"></circle>
                                <circle id="Oval-Copy-25" transform="translate(25.000000, 73.000000) rotate(-270.000000) translate(-25.000000, -73.000000) " cx="25" cy="73" r="1"></circle>
                                <circle id="Oval-Copy-13" transform="translate(43.000000, 31.000000) rotate(-270.000000) translate(-43.000000, -31.000000) " cx="43" cy="31" r="1"></circle>
                                <circle id="Oval-Copy-14" transform="translate(43.000000, 13.000000) rotate(-270.000000) translate(-43.000000, -13.000000) " cx="43" cy="13" r="1"></circle>
                                <circle id="Oval-Copy-15" transform="translate(43.000000, 49.000000) rotate(-270.000000) translate(-43.000000, -49.000000) " cx="43" cy="49" r="1"></circle>
                                <circle id="Oval-Copy-16" transform="translate(43.000000, 1.000000) rotate(-270.000000) translate(-43.000000, -1.000000) " cx="43" cy="1" r="1"></circle>
                                <circle id="Oval-Copy-17" transform="translate(43.000000, 37.000000) rotate(-270.000000) translate(-43.000000, -37.000000) " cx="43" cy="37" r="1"></circle>
                                <circle id="Oval-Copy-18" transform="translate(43.000000, 19.000000) rotate(-270.000000) translate(-43.000000, -19.000000) " cx="43" cy="19" r="1"></circle>
                                <circle id="Oval-Copy-19" transform="translate(43.000000, 55.000000) rotate(-270.000000) translate(-43.000000, -55.000000) " cx="43" cy="55" r="1"></circle>
                                <circle id="Oval-Copy-20" transform="translate(43.000000, 7.000000) rotate(-270.000000) translate(-43.000000, -7.000000) " cx="43" cy="7" r="1"></circle>
                                <circle id="Oval-Copy-21" transform="translate(43.000000, 43.000000) rotate(-270.000000) translate(-43.000000, -43.000000) " cx="43" cy="43" r="1"></circle>
                                <circle id="Oval-Copy-22" transform="translate(43.000000, 25.000000) rotate(-270.000000) translate(-43.000000, -25.000000) " cx="43" cy="25" r="1"></circle>
                                <circle id="Oval-Copy-23" transform="translate(43.000000, 61.000000) rotate(-270.000000) translate(-43.000000, -61.000000) " cx="43" cy="61" r="1"></circle>
                                <circle id="Oval-Copy-24" transform="translate(43.000000, 67.000000) rotate(-270.000000) translate(-43.000000, -67.000000) " cx="43" cy="67" r="1"></circle>
                                <circle id="Oval-Copy-25" transform="translate(43.000000, 73.000000) rotate(-270.000000) translate(-43.000000, -73.000000) " cx="43" cy="73" r="1"></circle>
                                <circle id="Oval-Copy-13" transform="translate(7.000000, 31.000000) rotate(-270.000000) translate(-7.000000, -31.000000) " cx="7" cy="31" r="1"></circle>
                                <circle id="Oval-Copy-14" transform="translate(7.000000, 13.000000) rotate(-270.000000) translate(-7.000000, -13.000000) " cx="7" cy="13" r="1"></circle>
                                <circle id="Oval-Copy-15" transform="translate(7.000000, 49.000000) rotate(-270.000000) translate(-7.000000, -49.000000) " cx="7" cy="49" r="1"></circle>
                                <circle id="Oval-Copy-16" transform="translate(7.000000, 1.000000) rotate(-270.000000) translate(-7.000000, -1.000000) " cx="7" cy="1" r="1"></circle>
                                <circle id="Oval-Copy-17" transform="translate(7.000000, 37.000000) rotate(-270.000000) translate(-7.000000, -37.000000) " cx="7" cy="37" r="1"></circle>
                                <circle id="Oval-Copy-18" transform="translate(7.000000, 19.000000) rotate(-270.000000) translate(-7.000000, -19.000000) " cx="7" cy="19" r="1"></circle>
                                <circle id="Oval-Copy-19" transform="translate(7.000000, 55.000000) rotate(-270.000000) translate(-7.000000, -55.000000) " cx="7" cy="55" r="1"></circle>
                                <circle id="Oval-Copy-20" transform="translate(7.000000, 7.000000) rotate(-270.000000) translate(-7.000000, -7.000000) " cx="7" cy="7" r="1"></circle>
                                <circle id="Oval-Copy-21" transform="translate(7.000000, 43.000000) rotate(-270.000000) translate(-7.000000, -43.000000) " cx="7" cy="43" r="1"></circle>
                                <circle id="Oval-Copy-22" transform="translate(7.000000, 25.000000) rotate(-270.000000) translate(-7.000000, -25.000000) " cx="7" cy="25" r="1"></circle>
                                <circle id="Oval-Copy-23" transform="translate(7.000000, 61.000000) rotate(-270.000000) translate(-7.000000, -61.000000) " cx="7" cy="61" r="1"></circle>
                                <circle id="Oval-Copy-24" transform="translate(7.000000, 67.000000) rotate(-270.000000) translate(-7.000000, -67.000000) " cx="7" cy="67" r="1"></circle>
                                <circle id="Oval-Copy-25" transform="translate(7.000000, 73.000000) rotate(-270.000000) translate(-7.000000, -73.000000) " cx="7" cy="73" r="1"></circle>
                                <circle id="Oval-Copy-13" transform="translate(55.000000, 31.000000) rotate(-270.000000) translate(-55.000000, -31.000000) " cx="55" cy="31" r="1"></circle>
                                <circle id="Oval-Copy-14" transform="translate(55.000000, 13.000000) rotate(-270.000000) translate(-55.000000, -13.000000) " cx="55" cy="13" r="1"></circle>
                                <circle id="Oval-Copy-15" transform="translate(55.000000, 49.000000) rotate(-270.000000) translate(-55.000000, -49.000000) " cx="55" cy="49" r="1"></circle>
                                <circle id="Oval-Copy-16" transform="translate(55.000000, 1.000000) rotate(-270.000000) translate(-55.000000, -1.000000) " cx="55" cy="1" r="1"></circle>
                                <circle id="Oval-Copy-17" transform="translate(55.000000, 37.000000) rotate(-270.000000) translate(-55.000000, -37.000000) " cx="55" cy="37" r="1"></circle>
                                <circle id="Oval-Copy-18" transform="translate(55.000000, 19.000000) rotate(-270.000000) translate(-55.000000, -19.000000) " cx="55" cy="19" r="1"></circle>
                                <circle id="Oval-Copy-19" transform="translate(55.000000, 55.000000) rotate(-270.000000) translate(-55.000000, -55.000000) " cx="55" cy="55" r="1"></circle>
                                <circle id="Oval-Copy-20" transform="translate(55.000000, 7.000000) rotate(-270.000000) translate(-55.000000, -7.000000) " cx="55" cy="7" r="1"></circle>
                                <circle id="Oval-Copy-21" transform="translate(55.000000, 43.000000) rotate(-270.000000) translate(-55.000000, -43.000000) " cx="55" cy="43" r="1"></circle>
                                <circle id="Oval-Copy-22" transform="translate(55.000000, 25.000000) rotate(-270.000000) translate(-55.000000, -25.000000) " cx="55" cy="25" r="1"></circle>
                                <circle id="Oval-Copy-23" transform="translate(55.000000, 61.000000) rotate(-270.000000) translate(-55.000000, -61.000000) " cx="55" cy="61" r="1"></circle>
                                <circle id="Oval-Copy-24" transform="translate(55.000000, 67.000000) rotate(-270.000000) translate(-55.000000, -67.000000) " cx="55" cy="67" r="1"></circle>
                                <circle id="Oval-Copy-25" transform="translate(55.000000, 73.000000) rotate(-270.000000) translate(-55.000000, -73.000000) " cx="55" cy="73" r="1"></circle>
                                <circle id="Oval-Copy-13" transform="translate(19.000000, 31.000000) rotate(-270.000000) translate(-19.000000, -31.000000) " cx="19" cy="31" r="1"></circle>
                                <circle id="Oval-Copy-14" transform="translate(19.000000, 13.000000) rotate(-270.000000) translate(-19.000000, -13.000000) " cx="19" cy="13" r="1"></circle>
                                <circle id="Oval-Copy-15" transform="translate(19.000000, 49.000000) rotate(-270.000000) translate(-19.000000, -49.000000) " cx="19" cy="49" r="1"></circle>
                                <circle id="Oval-Copy-16" transform="translate(19.000000, 1.000000) rotate(-270.000000) translate(-19.000000, -1.000000) " cx="19" cy="1" r="1"></circle>
                                <circle id="Oval-Copy-17" transform="translate(19.000000, 37.000000) rotate(-270.000000) translate(-19.000000, -37.000000) " cx="19" cy="37" r="1"></circle>
                                <circle id="Oval-Copy-18" transform="translate(19.000000, 19.000000) rotate(-270.000000) translate(-19.000000, -19.000000) " cx="19" cy="19" r="1"></circle>
                                <circle id="Oval-Copy-19" transform="translate(19.000000, 55.000000) rotate(-270.000000) translate(-19.000000, -55.000000) " cx="19" cy="55" r="1"></circle>
                                <circle id="Oval-Copy-20" transform="translate(19.000000, 7.000000) rotate(-270.000000) translate(-19.000000, -7.000000) " cx="19" cy="7" r="1"></circle>
                                <circle id="Oval-Copy-21" transform="translate(19.000000, 43.000000) rotate(-270.000000) translate(-19.000000, -43.000000) " cx="19" cy="43" r="1"></circle>
                                <circle id="Oval-Copy-22" transform="translate(19.000000, 25.000000) rotate(-270.000000) translate(-19.000000, -25.000000) " cx="19" cy="25" r="1"></circle>
                                <circle id="Oval-Copy-23" transform="translate(19.000000, 61.000000) rotate(-270.000000) translate(-19.000000, -61.000000) " cx="19" cy="61" r="1"></circle>
                                <circle id="Oval-Copy-24" transform="translate(19.000000, 67.000000) rotate(-270.000000) translate(-19.000000, -67.000000) " cx="19" cy="67" r="1"></circle>
                                <circle id="Oval-Copy-25" transform="translate(19.000000, 73.000000) rotate(-270.000000) translate(-19.000000, -73.000000) " cx="19" cy="73" r="1"></circle>
                                <circle id="Oval-Copy-13" transform="translate(37.000000, 31.000000) rotate(-270.000000) translate(-37.000000, -31.000000) " cx="37" cy="31" r="1"></circle>
                                <circle id="Oval-Copy-14" transform="translate(37.000000, 13.000000) rotate(-270.000000) translate(-37.000000, -13.000000) " cx="37" cy="13" r="1"></circle>
                                <circle id="Oval-Copy-15" transform="translate(37.000000, 49.000000) rotate(-270.000000) translate(-37.000000, -49.000000) " cx="37" cy="49" r="1"></circle>
                                <circle id="Oval-Copy-16" transform="translate(37.000000, 1.000000) rotate(-270.000000) translate(-37.000000, -1.000000) " cx="37" cy="1" r="1"></circle>
                                <circle id="Oval-Copy-17" transform="translate(37.000000, 37.000000) rotate(-270.000000) translate(-37.000000, -37.000000) " cx="37" cy="37" r="1"></circle>
                                <circle id="Oval-Copy-18" transform="translate(37.000000, 19.000000) rotate(-270.000000) translate(-37.000000, -19.000000) " cx="37" cy="19" r="1"></circle>
                                <circle id="Oval-Copy-19" transform="translate(37.000000, 55.000000) rotate(-270.000000) translate(-37.000000, -55.000000) " cx="37" cy="55" r="1"></circle>
                                <circle id="Oval-Copy-20" transform="translate(37.000000, 7.000000) rotate(-270.000000) translate(-37.000000, -7.000000) " cx="37" cy="7" r="1"></circle>
                                <circle id="Oval-Copy-21" transform="translate(37.000000, 43.000000) rotate(-270.000000) translate(-37.000000, -43.000000) " cx="37" cy="43" r="1"></circle>
                                <circle id="Oval-Copy-22" transform="translate(37.000000, 25.000000) rotate(-270.000000) translate(-37.000000, -25.000000) " cx="37" cy="25" r="1"></circle>
                                <circle id="Oval-Copy-23" transform="translate(37.000000, 61.000000) rotate(-270.000000) translate(-37.000000, -61.000000) " cx="37" cy="61" r="1"></circle>
                                <circle id="Oval-Copy-24" transform="translate(37.000000, 67.000000) rotate(-270.000000) translate(-37.000000, -67.000000) " cx="37" cy="67" r="1"></circle>
                                <circle id="Oval-Copy-25" transform="translate(37.000000, 73.000000) rotate(-270.000000) translate(-37.000000, -73.000000) " cx="37" cy="73" r="1"></circle>
                                <circle id="Oval-Copy-13" transform="translate(1.000000, 31.000000) rotate(-270.000000) translate(-1.000000, -31.000000) " cx="1" cy="31" r="1"></circle>
                                <circle id="Oval-Copy-14" transform="translate(1.000000, 13.000000) rotate(-270.000000) translate(-1.000000, -13.000000) " cx="1" cy="13" r="1"></circle>
                                <circle id="Oval-Copy-15" transform="translate(1.000000, 49.000000) rotate(-270.000000) translate(-1.000000, -49.000000) " cx="1" cy="49" r="1"></circle>
                                <circle id="Oval-Copy-16" transform="translate(1.000000, 1.000000) rotate(-270.000000) translate(-1.000000, -1.000000) " cx="1" cy="1" r="1"></circle>
                                <circle id="Oval-Copy-17" transform="translate(1.000000, 37.000000) rotate(-270.000000) translate(-1.000000, -37.000000) " cx="1" cy="37" r="1"></circle>
                                <circle id="Oval-Copy-18" transform="translate(1.000000, 19.000000) rotate(-270.000000) translate(-1.000000, -19.000000) " cx="1" cy="19" r="1"></circle>
                                <circle id="Oval-Copy-19" transform="translate(1.000000, 55.000000) rotate(-270.000000) translate(-1.000000, -55.000000) " cx="1" cy="55" r="1"></circle>
                                <circle id="Oval-Copy-20" transform="translate(1.000000, 7.000000) rotate(-270.000000) translate(-1.000000, -7.000000) " cx="1" cy="7" r="1"></circle>
                                <circle id="Oval-Copy-21" transform="translate(1.000000, 43.000000) rotate(-270.000000) translate(-1.000000, -43.000000) " cx="1" cy="43" r="1"></circle>
                                <circle id="Oval-Copy-22" transform="translate(1.000000, 25.000000) rotate(-270.000000) translate(-1.000000, -25.000000) " cx="1" cy="25" r="1"></circle>
                                <circle id="Oval-Copy-23" transform="translate(1.000000, 61.000000) rotate(-270.000000) translate(-1.000000, -61.000000) " cx="1" cy="61" r="1"></circle>
                                <circle id="Oval-Copy-24" transform="translate(1.000000, 67.000000) rotate(-270.000000) translate(-1.000000, -67.000000) " cx="1" cy="67" r="1"></circle>
                                <circle id="Oval-Copy-25" transform="translate(1.000000, 73.000000) rotate(-270.000000) translate(-1.000000, -73.000000) " cx="1" cy="73" r="1"></circle>
                                <circle id="Oval-Copy-13" transform="translate(49.000000, 31.000000) rotate(-270.000000) translate(-49.000000, -31.000000) " cx="49" cy="31" r="1"></circle>
                                <circle id="Oval-Copy-14" transform="translate(49.000000, 13.000000) rotate(-270.000000) translate(-49.000000, -13.000000) " cx="49" cy="13" r="1"></circle>
                                <circle id="Oval-Copy-15" transform="translate(49.000000, 49.000000) rotate(-270.000000) translate(-49.000000, -49.000000) " cx="49" cy="49" r="1"></circle>
                                <circle id="Oval-Copy-16" transform="translate(49.000000, 1.000000) rotate(-270.000000) translate(-49.000000, -1.000000) " cx="49" cy="1" r="1"></circle>
                                <circle id="Oval-Copy-17" transform="translate(49.000000, 37.000000) rotate(-270.000000) translate(-49.000000, -37.000000) " cx="49" cy="37" r="1"></circle>
                                <circle id="Oval-Copy-18" transform="translate(49.000000, 19.000000) rotate(-270.000000) translate(-49.000000, -19.000000) " cx="49" cy="19" r="1"></circle>
                                <circle id="Oval-Copy-19" transform="translate(49.000000, 55.000000) rotate(-270.000000) translate(-49.000000, -55.000000) " cx="49" cy="55" r="1"></circle>
                                <circle id="Oval-Copy-20" transform="translate(49.000000, 7.000000) rotate(-270.000000) translate(-49.000000, -7.000000) " cx="49" cy="7" r="1"></circle>
                                <circle id="Oval-Copy-21" transform="translate(49.000000, 43.000000) rotate(-270.000000) translate(-49.000000, -43.000000) " cx="49" cy="43" r="1"></circle>
                                <circle id="Oval-Copy-22" transform="translate(49.000000, 25.000000) rotate(-270.000000) translate(-49.000000, -25.000000) " cx="49" cy="25" r="1"></circle>
                                <circle id="Oval-Copy-23" transform="translate(49.000000, 61.000000) rotate(-270.000000) translate(-49.000000, -61.000000) " cx="49" cy="61" r="1"></circle>
                                <circle id="Oval-Copy-24" transform="translate(49.000000, 67.000000) rotate(-270.000000) translate(-49.000000, -67.000000) " cx="49" cy="67" r="1"></circle>
                                <circle id="Oval-Copy-25" transform="translate(49.000000, 73.000000) rotate(-270.000000) translate(-49.000000, -73.000000) " cx="49" cy="73" r="1"></circle>
                                <circle id="Oval-Copy-13" transform="translate(13.000000, 31.000000) rotate(-270.000000) translate(-13.000000, -31.000000) " cx="13" cy="31" r="1"></circle>
                                <circle id="Oval-Copy-14" transform="translate(13.000000, 13.000000) rotate(-270.000000) translate(-13.000000, -13.000000) " cx="13" cy="13" r="1"></circle>
                                <circle id="Oval-Copy-15" transform="translate(13.000000, 49.000000) rotate(-270.000000) translate(-13.000000, -49.000000) " cx="13" cy="49" r="1"></circle>
                                <circle id="Oval-Copy-16" transform="translate(13.000000, 1.000000) rotate(-270.000000) translate(-13.000000, -1.000000) " cx="13" cy="1" r="1"></circle>
                                <circle id="Oval-Copy-17" transform="translate(13.000000, 37.000000) rotate(-270.000000) translate(-13.000000, -37.000000) " cx="13" cy="37" r="1"></circle>
                                <circle id="Oval-Copy-18" transform="translate(13.000000, 19.000000) rotate(-270.000000) translate(-13.000000, -19.000000) " cx="13" cy="19" r="1"></circle>
                                <circle id="Oval-Copy-19" transform="translate(13.000000, 55.000000) rotate(-270.000000) translate(-13.000000, -55.000000) " cx="13" cy="55" r="1"></circle>
                                <circle id="Oval-Copy-20" transform="translate(13.000000, 7.000000) rotate(-270.000000) translate(-13.000000, -7.000000) " cx="13" cy="7" r="1"></circle>
                                <circle id="Oval-Copy-21" transform="translate(13.000000, 43.000000) rotate(-270.000000) translate(-13.000000, -43.000000) " cx="13" cy="43" r="1"></circle>
                                <circle id="Oval-Copy-22" transform="translate(13.000000, 25.000000) rotate(-270.000000) translate(-13.000000, -25.000000) " cx="13" cy="25" r="1"></circle>
                                <circle id="Oval-Copy-23" transform="translate(13.000000, 61.000000) rotate(-270.000000) translate(-13.000000, -61.000000) " cx="13" cy="61" r="1"></circle>
                                <circle id="Oval-Copy-24" transform="translate(13.000000, 67.000000) rotate(-270.000000) translate(-13.000000, -67.000000) " cx="13" cy="67" r="1"></circle>
                                <circle id="Oval-Copy-25" transform="translate(13.000000, 73.000000) rotate(-270.000000) translate(-13.000000, -73.000000) " cx="13" cy="73" r="1"></circle>
                                <circle id="Oval-Copy-13" transform="translate(31.000000, 31.000000) rotate(-270.000000) translate(-31.000000, -31.000000) " cx="31" cy="31" r="1"></circle>
                                <circle id="Oval-Copy-14" transform="translate(31.000000, 13.000000) rotate(-270.000000) translate(-31.000000, -13.000000) " cx="31" cy="13" r="1"></circle>
                                <circle id="Oval-Copy-15" transform="translate(31.000000, 49.000000) rotate(-270.000000) translate(-31.000000, -49.000000) " cx="31" cy="49" r="1"></circle>
                                <circle id="Oval-Copy-16" transform="translate(31.000000, 1.000000) rotate(-270.000000) translate(-31.000000, -1.000000) " cx="31" cy="1" r="1"></circle>
                                <circle id="Oval-Copy-17" transform="translate(31.000000, 37.000000) rotate(-270.000000) translate(-31.000000, -37.000000) " cx="31" cy="37" r="1"></circle>
                                <circle id="Oval-Copy-18" transform="translate(31.000000, 19.000000) rotate(-270.000000) translate(-31.000000, -19.000000) " cx="31" cy="19" r="1"></circle>
                                <circle id="Oval-Copy-19" transform="translate(31.000000, 55.000000) rotate(-270.000000) translate(-31.000000, -55.000000) " cx="31" cy="55" r="1"></circle>
                                <circle id="Oval-Copy-20" transform="translate(31.000000, 7.000000) rotate(-270.000000) translate(-31.000000, -7.000000) " cx="31" cy="7" r="1"></circle>
                                <circle id="Oval-Copy-21" transform="translate(31.000000, 43.000000) rotate(-270.000000) translate(-31.000000, -43.000000) " cx="31" cy="43" r="1"></circle>
                                <circle id="Oval-Copy-22" transform="translate(31.000000, 25.000000) rotate(-270.000000) translate(-31.000000, -25.000000) " cx="31" cy="25" r="1"></circle>
                                <circle id="Oval" transform="translate(127.000000, 1.000000) rotate(-270.000000) translate(-127.000000, -1.000000) " cx="127" cy="1" r="1"></circle>
                                <circle id="Oval-Copy-12" transform="translate(127.000000, 73.000000) rotate(-270.000000) translate(-127.000000, -73.000000) " cx="127" cy="73" r="1"></circle>
                                <circle id="Oval-Copy-6" transform="translate(127.000000, 37.000000) rotate(-270.000000) translate(-127.000000, -37.000000) " cx="127" cy="37" r="1"></circle>
                                <circle id="Oval-Copy-3" transform="translate(127.000000, 19.000000) rotate(-270.000000) translate(-127.000000, -19.000000) " cx="127" cy="19" r="1"></circle>
                                <circle id="Oval-Copy-7" transform="translate(127.000000, 55.000000) rotate(-270.000000) translate(-127.000000, -55.000000) " cx="127" cy="55" r="1"></circle>
                                <circle id="Oval-Copy" transform="translate(127.000000, 7.000000) rotate(-270.000000) translate(-127.000000, -7.000000) " cx="127" cy="7" r="1"></circle>
                                <circle id="Oval-Copy-8" transform="translate(127.000000, 43.000000) rotate(-270.000000) translate(-127.000000, -43.000000) " cx="127" cy="43" r="1"></circle>
                                <circle id="Oval-Copy-4" transform="translate(127.000000, 25.000000) rotate(-270.000000) translate(-127.000000, -25.000000) " cx="127" cy="25" r="1"></circle>
                                <circle id="Oval-Copy-9" transform="translate(127.000000, 61.000000) rotate(-270.000000) translate(-127.000000, -61.000000) " cx="127" cy="61" r="1"></circle>
                                <circle id="Oval-Copy-2" transform="translate(127.000000, 13.000000) rotate(-270.000000) translate(-127.000000, -13.000000) " cx="127" cy="13" r="1"></circle>
                                <circle id="Oval-Copy-10" transform="translate(127.000000, 49.000000) rotate(-270.000000) translate(-127.000000, -49.000000) " cx="127" cy="49" r="1"></circle>
                                <circle id="Oval-Copy-5" transform="translate(127.000000, 31.000000) rotate(-270.000000) translate(-127.000000, -31.000000) " cx="127" cy="31" r="1"></circle>
                                <circle id="Oval-Copy-11" transform="translate(127.000000, 67.000000) rotate(-270.000000) translate(-127.000000, -67.000000) " cx="127" cy="67" r="1"></circle>
                                <circle id="Oval" transform="translate(91.000000, 1.000000) rotate(-270.000000) translate(-91.000000, -1.000000) " cx="91" cy="1" r="1"></circle>
                                <circle id="Oval-Copy-12" transform="translate(91.000000, 73.000000) rotate(-270.000000) translate(-91.000000, -73.000000) " cx="91" cy="73" r="1"></circle>
                                <circle id="Oval-Copy-6" transform="translate(91.000000, 37.000000) rotate(-270.000000) translate(-91.000000, -37.000000) " cx="91" cy="37" r="1"></circle>
                                <circle id="Oval-Copy-3" transform="translate(91.000000, 19.000000) rotate(-270.000000) translate(-91.000000, -19.000000) " cx="91" cy="19" r="1"></circle>
                                <circle id="Oval-Copy-7" transform="translate(91.000000, 55.000000) rotate(-270.000000) translate(-91.000000, -55.000000) " cx="91" cy="55" r="1"></circle>
                                <circle id="Oval-Copy" transform="translate(91.000000, 7.000000) rotate(-270.000000) translate(-91.000000, -7.000000) " cx="91" cy="7" r="1"></circle>
                                <circle id="Oval-Copy-8" transform="translate(91.000000, 43.000000) rotate(-270.000000) translate(-91.000000, -43.000000) " cx="91" cy="43" r="1"></circle>
                                <circle id="Oval-Copy-4" transform="translate(91.000000, 25.000000) rotate(-270.000000) translate(-91.000000, -25.000000) " cx="91" cy="25" r="1"></circle>
                                <circle id="Oval-Copy-9" transform="translate(91.000000, 61.000000) rotate(-270.000000) translate(-91.000000, -61.000000) " cx="91" cy="61" r="1"></circle>
                                <circle id="Oval-Copy-2" transform="translate(91.000000, 13.000000) rotate(-270.000000) translate(-91.000000, -13.000000) " cx="91" cy="13" r="1"></circle>
                                <circle id="Oval-Copy-10" transform="translate(91.000000, 49.000000) rotate(-270.000000) translate(-91.000000, -49.000000) " cx="91" cy="49" r="1"></circle>
                                <circle id="Oval-Copy-5" transform="translate(91.000000, 31.000000) rotate(-270.000000) translate(-91.000000, -31.000000) " cx="91" cy="31" r="1"></circle>
                                <circle id="Oval-Copy-11" transform="translate(91.000000, 67.000000) rotate(-270.000000) translate(-91.000000, -67.000000) " cx="91" cy="67" r="1"></circle>
                                <circle id="Oval" transform="translate(109.000000, 1.000000) rotate(-270.000000) translate(-109.000000, -1.000000) " cx="109" cy="1" r="1"></circle>
                                <circle id="Oval-Copy-12" transform="translate(109.000000, 73.000000) rotate(-270.000000) translate(-109.000000, -73.000000) " cx="109" cy="73" r="1"></circle>
                                <circle id="Oval-Copy-6" transform="translate(109.000000, 37.000000) rotate(-270.000000) translate(-109.000000, -37.000000) " cx="109" cy="37" r="1"></circle>
                                <circle id="Oval-Copy-3" transform="translate(109.000000, 19.000000) rotate(-270.000000) translate(-109.000000, -19.000000) " cx="109" cy="19" r="1"></circle>
                                <circle id="Oval-Copy-7" transform="translate(109.000000, 55.000000) rotate(-270.000000) translate(-109.000000, -55.000000) " cx="109" cy="55" r="1"></circle>
                                <circle id="Oval-Copy" transform="translate(109.000000, 7.000000) rotate(-270.000000) translate(-109.000000, -7.000000) " cx="109" cy="7" r="1"></circle>
                                <circle id="Oval-Copy-8" transform="translate(109.000000, 43.000000) rotate(-270.000000) translate(-109.000000, -43.000000) " cx="109" cy="43" r="1"></circle>
                                <circle id="Oval-Copy-4" transform="translate(109.000000, 25.000000) rotate(-270.000000) translate(-109.000000, -25.000000) " cx="109" cy="25" r="1"></circle>
                                <circle id="Oval-Copy-9" transform="translate(109.000000, 61.000000) rotate(-270.000000) translate(-109.000000, -61.000000) " cx="109" cy="61" r="1"></circle>
                                <circle id="Oval-Copy-2" transform="translate(109.000000, 13.000000) rotate(-270.000000) translate(-109.000000, -13.000000) " cx="109" cy="13" r="1"></circle>
                                <circle id="Oval-Copy-10" transform="translate(109.000000, 49.000000) rotate(-270.000000) translate(-109.000000, -49.000000) " cx="109" cy="49" r="1"></circle>
                                <circle id="Oval-Copy-5" transform="translate(109.000000, 31.000000) rotate(-270.000000) translate(-109.000000, -31.000000) " cx="109" cy="31" r="1"></circle>
                                <circle id="Oval-Copy-11" transform="translate(109.000000, 67.000000) rotate(-270.000000) translate(-109.000000, -67.000000) " cx="109" cy="67" r="1"></circle>
                                <circle id="Oval" transform="translate(73.000000, 1.000000) rotate(-270.000000) translate(-73.000000, -1.000000) " cx="73" cy="1" r="1"></circle>
                                <circle id="Oval-Copy-12" transform="translate(73.000000, 73.000000) rotate(-270.000000) translate(-73.000000, -73.000000) " cx="73" cy="73" r="1"></circle>
                                <circle id="Oval-Copy-6" transform="translate(73.000000, 37.000000) rotate(-270.000000) translate(-73.000000, -37.000000) " cx="73" cy="37" r="1"></circle>
                                <circle id="Oval-Copy-3" transform="translate(73.000000, 19.000000) rotate(-270.000000) translate(-73.000000, -19.000000) " cx="73" cy="19" r="1"></circle>
                                <circle id="Oval-Copy-7" transform="translate(73.000000, 55.000000) rotate(-270.000000) translate(-73.000000, -55.000000) " cx="73" cy="55" r="1"></circle>
                                <circle id="Oval-Copy" transform="translate(73.000000, 7.000000) rotate(-270.000000) translate(-73.000000, -7.000000) " cx="73" cy="7" r="1"></circle>
                                <circle id="Oval-Copy-8" transform="translate(73.000000, 43.000000) rotate(-270.000000) translate(-73.000000, -43.000000) " cx="73" cy="43" r="1"></circle>
                                <circle id="Oval-Copy-4" transform="translate(73.000000, 25.000000) rotate(-270.000000) translate(-73.000000, -25.000000) " cx="73" cy="25" r="1"></circle>
                                <circle id="Oval-Copy-9" transform="translate(73.000000, 61.000000) rotate(-270.000000) translate(-73.000000, -61.000000) " cx="73" cy="61" r="1"></circle>
                                <circle id="Oval-Copy-2" transform="translate(73.000000, 13.000000) rotate(-270.000000) translate(-73.000000, -13.000000) " cx="73" cy="13" r="1"></circle>
                                <circle id="Oval-Copy-10" transform="translate(73.000000, 49.000000) rotate(-270.000000) translate(-73.000000, -49.000000) " cx="73" cy="49" r="1"></circle>
                                <circle id="Oval-Copy-5" transform="translate(73.000000, 31.000000) rotate(-270.000000) translate(-73.000000, -31.000000) " cx="73" cy="31" r="1"></circle>
                                <circle id="Oval-Copy-11" transform="translate(73.000000, 67.000000) rotate(-270.000000) translate(-73.000000, -67.000000) " cx="73" cy="67" r="1"></circle>
                                <circle id="Oval" transform="translate(121.000000, 1.000000) rotate(-270.000000) translate(-121.000000, -1.000000) " cx="121" cy="1" r="1"></circle>
                                <circle id="Oval-Copy-12" transform="translate(121.000000, 73.000000) rotate(-270.000000) translate(-121.000000, -73.000000) " cx="121" cy="73" r="1"></circle>
                                <circle id="Oval-Copy-6" transform="translate(121.000000, 37.000000) rotate(-270.000000) translate(-121.000000, -37.000000) " cx="121" cy="37" r="1"></circle>
                                <circle id="Oval-Copy-3" transform="translate(121.000000, 19.000000) rotate(-270.000000) translate(-121.000000, -19.000000) " cx="121" cy="19" r="1"></circle>
                                <circle id="Oval-Copy-7" transform="translate(121.000000, 55.000000) rotate(-270.000000) translate(-121.000000, -55.000000) " cx="121" cy="55" r="1"></circle>
                                <circle id="Oval-Copy" transform="translate(121.000000, 7.000000) rotate(-270.000000) translate(-121.000000, -7.000000) " cx="121" cy="7" r="1"></circle>
                                <circle id="Oval-Copy-8" transform="translate(121.000000, 43.000000) rotate(-270.000000) translate(-121.000000, -43.000000) " cx="121" cy="43" r="1"></circle>
                                <circle id="Oval-Copy-4" transform="translate(121.000000, 25.000000) rotate(-270.000000) translate(-121.000000, -25.000000) " cx="121" cy="25" r="1"></circle>
                                <circle id="Oval-Copy-9" transform="translate(121.000000, 61.000000) rotate(-270.000000) translate(-121.000000, -61.000000) " cx="121" cy="61" r="1"></circle>
                                <circle id="Oval-Copy-2" transform="translate(121.000000, 13.000000) rotate(-270.000000) translate(-121.000000, -13.000000) " cx="121" cy="13" r="1"></circle>
                                <circle id="Oval-Copy-10" transform="translate(121.000000, 49.000000) rotate(-270.000000) translate(-121.000000, -49.000000) " cx="121" cy="49" r="1"></circle>
                                <circle id="Oval-Copy-5" transform="translate(121.000000, 31.000000) rotate(-270.000000) translate(-121.000000, -31.000000) " cx="121" cy="31" r="1"></circle>
                                <circle id="Oval-Copy-11" transform="translate(121.000000, 67.000000) rotate(-270.000000) translate(-121.000000, -67.000000) " cx="121" cy="67" r="1"></circle>
                                <circle id="Oval" transform="translate(85.000000, 1.000000) rotate(-270.000000) translate(-85.000000, -1.000000) " cx="85" cy="1" r="1"></circle>
                                <circle id="Oval-Copy-12" transform="translate(85.000000, 73.000000) rotate(-270.000000) translate(-85.000000, -73.000000) " cx="85" cy="73" r="1"></circle>
                                <circle id="Oval-Copy-6" transform="translate(85.000000, 37.000000) rotate(-270.000000) translate(-85.000000, -37.000000) " cx="85" cy="37" r="1"></circle>
                                <circle id="Oval-Copy-3" transform="translate(85.000000, 19.000000) rotate(-270.000000) translate(-85.000000, -19.000000) " cx="85" cy="19" r="1"></circle>
                                <circle id="Oval-Copy-7" transform="translate(85.000000, 55.000000) rotate(-270.000000) translate(-85.000000, -55.000000) " cx="85" cy="55" r="1"></circle>
                                <circle id="Oval-Copy" transform="translate(85.000000, 7.000000) rotate(-270.000000) translate(-85.000000, -7.000000) " cx="85" cy="7" r="1"></circle>
                                <circle id="Oval-Copy-8" transform="translate(85.000000, 43.000000) rotate(-270.000000) translate(-85.000000, -43.000000) " cx="85" cy="43" r="1"></circle>
                                <circle id="Oval-Copy-4" transform="translate(85.000000, 25.000000) rotate(-270.000000) translate(-85.000000, -25.000000) " cx="85" cy="25" r="1"></circle>
                                <circle id="Oval-Copy-9" transform="translate(85.000000, 61.000000) rotate(-270.000000) translate(-85.000000, -61.000000) " cx="85" cy="61" r="1"></circle>
                                <circle id="Oval-Copy-2" transform="translate(85.000000, 13.000000) rotate(-270.000000) translate(-85.000000, -13.000000) " cx="85" cy="13" r="1"></circle>
                                <circle id="Oval-Copy-10" transform="translate(85.000000, 49.000000) rotate(-270.000000) translate(-85.000000, -49.000000) " cx="85" cy="49" r="1"></circle>
                                <circle id="Oval-Copy-5" transform="translate(85.000000, 31.000000) rotate(-270.000000) translate(-85.000000, -31.000000) " cx="85" cy="31" r="1"></circle>
                                <circle id="Oval-Copy-11" transform="translate(85.000000, 67.000000) rotate(-270.000000) translate(-85.000000, -67.000000) " cx="85" cy="67" r="1"></circle>
                                <circle id="Oval" transform="translate(103.000000, 1.000000) rotate(-270.000000) translate(-103.000000, -1.000000) " cx="103" cy="1" r="1"></circle>
                                <circle id="Oval-Copy-12" transform="translate(103.000000, 73.000000) rotate(-270.000000) translate(-103.000000, -73.000000) " cx="103" cy="73" r="1"></circle>
                                <circle id="Oval-Copy-6" transform="translate(103.000000, 37.000000) rotate(-270.000000) translate(-103.000000, -37.000000) " cx="103" cy="37" r="1"></circle>
                                <circle id="Oval-Copy-3" transform="translate(103.000000, 19.000000) rotate(-270.000000) translate(-103.000000, -19.000000) " cx="103" cy="19" r="1"></circle>
                                <circle id="Oval-Copy-7" transform="translate(103.000000, 55.000000) rotate(-270.000000) translate(-103.000000, -55.000000) " cx="103" cy="55" r="1"></circle>
                                <circle id="Oval-Copy" transform="translate(103.000000, 7.000000) rotate(-270.000000) translate(-103.000000, -7.000000) " cx="103" cy="7" r="1"></circle>
                                <circle id="Oval-Copy-8" transform="translate(103.000000, 43.000000) rotate(-270.000000) translate(-103.000000, -43.000000) " cx="103" cy="43" r="1"></circle>
                                <circle id="Oval-Copy-4" transform="translate(103.000000, 25.000000) rotate(-270.000000) translate(-103.000000, -25.000000) " cx="103" cy="25" r="1"></circle>
                                <circle id="Oval-Copy-9" transform="translate(103.000000, 61.000000) rotate(-270.000000) translate(-103.000000, -61.000000) " cx="103" cy="61" r="1"></circle>
                                <circle id="Oval-Copy-2" transform="translate(103.000000, 13.000000) rotate(-270.000000) translate(-103.000000, -13.000000) " cx="103" cy="13" r="1"></circle>
                                <circle id="Oval-Copy-10" transform="translate(103.000000, 49.000000) rotate(-270.000000) translate(-103.000000, -49.000000) " cx="103" cy="49" r="1"></circle>
                                <circle id="Oval-Copy-5" transform="translate(103.000000, 31.000000) rotate(-270.000000) translate(-103.000000, -31.000000) " cx="103" cy="31" r="1"></circle>
                                <circle id="Oval-Copy-11" transform="translate(103.000000, 67.000000) rotate(-270.000000) translate(-103.000000, -67.000000) " cx="103" cy="67" r="1"></circle>
                                <circle id="Oval" transform="translate(67.000000, 1.000000) rotate(-270.000000) translate(-67.000000, -1.000000) " cx="67" cy="1" r="1"></circle>
                                <circle id="Oval-Copy-12" transform="translate(67.000000, 73.000000) rotate(-270.000000) translate(-67.000000, -73.000000) " cx="67" cy="73" r="1"></circle>
                                <circle id="Oval-Copy-6" transform="translate(67.000000, 37.000000) rotate(-270.000000) translate(-67.000000, -37.000000) " cx="67" cy="37" r="1"></circle>
                                <circle id="Oval-Copy-3" transform="translate(67.000000, 19.000000) rotate(-270.000000) translate(-67.000000, -19.000000) " cx="67" cy="19" r="1"></circle>
                                <circle id="Oval-Copy-7" transform="translate(67.000000, 55.000000) rotate(-270.000000) translate(-67.000000, -55.000000) " cx="67" cy="55" r="1"></circle>
                                <circle id="Oval-Copy" transform="translate(67.000000, 7.000000) rotate(-270.000000) translate(-67.000000, -7.000000) " cx="67" cy="7" r="1"></circle>
                                <circle id="Oval-Copy-8" transform="translate(67.000000, 43.000000) rotate(-270.000000) translate(-67.000000, -43.000000) " cx="67" cy="43" r="1"></circle>
                                <circle id="Oval-Copy-4" transform="translate(67.000000, 25.000000) rotate(-270.000000) translate(-67.000000, -25.000000) " cx="67" cy="25" r="1"></circle>
                                <circle id="Oval-Copy-9" transform="translate(67.000000, 61.000000) rotate(-270.000000) translate(-67.000000, -61.000000) " cx="67" cy="61" r="1"></circle>
                                <circle id="Oval-Copy-2" transform="translate(67.000000, 13.000000) rotate(-270.000000) translate(-67.000000, -13.000000) " cx="67" cy="13" r="1"></circle>
                                <circle id="Oval-Copy-10" transform="translate(67.000000, 49.000000) rotate(-270.000000) translate(-67.000000, -49.000000) " cx="67" cy="49" r="1"></circle>
                                <circle id="Oval-Copy-5" transform="translate(67.000000, 31.000000) rotate(-270.000000) translate(-67.000000, -31.000000) " cx="67" cy="31" r="1"></circle>
                                <circle id="Oval-Copy-11" transform="translate(67.000000, 67.000000) rotate(-270.000000) translate(-67.000000, -67.000000) " cx="67" cy="67" r="1"></circle>
                                <circle id="Oval" transform="translate(115.000000, 1.000000) rotate(-270.000000) translate(-115.000000, -1.000000) " cx="115" cy="1" r="1"></circle>
                                <circle id="Oval-Copy-12" transform="translate(115.000000, 73.000000) rotate(-270.000000) translate(-115.000000, -73.000000) " cx="115" cy="73" r="1"></circle>
                                <circle id="Oval-Copy-6" transform="translate(115.000000, 37.000000) rotate(-270.000000) translate(-115.000000, -37.000000) " cx="115" cy="37" r="1"></circle>
                                <circle id="Oval-Copy-3" transform="translate(115.000000, 19.000000) rotate(-270.000000) translate(-115.000000, -19.000000) " cx="115" cy="19" r="1"></circle>
                                <circle id="Oval-Copy-7" transform="translate(115.000000, 55.000000) rotate(-270.000000) translate(-115.000000, -55.000000) " cx="115" cy="55" r="1"></circle>
                                <circle id="Oval-Copy" transform="translate(115.000000, 7.000000) rotate(-270.000000) translate(-115.000000, -7.000000) " cx="115" cy="7" r="1"></circle>
                                <circle id="Oval-Copy-8" transform="translate(115.000000, 43.000000) rotate(-270.000000) translate(-115.000000, -43.000000) " cx="115" cy="43" r="1"></circle>
                                <circle id="Oval-Copy-4" transform="translate(115.000000, 25.000000) rotate(-270.000000) translate(-115.000000, -25.000000) " cx="115" cy="25" r="1"></circle>
                                <circle id="Oval-Copy-9" transform="translate(115.000000, 61.000000) rotate(-270.000000) translate(-115.000000, -61.000000) " cx="115" cy="61" r="1"></circle>
                                <circle id="Oval-Copy-2" transform="translate(115.000000, 13.000000) rotate(-270.000000) translate(-115.000000, -13.000000) " cx="115" cy="13" r="1"></circle>
                                <circle id="Oval-Copy-10" transform="translate(115.000000, 49.000000) rotate(-270.000000) translate(-115.000000, -49.000000) " cx="115" cy="49" r="1"></circle>
                                <circle id="Oval-Copy-5" transform="translate(115.000000, 31.000000) rotate(-270.000000) translate(-115.000000, -31.000000) " cx="115" cy="31" r="1"></circle>
                                <circle id="Oval-Copy-11" transform="translate(115.000000, 67.000000) rotate(-270.000000) translate(-115.000000, -67.000000) " cx="115" cy="67" r="1"></circle>
                                <circle id="Oval" transform="translate(79.000000, 1.000000) rotate(-270.000000) translate(-79.000000, -1.000000) " cx="79" cy="1" r="1"></circle>
                                <circle id="Oval-Copy-12" transform="translate(79.000000, 73.000000) rotate(-270.000000) translate(-79.000000, -73.000000) " cx="79" cy="73" r="1"></circle>
                                <circle id="Oval-Copy-6" transform="translate(79.000000, 37.000000) rotate(-270.000000) translate(-79.000000, -37.000000) " cx="79" cy="37" r="1"></circle>
                                <circle id="Oval-Copy-3" transform="translate(79.000000, 19.000000) rotate(-270.000000) translate(-79.000000, -19.000000) " cx="79" cy="19" r="1"></circle>
                                <circle id="Oval-Copy-7" transform="translate(79.000000, 55.000000) rotate(-270.000000) translate(-79.000000, -55.000000) " cx="79" cy="55" r="1"></circle>
                                <circle id="Oval-Copy" transform="translate(79.000000, 7.000000) rotate(-270.000000) translate(-79.000000, -7.000000) " cx="79" cy="7" r="1"></circle>
                                <circle id="Oval-Copy-8" transform="translate(79.000000, 43.000000) rotate(-270.000000) translate(-79.000000, -43.000000) " cx="79" cy="43" r="1"></circle>
                                <circle id="Oval-Copy-4" transform="translate(79.000000, 25.000000) rotate(-270.000000) translate(-79.000000, -25.000000) " cx="79" cy="25" r="1"></circle>
                                <circle id="Oval-Copy-9" transform="translate(79.000000, 61.000000) rotate(-270.000000) translate(-79.000000, -61.000000) " cx="79" cy="61" r="1"></circle>
                                <circle id="Oval-Copy-2" transform="translate(79.000000, 13.000000) rotate(-270.000000) translate(-79.000000, -13.000000) " cx="79" cy="13" r="1"></circle>
                                <circle id="Oval-Copy-10" transform="translate(79.000000, 49.000000) rotate(-270.000000) translate(-79.000000, -49.000000) " cx="79" cy="49" r="1"></circle>
                                <circle id="Oval-Copy-5" transform="translate(79.000000, 31.000000) rotate(-270.000000) translate(-79.000000, -31.000000) " cx="79" cy="31" r="1"></circle>
                                <circle id="Oval-Copy-11" transform="translate(79.000000, 67.000000) rotate(-270.000000) translate(-79.000000, -67.000000) " cx="79" cy="67" r="1"></circle>
                                <circle id="Oval" transform="translate(97.000000, 1.000000) rotate(-270.000000) translate(-97.000000, -1.000000) " cx="97" cy="1" r="1"></circle>
                                <circle id="Oval-Copy-12" transform="translate(97.000000, 73.000000) rotate(-270.000000) translate(-97.000000, -73.000000) " cx="97" cy="73" r="1"></circle>
                                <circle id="Oval-Copy-6" transform="translate(97.000000, 37.000000) rotate(-270.000000) translate(-97.000000, -37.000000) " cx="97" cy="37" r="1"></circle>
                                <circle id="Oval-Copy-3" transform="translate(97.000000, 19.000000) rotate(-270.000000) translate(-97.000000, -19.000000) " cx="97" cy="19" r="1"></circle>
                                <circle id="Oval-Copy-7" transform="translate(97.000000, 55.000000) rotate(-270.000000) translate(-97.000000, -55.000000) " cx="97" cy="55" r="1"></circle>
                                <circle id="Oval-Copy" transform="translate(97.000000, 7.000000) rotate(-270.000000) translate(-97.000000, -7.000000) " cx="97" cy="7" r="1"></circle>
                                <circle id="Oval-Copy-8" transform="translate(97.000000, 43.000000) rotate(-270.000000) translate(-97.000000, -43.000000) " cx="97" cy="43" r="1"></circle>
                                <circle id="Oval-Copy-4" transform="translate(97.000000, 25.000000) rotate(-270.000000) translate(-97.000000, -25.000000) " cx="97" cy="25" r="1"></circle>
                                <circle id="Oval-Copy-9" transform="translate(97.000000, 61.000000) rotate(-270.000000) translate(-97.000000, -61.000000) " cx="97" cy="61" r="1"></circle>
                                <circle id="Oval-Copy-2" transform="translate(97.000000, 13.000000) rotate(-270.000000) translate(-97.000000, -13.000000) " cx="97" cy="13" r="1"></circle>
                                <circle id="Oval-Copy-10" transform="translate(97.000000, 49.000000) rotate(-270.000000) translate(-97.000000, -49.000000) " cx="97" cy="49" r="1"></circle>
                                <circle id="Oval-Copy-5" transform="translate(97.000000, 31.000000) rotate(-270.000000) translate(-97.000000, -31.000000) " cx="97" cy="31" r="1"></circle>
                                <circle id="Oval-Copy-11" transform="translate(97.000000, 67.000000) rotate(-270.000000) translate(-97.000000, -67.000000) " cx="97" cy="67" r="1"></circle>
                                <circle id="Oval-Copy-23" transform="translate(31.000000, 61.000000) rotate(-270.000000) translate(-31.000000, -61.000000) " cx="31" cy="61" r="1"></circle>
                                <circle id="Oval-Copy-24" transform="translate(31.000000, 67.000000) rotate(-270.000000) translate(-31.000000, -67.000000) " cx="31" cy="67" r="1"></circle>
                                <circle id="Oval-Copy-25" transform="translate(31.000000, 73.000000) rotate(-270.000000) translate(-31.000000, -73.000000) " cx="31" cy="73" r="1"></circle>
                            </g>
                            <path d="M19.80886,60.5 C70.1640288,60.5 70.2738314,60.5 91,60.5 C103.978692,60.5 114.5,49.9786916 114.5,37 C114.5,24.0213084 103.978692,13.5 91,13.5 C74.2175444,13.5 74.1618932,13.5 43.2986614,13.5 L19.80886,60.5 Z" id="Oval-2" stroke="#FD5750"></path>
                            <path d="M61.1666667,54.5 C79.37269,54.5 79.4078491,54.5 91,54.5 C100.664983,54.5 108.5,46.6649831 108.5,37 C108.5,27.3350169 100.664983,19.5 91,19.5 C83.6078644,19.5 83.6078644,19.5 66.5294373,19.5 C44.9602516,19.5 44.613529,19.5 14.5,19.5 L61.1666667,54.5 Z" id="Oval-2" stroke="#FD5750"></path>
                            <path d="M38,48.5 C58.9921779,48.5 59.2225347,48.5 74.1862915,48.5 C85.9885763,48.5 85.9885763,48.5 91,48.5 C97.3512746,48.5 102.5,43.3512746 102.5,37 C102.5,30.6487254 97.3512746,25.5 91,25.5 C80.615771,25.5 80.5818333,25.5 55.25,25.5 L38,48.5 Z" id="Oval-2" stroke="#FD5750"></path>
                            <path d="M49.1513878,42.5 C66.8693842,42.5 66.903198,42.5 78.8431458,42.5 C83.7246813,42.5 83.7246813,42.5 87.1323593,42.5 C89.8031085,42.5 89.8031085,42.5 91,42.5 C94.0375661,42.5 96.5,40.0375661 96.5,37 C96.5,33.9624339 94.0375661,31.5 91,31.5 C89.6156085,31.5 89.6156085,31.5 86.0073593,31.5 C81.2871813,31.5 81.2871813,31.5 74.3431458,31.5 C57.4901711,31.5 57.1272744,31.5 32.6513878,31.5 L49.1513878,42.5 Z" id="Oval-2" stroke="#FD5750"></path>
                        </g>
                    </g>
                </g>
            </g>
        </g>
    </g>
</svg>