<?xml version="1.0" encoding="UTF-8"?>
<svg width="128px" height="74px" viewBox="0 0 128 74" version="1.1" xmlns="http://www.w3.org/2000/svg" xmlns:xlink="http://www.w3.org/1999/xlink">
    <!-- Generator: Sketch 50.2 (55047) - http://www.bohemiancoding.com/sketch -->
    <title>Icon</title>
    <desc>Created with Sketch.</desc>
    <defs></defs>
    <g id="Page-Designs" stroke="none" stroke-width="1" fill="none" fill-rule="evenodd">
        <g id="learn_overview" transform="translate(-192.000000, -5591.000000)">
            <g id="Serverless-Framework" transform="translate(143.000000, 4198.000000)">
                <g id="Benefits" transform="translate(0.000000, 852.000000)">
                    <g id="Infrastructure" transform="translate(0.000000, 541.000000)">
                        <g id="Icon" transform="translate(49.000000, 0.000000)">
                            <g id="Group-4-Copy-2" fill="#DFE5E6">
                                <circle id="Oval-Copy-13" transform="translate(61.000000, 31.000000) rotate(-270.000000) translate(-61.000000, -31.000000) " cx="61" cy="31" r="1"></circle>
                                <circle id="Oval-Copy-14" transform="translate(61.000000, 13.000000) rotate(-270.000000) translate(-61.000000, -13.000000) " cx="61" cy="13" r="1"></circle>
                                <circle id="Oval-Copy-15" transform="translate(61.000000, 49.000000) rotate(-270.000000) translate(-61.000000, -49.000000) " cx="61" cy="49" r="1"></circle>
                                <circle id="Oval-Copy-16" transform="translate(61.000000, 1.000000) rotate(-270.000000) translate(-61.000000, -1.000000) " cx="61" cy="1" r="1"></circle>
                                <circle id="Oval-Copy-17" transform="translate(61.000000, 37.000000) rotate(-270.000000) translate(-61.000000, -37.000000) " cx="61" cy="37" r="1"></circle>
                                <circle id="Oval-Copy-18" transform="translate(61.000000, 19.000000) rotate(-270.000000) translate(-61.000000, -19.000000) " cx="61" cy="19" r="1"></circle>
                                <circle id="Oval-Copy-19" transform="translate(61.000000, 55.000000) rotate(-270.000000) translate(-61.000000, -55.000000) " cx="61" cy="55" r="1"></circle>
                                <circle id="Oval-Copy-20" transform="translate(61.000000, 7.000000) rotate(-270.000000) translate(-61.000000, -7.000000) " cx="61" cy="7" r="1"></circle>
                                <circle id="Oval-Copy-21" transform="translate(61.000000, 43.000000) rotate(-270.000000) translate(-61.000000, -43.000000) " cx="61" cy="43" r="1"></circle>
                                <circle id="Oval-Copy-22" transform="translate(61.000000, 25.000000) rotate(-270.000000) translate(-61.000000, -25.000000) " cx="61" cy="25" r="1"></circle>
                                <circle id="Oval-Copy-23" transform="translate(61.000000, 61.000000) rotate(-270.000000) translate(-61.000000, -61.000000) " cx="61" cy="61" r="1"></circle>
                                <circle id="Oval-Copy-24" transform="translate(61.000000, 67.000000) rotate(-270.000000) translate(-61.000000, -67.000000) " cx="61" cy="67" r="1"></circle>
                                <circle id="Oval-Copy-25" transform="translate(61.000000, 73.000000) rotate(-270.000000) translate(-61.000000, -73.000000) " cx="61" cy="73" r="1"></circle>
                                <circle id="Oval-Copy-13" transform="translate(25.000000, 31.000000) rotate(-270.000000) translate(-25.000000, -31.000000) " cx="25" cy="31" r="1"></circle>
                                <circle id="Oval-Copy-14" transform="translate(25.000000, 13.000000) rotate(-270.000000) translate(-25.000000, -13.000000) " cx="25" cy="13" r="1"></circle>
                                <circle id="Oval-Copy-15" transform="translate(25.000000, 49.000000) rotate(-270.000000) translate(-25.000000, -49.000000) " cx="25" cy="49" r="1"></circle>
                                <circle id="Oval-Copy-16" transform="translate(25.000000, 1.000000) rotate(-270.000000) translate(-25.000000, -1.000000) " cx="25" cy="1" r="1"></circle>
                                <circle id="Oval-Copy-17" transform="translate(25.000000, 37.000000) rotate(-270.000000) translate(-25.000000, -37.000000) " cx="25" cy="37" r="1"></circle>
                                <circle id="Oval-Copy-18" transform="translate(25.000000, 19.000000) rotate(-270.000000) translate(-25.000000, -19.000000) " cx="25" cy="19" r="1"></circle>
                                <circle id="Oval-Copy-19" transform="translate(25.000000, 55.000000) rotate(-270.000000) translate(-25.000000, -55.000000) " cx="25" cy="55" r="1"></circle>
                                <circle id="Oval-Copy-20" transform="translate(25.000000, 7.000000) rotate(-270.000000) translate(-25.000000, -7.000000) " cx="25" cy="7" r="1"></circle>
                                <circle id="Oval-Copy-21" transform="translate(25.000000, 43.000000) rotate(-270.000000) translate(-25.000000, -43.000000) " cx="25" cy="43" r="1"></circle>
                                <circle id="Oval-Copy-22" transform="translate(25.000000, 25.000000) rotate(-270.000000) translate(-25.000000, -25.000000) " cx="25" cy="25" r="1"></circle>
                                <circle id="Oval-Copy-23" transform="translate(25.000000, 61.000000) rotate(-270.000000) translate(-25.000000, -61.000000) " cx="25" cy="61" r="1"></circle>
                                <circle id="Oval-Copy-24" transform="translate(25.000000, 67.000000) rotate(-270.000000) translate(-25.000000, -67.000000) " cx="25" cy="67" r="1"></circle>
                                <circle id="Oval-Copy-25" transform="translate(25.000000, 73.000000) rotate(-270.000000) translate(-25.000000, -73.000000) " cx="25" cy="73" r="1"></circle>
                                <circle id="Oval-Copy-13" transform="translate(43.000000, 31.000000) rotate(-270.000000) translate(-43.000000, -31.000000) " cx="43" cy="31" r="1"></circle>
                                <circle id="Oval-Copy-14" transform="translate(43.000000, 13.000000) rotate(-270.000000) translate(-43.000000, -13.000000) " cx="43" cy="13" r="1"></circle>
                                <circle id="Oval-Copy-15" transform="translate(43.000000, 49.000000) rotate(-270.000000) translate(-43.000000, -49.000000) " cx="43" cy="49" r="1"></circle>
                                <circle id="Oval-Copy-16" transform="translate(43.000000, 1.000000) rotate(-270.000000) translate(-43.000000, -1.000000) " cx="43" cy="1" r="1"></circle>
                                <circle id="Oval-Copy-17" transform="translate(43.000000, 37.000000) rotate(-270.000000) translate(-43.000000, -37.000000) " cx="43" cy="37" r="1"></circle>
                                <circle id="Oval-Copy-18" transform="translate(43.000000, 19.000000) rotate(-270.000000) translate(-43.000000, -19.000000) " cx="43" cy="19" r="1"></circle>
                                <circle id="Oval-Copy-19" transform="translate(43.000000, 55.000000) rotate(-270.000000) translate(-43.000000, -55.000000) " cx="43" cy="55" r="1"></circle>
                                <circle id="Oval-Copy-20" transform="translate(43.000000, 7.000000) rotate(-270.000000) translate(-43.000000, -7.000000) " cx="43" cy="7" r="1"></circle>
                                <circle id="Oval-Copy-21" transform="translate(43.000000, 43.000000) rotate(-270.000000) translate(-43.000000, -43.000000) " cx="43" cy="43" r="1"></circle>
                                <circle id="Oval-Copy-22" transform="translate(43.000000, 25.000000) rotate(-270.000000) translate(-43.000000, -25.000000) " cx="43" cy="25" r="1"></circle>
                                <circle id="Oval-Copy-23" transform="translate(43.000000, 61.000000) rotate(-270.000000) translate(-43.000000, -61.000000) " cx="43" cy="61" r="1"></circle>
                                <circle id="Oval-Copy-24" transform="translate(43.000000, 67.000000) rotate(-270.000000) translate(-43.000000, -67.000000) " cx="43" cy="67" r="1"></circle>
                                <circle id="Oval-Copy-25" transform="translate(43.000000, 73.000000) rotate(-270.000000) translate(-43.000000, -73.000000) " cx="43" cy="73" r="1"></circle>
                                <circle id="Oval-Copy-13" transform="translate(7.000000, 31.000000) rotate(-270.000000) translate(-7.000000, -31.000000) " cx="7" cy="31" r="1"></circle>
                                <circle id="Oval-Copy-14" transform="translate(7.000000, 13.000000) rotate(-270.000000) translate(-7.000000, -13.000000) " cx="7" cy="13" r="1"></circle>
                                <circle id="Oval-Copy-15" transform="translate(7.000000, 49.000000) rotate(-270.000000) translate(-7.000000, -49.000000) " cx="7" cy="49" r="1"></circle>
                                <circle id="Oval-Copy-16" transform="translate(7.000000, 1.000000) rotate(-270.000000) translate(-7.000000, -1.000000) " cx="7" cy="1" r="1"></circle>
                                <circle id="Oval-Copy-17" transform="translate(7.000000, 37.000000) rotate(-270.000000) translate(-7.000000, -37.000000) " cx="7" cy="37" r="1"></circle>
                                <circle id="Oval-Copy-18" transform="translate(7.000000, 19.000000) rotate(-270.000000) translate(-7.000000, -19.000000) " cx="7" cy="19" r="1"></circle>
                                <circle id="Oval-Copy-19" transform="translate(7.000000, 55.000000) rotate(-270.000000) translate(-7.000000, -55.000000) " cx="7" cy="55" r="1"></circle>
                                <circle id="Oval-Copy-20" transform="translate(7.000000, 7.000000) rotate(-270.000000) translate(-7.000000, -7.000000) " cx="7" cy="7" r="1"></circle>
                                <circle id="Oval-Copy-21" transform="translate(7.000000, 43.000000) rotate(-270.000000) translate(-7.000000, -43.000000) " cx="7" cy="43" r="1"></circle>
                                <circle id="Oval-Copy-22" transform="translate(7.000000, 25.000000) rotate(-270.000000) translate(-7.000000, -25.000000) " cx="7" cy="25" r="1"></circle>
                                <circle id="Oval-Copy-23" transform="translate(7.000000, 61.000000) rotate(-270.000000) translate(-7.000000, -61.000000) " cx="7" cy="61" r="1"></circle>
                                <circle id="Oval-Copy-24" transform="translate(7.000000, 67.000000) rotate(-270.000000) translate(-7.000000, -67.000000) " cx="7" cy="67" r="1"></circle>
                                <circle id="Oval-Copy-25" transform="translate(7.000000, 73.000000) rotate(-270.000000) translate(-7.000000, -73.000000) " cx="7" cy="73" r="1"></circle>
                                <circle id="Oval-Copy-13" transform="translate(55.000000, 31.000000) rotate(-270.000000) translate(-55.000000, -31.000000) " cx="55" cy="31" r="1"></circle>
                                <circle id="Oval-Copy-14" transform="translate(55.000000, 13.000000) rotate(-270.000000) translate(-55.000000, -13.000000) " cx="55" cy="13" r="1"></circle>
                                <circle id="Oval-Copy-15" transform="translate(55.000000, 49.000000) rotate(-270.000000) translate(-55.000000, -49.000000) " cx="55" cy="49" r="1"></circle>
                                <circle id="Oval-Copy-16" transform="translate(55.000000, 1.000000) rotate(-270.000000) translate(-55.000000, -1.000000) " cx="55" cy="1" r="1"></circle>
                                <circle id="Oval-Copy-17" transform="translate(55.000000, 37.000000) rotate(-270.000000) translate(-55.000000, -37.000000) " cx="55" cy="37" r="1"></circle>
                                <circle id="Oval-Copy-18" transform="translate(55.000000, 19.000000) rotate(-270.000000) translate(-55.000000, -19.000000) " cx="55" cy="19" r="1"></circle>
                                <circle id="Oval-Copy-19" transform="translate(55.000000, 55.000000) rotate(-270.000000) translate(-55.000000, -55.000000) " cx="55" cy="55" r="1"></circle>
                                <circle id="Oval-Copy-20" transform="translate(55.000000, 7.000000) rotate(-270.000000) translate(-55.000000, -7.000000) " cx="55" cy="7" r="1"></circle>
                                <circle id="Oval-Copy-21" transform="translate(55.000000, 43.000000) rotate(-270.000000) translate(-55.000000, -43.000000) " cx="55" cy="43" r="1"></circle>
                                <circle id="Oval-Copy-22" transform="translate(55.000000, 25.000000) rotate(-270.000000) translate(-55.000000, -25.000000) " cx="55" cy="25" r="1"></circle>
                                <circle id="Oval-Copy-23" transform="translate(55.000000, 61.000000) rotate(-270.000000) translate(-55.000000, -61.000000) " cx="55" cy="61" r="1"></circle>
                                <circle id="Oval-Copy-24" transform="translate(55.000000, 67.000000) rotate(-270.000000) translate(-55.000000, -67.000000) " cx="55" cy="67" r="1"></circle>
                                <circle id="Oval-Copy-25" transform="translate(55.000000, 73.000000) rotate(-270.000000) translate(-55.000000, -73.000000) " cx="55" cy="73" r="1"></circle>
                                <circle id="Oval-Copy-13" transform="translate(19.000000, 31.000000) rotate(-270.000000) translate(-19.000000, -31.000000) " cx="19" cy="31" r="1"></circle>
                                <circle id="Oval-Copy-14" transform="translate(19.000000, 13.000000) rotate(-270.000000) translate(-19.000000, -13.000000) " cx="19" cy="13" r="1"></circle>
                                <circle id="Oval-Copy-15" transform="translate(19.000000, 49.000000) rotate(-270.000000) translate(-19.000000, -49.000000) " cx="19" cy="49" r="1"></circle>
                                <circle id="Oval-Copy-16" transform="translate(19.000000, 1.000000) rotate(-270.000000) translate(-19.000000, -1.000000) " cx="19" cy="1" r="1"></circle>
                                <circle id="Oval-Copy-17" transform="translate(19.000000, 37.000000) rotate(-270.000000) translate(-19.000000, -37.000000) " cx="19" cy="37" r="1"></circle>
                                <circle id="Oval-Copy-18" transform="translate(19.000000, 19.000000) rotate(-270.000000) translate(-19.000000, -19.000000) " cx="19" cy="19" r="1"></circle>
                                <circle id="Oval-Copy-19" transform="translate(19.000000, 55.000000) rotate(-270.000000) translate(-19.000000, -55.000000) " cx="19" cy="55" r="1"></circle>
                                <circle id="Oval-Copy-20" transform="translate(19.000000, 7.000000) rotate(-270.000000) translate(-19.000000, -7.000000) " cx="19" cy="7" r="1"></circle>
                                <circle id="Oval-Copy-21" transform="translate(19.000000, 43.000000) rotate(-270.000000) translate(-19.000000, -43.000000) " cx="19" cy="43" r="1"></circle>
                                <circle id="Oval-Copy-22" transform="translate(19.000000, 25.000000) rotate(-270.000000) translate(-19.000000, -25.000000) " cx="19" cy="25" r="1"></circle>
                                <circle id="Oval-Copy-23" transform="translate(19.000000, 61.000000) rotate(-270.000000) translate(-19.000000, -61.000000) " cx="19" cy="61" r="1"></circle>
                                <circle id="Oval-Copy-24" transform="translate(19.000000, 67.000000) rotate(-270.000000) translate(-19.000000, -67.000000) " cx="19" cy="67" r="1"></circle>
                                <circle id="Oval-Copy-25" transform="translate(19.000000, 73.000000) rotate(-270.000000) translate(-19.000000, -73.000000) " cx="19" cy="73" r="1"></circle>
                                <circle id="Oval-Copy-13" transform="translate(37.000000, 31.000000) rotate(-270.000000) translate(-37.000000, -31.000000) " cx="37" cy="31" r="1"></circle>
                                <circle id="Oval-Copy-14" transform="translate(37.000000, 13.000000) rotate(-270.000000) translate(-37.000000, -13.000000) " cx="37" cy="13" r="1"></circle>
                                <circle id="Oval-Copy-15" transform="translate(37.000000, 49.000000) rotate(-270.000000) translate(-37.000000, -49.000000) " cx="37" cy="49" r="1"></circle>
                                <circle id="Oval-Copy-16" transform="translate(37.000000, 1.000000) rotate(-270.000000) translate(-37.000000, -1.000000) " cx="37" cy="1" r="1"></circle>
                                <circle id="Oval-Copy-17" transform="translate(37.000000, 37.000000) rotate(-270.000000) translate(-37.000000, -37.000000) " cx="37" cy="37" r="1"></circle>
                                <circle id="Oval-Copy-18" transform="translate(37.000000, 19.000000) rotate(-270.000000) translate(-37.000000, -19.000000) " cx="37" cy="19" r="1"></circle>
                                <circle id="Oval-Copy-19" transform="translate(37.000000, 55.000000) rotate(-270.000000) translate(-37.000000, -55.000000) " cx="37" cy="55" r="1"></circle>
                                <circle id="Oval-Copy-20" transform="translate(37.000000, 7.000000) rotate(-270.000000) translate(-37.000000, -7.000000) " cx="37" cy="7" r="1"></circle>
                                <circle id="Oval-Copy-21" transform="translate(37.000000, 43.000000) rotate(-270.000000) translate(-37.000000, -43.000000) " cx="37" cy="43" r="1"></circle>
                                <circle id="Oval-Copy-22" transform="translate(37.000000, 25.000000) rotate(-270.000000) translate(-37.000000, -25.000000) " cx="37" cy="25" r="1"></circle>
                                <circle id="Oval-Copy-23" transform="translate(37.000000, 61.000000) rotate(-270.000000) translate(-37.000000, -61.000000) " cx="37" cy="61" r="1"></circle>
                                <circle id="Oval-Copy-24" transform="translate(37.000000, 67.000000) rotate(-270.000000) translate(-37.000000, -67.000000) " cx="37" cy="67" r="1"></circle>
                                <circle id="Oval-Copy-25" transform="translate(37.000000, 73.000000) rotate(-270.000000) translate(-37.000000, -73.000000) " cx="37" cy="73" r="1"></circle>
                                <circle id="Oval-Copy-13" transform="translate(1.000000, 31.000000) rotate(-270.000000) translate(-1.000000, -31.000000) " cx="1" cy="31" r="1"></circle>
                                <circle id="Oval-Copy-14" transform="translate(1.000000, 13.000000) rotate(-270.000000) translate(-1.000000, -13.000000) " cx="1" cy="13" r="1"></circle>
                                <circle id="Oval-Copy-15" transform="translate(1.000000, 49.000000) rotate(-270.000000) translate(-1.000000, -49.000000) " cx="1" cy="49" r="1"></circle>
                                <circle id="Oval-Copy-16" transform="translate(1.000000, 1.000000) rotate(-270.000000) translate(-1.000000, -1.000000) " cx="1" cy="1" r="1"></circle>
                                <circle id="Oval-Copy-17" transform="translate(1.000000, 37.000000) rotate(-270.000000) translate(-1.000000, -37.000000) " cx="1" cy="37" r="1"></circle>
                                <circle id="Oval-Copy-18" transform="translate(1.000000, 19.000000) rotate(-270.000000) translate(-1.000000, -19.000000) " cx="1" cy="19" r="1"></circle>
                                <circle id="Oval-Copy-19" transform="translate(1.000000, 55.000000) rotate(-270.000000) translate(-1.000000, -55.000000) " cx="1" cy="55" r="1"></circle>
                                <circle id="Oval-Copy-20" transform="translate(1.000000, 7.000000) rotate(-270.000000) translate(-1.000000, -7.000000) " cx="1" cy="7" r="1"></circle>
                                <circle id="Oval-Copy-21" transform="translate(1.000000, 43.000000) rotate(-270.000000) translate(-1.000000, -43.000000) " cx="1" cy="43" r="1"></circle>
                                <circle id="Oval-Copy-22" transform="translate(1.000000, 25.000000) rotate(-270.000000) translate(-1.000000, -25.000000) " cx="1" cy="25" r="1"></circle>
                                <circle id="Oval-Copy-23" transform="translate(1.000000, 61.000000) rotate(-270.000000) translate(-1.000000, -61.000000) " cx="1" cy="61" r="1"></circle>
                                <circle id="Oval-Copy-24" transform="translate(1.000000, 67.000000) rotate(-270.000000) translate(-1.000000, -67.000000) " cx="1" cy="67" r="1"></circle>
                                <circle id="Oval-Copy-25" transform="translate(1.000000, 73.000000) rotate(-270.000000) translate(-1.000000, -73.000000) " cx="1" cy="73" r="1"></circle>
                                <circle id="Oval-Copy-13" transform="translate(49.000000, 31.000000) rotate(-270.000000) translate(-49.000000, -31.000000) " cx="49" cy="31" r="1"></circle>
                                <circle id="Oval-Copy-14" transform="translate(49.000000, 13.000000) rotate(-270.000000) translate(-49.000000, -13.000000) " cx="49" cy="13" r="1"></circle>
                                <circle id="Oval-Copy-15" transform="translate(49.000000, 49.000000) rotate(-270.000000) translate(-49.000000, -49.000000) " cx="49" cy="49" r="1"></circle>
                                <circle id="Oval-Copy-16" transform="translate(49.000000, 1.000000) rotate(-270.000000) translate(-49.000000, -1.000000) " cx="49" cy="1" r="1"></circle>
                                <circle id="Oval-Copy-17" transform="translate(49.000000, 37.000000) rotate(-270.000000) translate(-49.000000, -37.000000) " cx="49" cy="37" r="1"></circle>
                                <circle id="Oval-Copy-18" transform="translate(49.000000, 19.000000) rotate(-270.000000) translate(-49.000000, -19.000000) " cx="49" cy="19" r="1"></circle>
                                <circle id="Oval-Copy-19" transform="translate(49.000000, 55.000000) rotate(-270.000000) translate(-49.000000, -55.000000) " cx="49" cy="55" r="1"></circle>
                                <circle id="Oval-Copy-20" transform="translate(49.000000, 7.000000) rotate(-270.000000) translate(-49.000000, -7.000000) " cx="49" cy="7" r="1"></circle>
                                <circle id="Oval-Copy-21" transform="translate(49.000000, 43.000000) rotate(-270.000000) translate(-49.000000, -43.000000) " cx="49" cy="43" r="1"></circle>
                                <circle id="Oval-Copy-22" transform="translate(49.000000, 25.000000) rotate(-270.000000) translate(-49.000000, -25.000000) " cx="49" cy="25" r="1"></circle>
                                <circle id="Oval-Copy-23" transform="translate(49.000000, 61.000000) rotate(-270.000000) translate(-49.000000, -61.000000) " cx="49" cy="61" r="1"></circle>
                                <circle id="Oval-Copy-24" transform="translate(49.000000, 67.000000) rotate(-270.000000) translate(-49.000000, -67.000000) " cx="49" cy="67" r="1"></circle>
                                <circle id="Oval-Copy-25" transform="translate(49.000000, 73.000000) rotate(-270.000000) translate(-49.000000, -73.000000) " cx="49" cy="73" r="1"></circle>
                                <circle id="Oval-Copy-13" transform="translate(13.000000, 31.000000) rotate(-270.000000) translate(-13.000000, -31.000000) " cx="13" cy="31" r="1"></circle>
                                <circle id="Oval-Copy-14" transform="translate(13.000000, 13.000000) rotate(-270.000000) translate(-13.000000, -13.000000) " cx="13" cy="13" r="1"></circle>
                                <circle id="Oval-Copy-15" transform="translate(13.000000, 49.000000) rotate(-270.000000) translate(-13.000000, -49.000000) " cx="13" cy="49" r="1"></circle>
                                <circle id="Oval-Copy-16" transform="translate(13.000000, 1.000000) rotate(-270.000000) translate(-13.000000, -1.000000) " cx="13" cy="1" r="1"></circle>
                                <circle id="Oval-Copy-17" transform="translate(13.000000, 37.000000) rotate(-270.000000) translate(-13.000000, -37.000000) " cx="13" cy="37" r="1"></circle>
                                <circle id="Oval-Copy-18" transform="translate(13.000000, 19.000000) rotate(-270.000000) translate(-13.000000, -19.000000) " cx="13" cy="19" r="1"></circle>
                                <circle id="Oval-Copy-19" transform="translate(13.000000, 55.000000) rotate(-270.000000) translate(-13.000000, -55.000000) " cx="13" cy="55" r="1"></circle>
                                <circle id="Oval-Copy-20" transform="translate(13.000000, 7.000000) rotate(-270.000000) translate(-13.000000, -7.000000) " cx="13" cy="7" r="1"></circle>
                                <circle id="Oval-Copy-21" transform="translate(13.000000, 43.000000) rotate(-270.000000) translate(-13.000000, -43.000000) " cx="13" cy="43" r="1"></circle>
                                <circle id="Oval-Copy-22" transform="translate(13.000000, 25.000000) rotate(-270.000000) translate(-13.000000, -25.000000) " cx="13" cy="25" r="1"></circle>
                                <circle id="Oval-Copy-23" transform="translate(13.000000, 61.000000) rotate(-270.000000) translate(-13.000000, -61.000000) " cx="13" cy="61" r="1"></circle>
                                <circle id="Oval-Copy-24" transform="translate(13.000000, 67.000000) rotate(-270.000000) translate(-13.000000, -67.000000) " cx="13" cy="67" r="1"></circle>
                                <circle id="Oval-Copy-25" transform="translate(13.000000, 73.000000) rotate(-270.000000) translate(-13.000000, -73.000000) " cx="13" cy="73" r="1"></circle>
                                <circle id="Oval-Copy-13" transform="translate(31.000000, 31.000000) rotate(-270.000000) translate(-31.000000, -31.000000) " cx="31" cy="31" r="1"></circle>
                                <circle id="Oval-Copy-14" transform="translate(31.000000, 13.000000) rotate(-270.000000) translate(-31.000000, -13.000000) " cx="31" cy="13" r="1"></circle>
                                <circle id="Oval-Copy-15" transform="translate(31.000000, 49.000000) rotate(-270.000000) translate(-31.000000, -49.000000) " cx="31" cy="49" r="1"></circle>
                                <circle id="Oval-Copy-16" transform="translate(31.000000, 1.000000) rotate(-270.000000) translate(-31.000000, -1.000000) " cx="31" cy="1" r="1"></circle>
                                <circle id="Oval-Copy-17" transform="translate(31.000000, 37.000000) rotate(-270.000000) translate(-31.000000, -37.000000) " cx="31" cy="37" r="1"></circle>
                                <circle id="Oval-Copy-18" transform="translate(31.000000, 19.000000) rotate(-270.000000) translate(-31.000000, -19.000000) " cx="31" cy="19" r="1"></circle>
                                <circle id="Oval-Copy-19" transform="translate(31.000000, 55.000000) rotate(-270.000000) translate(-31.000000, -55.000000) " cx="31" cy="55" r="1"></circle>
                                <circle id="Oval-Copy-20" transform="translate(31.000000, 7.000000) rotate(-270.000000) translate(-31.000000, -7.000000) " cx="31" cy="7" r="1"></circle>
                                <circle id="Oval-Copy-21" transform="translate(31.000000, 43.000000) rotate(-270.000000) translate(-31.000000, -43.000000) " cx="31" cy="43" r="1"></circle>
                                <circle id="Oval-Copy-22" transform="translate(31.000000, 25.000000) rotate(-270.000000) translate(-31.000000, -25.000000) " cx="31" cy="25" r="1"></circle>
                                <circle id="Oval" transform="translate(127.000000, 1.000000) rotate(-270.000000) translate(-127.000000, -1.000000) " cx="127" cy="1" r="1"></circle>
                                <circle id="Oval-Copy-12" transform="translate(127.000000, 73.000000) rotate(-270.000000) translate(-127.000000, -73.000000) " cx="127" cy="73" r="1"></circle>
                                <circle id="Oval-Copy-6" transform="translate(127.000000, 37.000000) rotate(-270.000000) translate(-127.000000, -37.000000) " cx="127" cy="37" r="1"></circle>
                                <circle id="Oval-Copy-3" transform="translate(127.000000, 19.000000) rotate(-270.000000) translate(-127.000000, -19.000000) " cx="127" cy="19" r="1"></circle>
                                <circle id="Oval-Copy-7" transform="translate(127.000000, 55.000000) rotate(-270.000000) translate(-127.000000, -55.000000) " cx="127" cy="55" r="1"></circle>
                                <circle id="Oval-Copy" transform="translate(127.000000, 7.000000) rotate(-270.000000) translate(-127.000000, -7.000000) " cx="127" cy="7" r="1"></circle>
                                <circle id="Oval-Copy-8" transform="translate(127.000000, 43.000000) rotate(-270.000000) translate(-127.000000, -43.000000) " cx="127" cy="43" r="1"></circle>
                                <circle id="Oval-Copy-4" transform="translate(127.000000, 25.000000) rotate(-270.000000) translate(-127.000000, -25.000000) " cx="127" cy="25" r="1"></circle>
                                <circle id="Oval-Copy-9" transform="translate(127.000000, 61.000000) rotate(-270.000000) translate(-127.000000, -61.000000) " cx="127" cy="61" r="1"></circle>
                                <circle id="Oval-Copy-2" transform="translate(127.000000, 13.000000) rotate(-270.000000) translate(-127.000000, -13.000000) " cx="127" cy="13" r="1"></circle>
                                <circle id="Oval-Copy-10" transform="translate(127.000000, 49.000000) rotate(-270.000000) translate(-127.000000, -49.000000) " cx="127" cy="49" r="1"></circle>
                                <circle id="Oval-Copy-5" transform="translate(127.000000, 31.000000) rotate(-270.000000) translate(-127.000000, -31.000000) " cx="127" cy="31" r="1"></circle>
                                <circle id="Oval-Copy-11" transform="translate(127.000000, 67.000000) rotate(-270.000000) translate(-127.000000, -67.000000) " cx="127" cy="67" r="1"></circle>
                                <circle id="Oval" transform="translate(91.000000, 1.000000) rotate(-270.000000) translate(-91.000000, -1.000000) " cx="91" cy="1" r="1"></circle>
                                <circle id="Oval-Copy-12" transform="translate(91.000000, 73.000000) rotate(-270.000000) translate(-91.000000, -73.000000) " cx="91" cy="73" r="1"></circle>
                                <circle id="Oval-Copy-6" transform="translate(91.000000, 37.000000) rotate(-270.000000) translate(-91.000000, -37.000000) " cx="91" cy="37" r="1"></circle>
                                <circle id="Oval-Copy-3" transform="translate(91.000000, 19.000000) rotate(-270.000000) translate(-91.000000, -19.000000) " cx="91" cy="19" r="1"></circle>
                                <circle id="Oval-Copy-7" transform="translate(91.000000, 55.000000) rotate(-270.000000) translate(-91.000000, -55.000000) " cx="91" cy="55" r="1"></circle>
                                <circle id="Oval-Copy" transform="translate(91.000000, 7.000000) rotate(-270.000000) translate(-91.000000, -7.000000) " cx="91" cy="7" r="1"></circle>
                                <circle id="Oval-Copy-8" transform="translate(91.000000, 43.000000) rotate(-270.000000) translate(-91.000000, -43.000000) " cx="91" cy="43" r="1"></circle>
                                <circle id="Oval-Copy-4" transform="translate(91.000000, 25.000000) rotate(-270.000000) translate(-91.000000, -25.000000) " cx="91" cy="25" r="1"></circle>
                                <circle id="Oval-Copy-9" transform="translate(91.000000, 61.000000) rotate(-270.000000) translate(-91.000000, -61.000000) " cx="91" cy="61" r="1"></circle>
                                <circle id="Oval-Copy-2" transform="translate(91.000000, 13.000000) rotate(-270.000000) translate(-91.000000, -13.000000) " cx="91" cy="13" r="1"></circle>
                                <circle id="Oval-Copy-10" transform="translate(91.000000, 49.000000) rotate(-270.000000) translate(-91.000000, -49.000000) " cx="91" cy="49" r="1"></circle>
                                <circle id="Oval-Copy-5" transform="translate(91.000000, 31.000000) rotate(-270.000000) translate(-91.000000, -31.000000) " cx="91" cy="31" r="1"></circle>
                                <circle id="Oval-Copy-11" transform="translate(91.000000, 67.000000) rotate(-270.000000) translate(-91.000000, -67.000000) " cx="91" cy="67" r="1"></circle>
                                <circle id="Oval" transform="translate(109.000000, 1.000000) rotate(-270.000000) translate(-109.000000, -1.000000) " cx="109" cy="1" r="1"></circle>
                                <circle id="Oval-Copy-12" transform="translate(109.000000, 73.000000) rotate(-270.000000) translate(-109.000000, -73.000000) " cx="109" cy="73" r="1"></circle>
                                <circle id="Oval-Copy-6" transform="translate(109.000000, 37.000000) rotate(-270.000000) translate(-109.000000, -37.000000) " cx="109" cy="37" r="1"></circle>
                                <circle id="Oval-Copy-3" transform="translate(109.000000, 19.000000) rotate(-270.000000) translate(-109.000000, -19.000000) " cx="109" cy="19" r="1"></circle>
                                <circle id="Oval-Copy-7" transform="translate(109.000000, 55.000000) rotate(-270.000000) translate(-109.000000, -55.000000) " cx="109" cy="55" r="1"></circle>
                                <circle id="Oval-Copy" transform="translate(109.000000, 7.000000) rotate(-270.000000) translate(-109.000000, -7.000000) " cx="109" cy="7" r="1"></circle>
                                <circle id="Oval-Copy-8" transform="translate(109.000000, 43.000000) rotate(-270.000000) translate(-109.000000, -43.000000) " cx="109" cy="43" r="1"></circle>
                                <circle id="Oval-Copy-4" transform="translate(109.000000, 25.000000) rotate(-270.000000) translate(-109.000000, -25.000000) " cx="109" cy="25" r="1"></circle>
                                <circle id="Oval-Copy-9" transform="translate(109.000000, 61.000000) rotate(-270.000000) translate(-109.000000, -61.000000) " cx="109" cy="61" r="1"></circle>
                                <circle id="Oval-Copy-2" transform="translate(109.000000, 13.000000) rotate(-270.000000) translate(-109.000000, -13.000000) " cx="109" cy="13" r="1"></circle>
                                <circle id="Oval-Copy-10" transform="translate(109.000000, 49.000000) rotate(-270.000000) translate(-109.000000, -49.000000) " cx="109" cy="49" r="1"></circle>
                                <circle id="Oval-Copy-5" transform="translate(109.000000, 31.000000) rotate(-270.000000) translate(-109.000000, -31.000000) " cx="109" cy="31" r="1"></circle>
                                <circle id="Oval-Copy-11" transform="translate(109.000000, 67.000000) rotate(-270.000000) translate(-109.000000, -67.000000) " cx="109" cy="67" r="1"></circle>
                                <circle id="Oval" transform="translate(73.000000, 1.000000) rotate(-270.000000) translate(-73.000000, -1.000000) " cx="73" cy="1" r="1"></circle>
                                <circle id="Oval-Copy-12" transform="translate(73.000000, 73.000000) rotate(-270.000000) translate(-73.000000, -73.000000) " cx="73" cy="73" r="1"></circle>
                                <circle id="Oval-Copy-6" transform="translate(73.000000, 37.000000) rotate(-270.000000) translate(-73.000000, -37.000000) " cx="73" cy="37" r="1"></circle>
                                <circle id="Oval-Copy-3" transform="translate(73.000000, 19.000000) rotate(-270.000000) translate(-73.000000, -19.000000) " cx="73" cy="19" r="1"></circle>
                                <circle id="Oval-Copy-7" transform="translate(73.000000, 55.000000) rotate(-270.000000) translate(-73.000000, -55.000000) " cx="73" cy="55" r="1"></circle>
                                <circle id="Oval-Copy" transform="translate(73.000000, 7.000000) rotate(-270.000000) translate(-73.000000, -7.000000) " cx="73" cy="7" r="1"></circle>
                                <circle id="Oval-Copy-8" transform="translate(73.000000, 43.000000) rotate(-270.000000) translate(-73.000000, -43.000000) " cx="73" cy="43" r="1"></circle>
                                <circle id="Oval-Copy-4" transform="translate(73.000000, 25.000000) rotate(-270.000000) translate(-73.000000, -25.000000) " cx="73" cy="25" r="1"></circle>
                                <circle id="Oval-Copy-9" transform="translate(73.000000, 61.000000) rotate(-270.000000) translate(-73.000000, -61.000000) " cx="73" cy="61" r="1"></circle>
                                <circle id="Oval-Copy-2" transform="translate(73.000000, 13.000000) rotate(-270.000000) translate(-73.000000, -13.000000) " cx="73" cy="13" r="1"></circle>
                                <circle id="Oval-Copy-10" transform="translate(73.000000, 49.000000) rotate(-270.000000) translate(-73.000000, -49.000000) " cx="73" cy="49" r="1"></circle>
                                <circle id="Oval-Copy-5" transform="translate(73.000000, 31.000000) rotate(-270.000000) translate(-73.000000, -31.000000) " cx="73" cy="31" r="1"></circle>
                                <circle id="Oval-Copy-11" transform="translate(73.000000, 67.000000) rotate(-270.000000) translate(-73.000000, -67.000000) " cx="73" cy="67" r="1"></circle>
                                <circle id="Oval" transform="translate(121.000000, 1.000000) rotate(-270.000000) translate(-121.000000, -1.000000) " cx="121" cy="1" r="1"></circle>
                                <circle id="Oval-Copy-12" transform="translate(121.000000, 73.000000) rotate(-270.000000) translate(-121.000000, -73.000000) " cx="121" cy="73" r="1"></circle>
                                <circle id="Oval-Copy-6" transform="translate(121.000000, 37.000000) rotate(-270.000000) translate(-121.000000, -37.000000) " cx="121" cy="37" r="1"></circle>
                                <circle id="Oval-Copy-3" transform="translate(121.000000, 19.000000) rotate(-270.000000) translate(-121.000000, -19.000000) " cx="121" cy="19" r="1"></circle>
                                <circle id="Oval-Copy-7" transform="translate(121.000000, 55.000000) rotate(-270.000000) translate(-121.000000, -55.000000) " cx="121" cy="55" r="1"></circle>
                                <circle id="Oval-Copy" transform="translate(121.000000, 7.000000) rotate(-270.000000) translate(-121.000000, -7.000000) " cx="121" cy="7" r="1"></circle>
                                <circle id="Oval-Copy-8" transform="translate(121.000000, 43.000000) rotate(-270.000000) translate(-121.000000, -43.000000) " cx="121" cy="43" r="1"></circle>
                                <circle id="Oval-Copy-4" transform="translate(121.000000, 25.000000) rotate(-270.000000) translate(-121.000000, -25.000000) " cx="121" cy="25" r="1"></circle>
                                <circle id="Oval-Copy-9" transform="translate(121.000000, 61.000000) rotate(-270.000000) translate(-121.000000, -61.000000) " cx="121" cy="61" r="1"></circle>
                                <circle id="Oval-Copy-2" transform="translate(121.000000, 13.000000) rotate(-270.000000) translate(-121.000000, -13.000000) " cx="121" cy="13" r="1"></circle>
                                <circle id="Oval-Copy-10" transform="translate(121.000000, 49.000000) rotate(-270.000000) translate(-121.000000, -49.000000) " cx="121" cy="49" r="1"></circle>
                                <circle id="Oval-Copy-5" transform="translate(121.000000, 31.000000) rotate(-270.000000) translate(-121.000000, -31.000000) " cx="121" cy="31" r="1"></circle>
                                <circle id="Oval-Copy-11" transform="translate(121.000000, 67.000000) rotate(-270.000000) translate(-121.000000, -67.000000) " cx="121" cy="67" r="1"></circle>
                                <circle id="Oval" transform="translate(85.000000, 1.000000) rotate(-270.000000) translate(-85.000000, -1.000000) " cx="85" cy="1" r="1"></circle>
                                <circle id="Oval-Copy-12" transform="translate(85.000000, 73.000000) rotate(-270.000000) translate(-85.000000, -73.000000) " cx="85" cy="73" r="1"></circle>
                                <circle id="Oval-Copy-6" transform="translate(85.000000, 37.000000) rotate(-270.000000) translate(-85.000000, -37.000000) " cx="85" cy="37" r="1"></circle>
                                <circle id="Oval-Copy-3" transform="translate(85.000000, 19.000000) rotate(-270.000000) translate(-85.000000, -19.000000) " cx="85" cy="19" r="1"></circle>
                                <circle id="Oval-Copy-7" transform="translate(85.000000, 55.000000) rotate(-270.000000) translate(-85.000000, -55.000000) " cx="85" cy="55" r="1"></circle>
                                <circle id="Oval-Copy" transform="translate(85.000000, 7.000000) rotate(-270.000000) translate(-85.000000, -7.000000) " cx="85" cy="7" r="1"></circle>
                                <circle id="Oval-Copy-8" transform="translate(85.000000, 43.000000) rotate(-270.000000) translate(-85.000000, -43.000000) " cx="85" cy="43" r="1"></circle>
                                <circle id="Oval-Copy-4" transform="translate(85.000000, 25.000000) rotate(-270.000000) translate(-85.000000, -25.000000) " cx="85" cy="25" r="1"></circle>
                                <circle id="Oval-Copy-9" transform="translate(85.000000, 61.000000) rotate(-270.000000) translate(-85.000000, -61.000000) " cx="85" cy="61" r="1"></circle>
                                <circle id="Oval-Copy-2" transform="translate(85.000000, 13.000000) rotate(-270.000000) translate(-85.000000, -13.000000) " cx="85" cy="13" r="1"></circle>
                                <circle id="Oval-Copy-10" transform="translate(85.000000, 49.000000) rotate(-270.000000) translate(-85.000000, -49.000000) " cx="85" cy="49" r="1"></circle>
                                <circle id="Oval-Copy-5" transform="translate(85.000000, 31.000000) rotate(-270.000000) translate(-85.000000, -31.000000) " cx="85" cy="31" r="1"></circle>
                                <circle id="Oval-Copy-11" transform="translate(85.000000, 67.000000) rotate(-270.000000) translate(-85.000000, -67.000000) " cx="85" cy="67" r="1"></circle>
                                <circle id="Oval" transform="translate(103.000000, 1.000000) rotate(-270.000000) translate(-103.000000, -1.000000) " cx="103" cy="1" r="1"></circle>
                                <circle id="Oval-Copy-12" transform="translate(103.000000, 73.000000) rotate(-270.000000) translate(-103.000000, -73.000000) " cx="103" cy="73" r="1"></circle>
                                <circle id="Oval-Copy-6" transform="translate(103.000000, 37.000000) rotate(-270.000000) translate(-103.000000, -37.000000) " cx="103" cy="37" r="1"></circle>
                                <circle id="Oval-Copy-3" transform="translate(103.000000, 19.000000) rotate(-270.000000) translate(-103.000000, -19.000000) " cx="103" cy="19" r="1"></circle>
                                <circle id="Oval-Copy-7" transform="translate(103.000000, 55.000000) rotate(-270.000000) translate(-103.000000, -55.000000) " cx="103" cy="55" r="1"></circle>
                                <circle id="Oval-Copy" transform="translate(103.000000, 7.000000) rotate(-270.000000) translate(-103.000000, -7.000000) " cx="103" cy="7" r="1"></circle>
                                <circle id="Oval-Copy-8" transform="translate(103.000000, 43.000000) rotate(-270.000000) translate(-103.000000, -43.000000) " cx="103" cy="43" r="1"></circle>
                                <circle id="Oval-Copy-4" transform="translate(103.000000, 25.000000) rotate(-270.000000) translate(-103.000000, -25.000000) " cx="103" cy="25" r="1"></circle>
                                <circle id="Oval-Copy-9" transform="translate(103.000000, 61.000000) rotate(-270.000000) translate(-103.000000, -61.000000) " cx="103" cy="61" r="1"></circle>
                                <circle id="Oval-Copy-2" transform="translate(103.000000, 13.000000) rotate(-270.000000) translate(-103.000000, -13.000000) " cx="103" cy="13" r="1"></circle>
                                <circle id="Oval-Copy-10" transform="translate(103.000000, 49.000000) rotate(-270.000000) translate(-103.000000, -49.000000) " cx="103" cy="49" r="1"></circle>
                                <circle id="Oval-Copy-5" transform="translate(103.000000, 31.000000) rotate(-270.000000) translate(-103.000000, -31.000000) " cx="103" cy="31" r="1"></circle>
                                <circle id="Oval-Copy-11" transform="translate(103.000000, 67.000000) rotate(-270.000000) translate(-103.000000, -67.000000) " cx="103" cy="67" r="1"></circle>
                                <circle id="Oval" transform="translate(67.000000, 1.000000) rotate(-270.000000) translate(-67.000000, -1.000000) " cx="67" cy="1" r="1"></circle>
                                <circle id="Oval-Copy-12" transform="translate(67.000000, 73.000000) rotate(-270.000000) translate(-67.000000, -73.000000) " cx="67" cy="73" r="1"></circle>
                                <circle id="Oval-Copy-6" transform="translate(67.000000, 37.000000) rotate(-270.000000) translate(-67.000000, -37.000000) " cx="67" cy="37" r="1"></circle>
                                <circle id="Oval-Copy-3" transform="translate(67.000000, 19.000000) rotate(-270.000000) translate(-67.000000, -19.000000) " cx="67" cy="19" r="1"></circle>
                                <circle id="Oval-Copy-7" transform="translate(67.000000, 55.000000) rotate(-270.000000) translate(-67.000000, -55.000000) " cx="67" cy="55" r="1"></circle>
                                <circle id="Oval-Copy" transform="translate(67.000000, 7.000000) rotate(-270.000000) translate(-67.000000, -7.000000) " cx="67" cy="7" r="1"></circle>
                                <circle id="Oval-Copy-8" transform="translate(67.000000, 43.000000) rotate(-270.000000) translate(-67.000000, -43.000000) " cx="67" cy="43" r="1"></circle>
                                <circle id="Oval-Copy-4" transform="translate(67.000000, 25.000000) rotate(-270.000000) translate(-67.000000, -25.000000) " cx="67" cy="25" r="1"></circle>
                                <circle id="Oval-Copy-9" transform="translate(67.000000, 61.000000) rotate(-270.000000) translate(-67.000000, -61.000000) " cx="67" cy="61" r="1"></circle>
                                <circle id="Oval-Copy-2" transform="translate(67.000000, 13.000000) rotate(-270.000000) translate(-67.000000, -13.000000) " cx="67" cy="13" r="1"></circle>
                                <circle id="Oval-Copy-10" transform="translate(67.000000, 49.000000) rotate(-270.000000) translate(-67.000000, -49.000000) " cx="67" cy="49" r="1"></circle>
                                <circle id="Oval-Copy-5" transform="translate(67.000000, 31.000000) rotate(-270.000000) translate(-67.000000, -31.000000) " cx="67" cy="31" r="1"></circle>
                                <circle id="Oval-Copy-11" transform="translate(67.000000, 67.000000) rotate(-270.000000) translate(-67.000000, -67.000000) " cx="67" cy="67" r="1"></circle>
                                <circle id="Oval" transform="translate(115.000000, 1.000000) rotate(-270.000000) translate(-115.000000, -1.000000) " cx="115" cy="1" r="1"></circle>
                                <circle id="Oval-Copy-12" transform="translate(115.000000, 73.000000) rotate(-270.000000) translate(-115.000000, -73.000000) " cx="115" cy="73" r="1"></circle>
                                <circle id="Oval-Copy-6" transform="translate(115.000000, 37.000000) rotate(-270.000000) translate(-115.000000, -37.000000) " cx="115" cy="37" r="1"></circle>
                                <circle id="Oval-Copy-3" transform="translate(115.000000, 19.000000) rotate(-270.000000) translate(-115.000000, -19.000000) " cx="115" cy="19" r="1"></circle>
                                <circle id="Oval-Copy-7" transform="translate(115.000000, 55.000000) rotate(-270.000000) translate(-115.000000, -55.000000) " cx="115" cy="55" r="1"></circle>
                                <circle id="Oval-Copy" transform="translate(115.000000, 7.000000) rotate(-270.000000) translate(-115.000000, -7.000000) " cx="115" cy="7" r="1"></circle>
                                <circle id="Oval-Copy-8" transform="translate(115.000000, 43.000000) rotate(-270.000000) translate(-115.000000, -43.000000) " cx="115" cy="43" r="1"></circle>
                                <circle id="Oval-Copy-4" transform="translate(115.000000, 25.000000) rotate(-270.000000) translate(-115.000000, -25.000000) " cx="115" cy="25" r="1"></circle>
                                <circle id="Oval-Copy-9" transform="translate(115.000000, 61.000000) rotate(-270.000000) translate(-115.000000, -61.000000) " cx="115" cy="61" r="1"></circle>
                                <circle id="Oval-Copy-2" transform="translate(115.000000, 13.000000) rotate(-270.000000) translate(-115.000000, -13.000000) " cx="115" cy="13" r="1"></circle>
                                <circle id="Oval-Copy-10" transform="translate(115.000000, 49.000000) rotate(-270.000000) translate(-115.000000, -49.000000) " cx="115" cy="49" r="1"></circle>
                                <circle id="Oval-Copy-5" transform="translate(115.000000, 31.000000) rotate(-270.000000) translate(-115.000000, -31.000000) " cx="115" cy="31" r="1"></circle>
                                <circle id="Oval-Copy-11" transform="translate(115.000000, 67.000000) rotate(-270.000000) translate(-115.000000, -67.000000) " cx="115" cy="67" r="1"></circle>
                                <circle id="Oval" transform="translate(79.000000, 1.000000) rotate(-270.000000) translate(-79.000000, -1.000000) " cx="79" cy="1" r="1"></circle>
                                <circle id="Oval-Copy-12" transform="translate(79.000000, 73.000000) rotate(-270.000000) translate(-79.000000, -73.000000) " cx="79" cy="73" r="1"></circle>
                                <circle id="Oval-Copy-6" transform="translate(79.000000, 37.000000) rotate(-270.000000) translate(-79.000000, -37.000000) " cx="79" cy="37" r="1"></circle>
                                <circle id="Oval-Copy-3" transform="translate(79.000000, 19.000000) rotate(-270.000000) translate(-79.000000, -19.000000) " cx="79" cy="19" r="1"></circle>
                                <circle id="Oval-Copy-7" transform="translate(79.000000, 55.000000) rotate(-270.000000) translate(-79.000000, -55.000000) " cx="79" cy="55" r="1"></circle>
                                <circle id="Oval-Copy" transform="translate(79.000000, 7.000000) rotate(-270.000000) translate(-79.000000, -7.000000) " cx="79" cy="7" r="1"></circle>
                                <circle id="Oval-Copy-8" transform="translate(79.000000, 43.000000) rotate(-270.000000) translate(-79.000000, -43.000000) " cx="79" cy="43" r="1"></circle>
                                <circle id="Oval-Copy-4" transform="translate(79.000000, 25.000000) rotate(-270.000000) translate(-79.000000, -25.000000) " cx="79" cy="25" r="1"></circle>
                                <circle id="Oval-Copy-9" transform="translate(79.000000, 61.000000) rotate(-270.000000) translate(-79.000000, -61.000000) " cx="79" cy="61" r="1"></circle>
                                <circle id="Oval-Copy-2" transform="translate(79.000000, 13.000000) rotate(-270.000000) translate(-79.000000, -13.000000) " cx="79" cy="13" r="1"></circle>
                                <circle id="Oval-Copy-10" transform="translate(79.000000, 49.000000) rotate(-270.000000) translate(-79.000000, -49.000000) " cx="79" cy="49" r="1"></circle>
                                <circle id="Oval-Copy-5" transform="translate(79.000000, 31.000000) rotate(-270.000000) translate(-79.000000, -31.000000) " cx="79" cy="31" r="1"></circle>
                                <circle id="Oval-Copy-11" transform="translate(79.000000, 67.000000) rotate(-270.000000) translate(-79.000000, -67.000000) " cx="79" cy="67" r="1"></circle>
                                <circle id="Oval" transform="translate(97.000000, 1.000000) rotate(-270.000000) translate(-97.000000, -1.000000) " cx="97" cy="1" r="1"></circle>
                                <circle id="Oval-Copy-12" transform="translate(97.000000, 73.000000) rotate(-270.000000) translate(-97.000000, -73.000000) " cx="97" cy="73" r="1"></circle>
                                <circle id="Oval-Copy-6" transform="translate(97.000000, 37.000000) rotate(-270.000000) translate(-97.000000, -37.000000) " cx="97" cy="37" r="1"></circle>
                                <circle id="Oval-Copy-3" transform="translate(97.000000, 19.000000) rotate(-270.000000) translate(-97.000000, -19.000000) " cx="97" cy="19" r="1"></circle>
                                <circle id="Oval-Copy-7" transform="translate(97.000000, 55.000000) rotate(-270.000000) translate(-97.000000, -55.000000) " cx="97" cy="55" r="1"></circle>
                                <circle id="Oval-Copy" transform="translate(97.000000, 7.000000) rotate(-270.000000) translate(-97.000000, -7.000000) " cx="97" cy="7" r="1"></circle>
                                <circle id="Oval-Copy-8" transform="translate(97.000000, 43.000000) rotate(-270.000000) translate(-97.000000, -43.000000) " cx="97" cy="43" r="1"></circle>
                                <circle id="Oval-Copy-4" transform="translate(97.000000, 25.000000) rotate(-270.000000) translate(-97.000000, -25.000000) " cx="97" cy="25" r="1"></circle>
                                <circle id="Oval-Copy-9" transform="translate(97.000000, 61.000000) rotate(-270.000000) translate(-97.000000, -61.000000) " cx="97" cy="61" r="1"></circle>
                                <circle id="Oval-Copy-2" transform="translate(97.000000, 13.000000) rotate(-270.000000) translate(-97.000000, -13.000000) " cx="97" cy="13" r="1"></circle>
                                <circle id="Oval-Copy-10" transform="translate(97.000000, 49.000000) rotate(-270.000000) translate(-97.000000, -49.000000) " cx="97" cy="49" r="1"></circle>
                                <circle id="Oval-Copy-5" transform="translate(97.000000, 31.000000) rotate(-270.000000) translate(-97.000000, -31.000000) " cx="97" cy="31" r="1"></circle>
                                <circle id="Oval-Copy-11" transform="translate(97.000000, 67.000000) rotate(-270.000000) translate(-97.000000, -67.000000) " cx="97" cy="67" r="1"></circle>
                                <circle id="Oval-Copy-23" transform="translate(31.000000, 61.000000) rotate(-270.000000) translate(-31.000000, -61.000000) " cx="31" cy="61" r="1"></circle>
                                <circle id="Oval-Copy-24" transform="translate(31.000000, 67.000000) rotate(-270.000000) translate(-31.000000, -67.000000) " cx="31" cy="67" r="1"></circle>
                                <circle id="Oval-Copy-25" transform="translate(31.000000, 73.000000) rotate(-270.000000) translate(-31.000000, -73.000000) " cx="31" cy="73" r="1"></circle>
                            </g>
                            <g id="Group-25" transform="translate(7.000000, 7.000000)" stroke="#FD5750">
                                <circle id="Oval-3" cx="24" cy="12" r="6"></circle>
                                <polyline id="Path-4" points="12 54 60 54 60 36"></polyline>
                                <polyline id="Path-9" points="90 48 78 48 78 30 66 30"></polyline>
                                <polyline id="Path-10" points="84 12 84 18 60 18 60 24"></polyline>
                                <polyline id="Path-11" points="24 18 24 30.0415946 54.0000288 30.0415946"></polyline>
                                <circle id="Oval-3-Copy" cx="60" cy="30" r="6"></circle>
                                <circle id="Oval-3-Copy-2" cx="6" cy="54" r="6"></circle>
                                <circle id="Oval-3-Copy-3" cx="84" cy="6" r="6"></circle>
                                <circle id="Oval-3-Copy-4" cx="96" cy="48" r="6"></circle>
                            </g>
                        </g>
                    </g>
                </g>
            </g>
        </g>
    </g>
</svg>